{"glyphs":{"0":{"ha":833,"x_min":93,"x_max":794,"o":"m 328 -19 q 207 22 258 -19 q 127 141 156 64 q 96 324 99 218 q 121 561 93 431 q 195 794 149 689 q 301 974 242 899 q 426 1090 360 1049 q 560 1131 493 1131 q 680 1089 629 1131 q 760 970 731 1047 q 792 787 789 893 q 767 550 794 681 q 692 317 739 422 q 586 138 646 213 q 460 22 526 63 q 328 -19 394 -19 m 329 44 q 437 81 382 44 q 542 187 492 118 q 633 350 593 256 q 699 561 674 444 q 722 827 732 714 q 669 1003 713 940 q 558 1067 626 1067 q 451 1030 506 1067 q 345 924 396 993 q 254 761 294 856 q 189 550 214 667 q 166 285 157 399 q 218 108 175 171 q 329 44 261 44 m 436 490 q 385 510 401 490 q 375 561 369 531 q 401 603 381 588 q 451 618 422 618 q 502 599 485 618 q 513 550 519 581 q 485 507 507 524 q 436 490 464 490 z "},"1":{"ha":833,"x_min":93,"x_max":596,"o":"m 244 828 l 253 892 q 378 919 321 892 q 474 998 435 947 q 528 1114 514 1049 l 596 1108 q 528 960 578 1024 q 406 863 479 897 q 244 828 333 828 m 93 0 l 107 64 l 571 64 l 557 0 l 93 0 m 297 28 l 526 1111 l 596 1111 l 367 28 l 297 28 z "},"2":{"ha":833,"x_min":6,"x_max":849,"o":"m 6 0 l 21 67 q 90 195 36 136 q 219 310 143 254 q 381 423 296 365 q 544 545 465 481 q 680 688 622 610 q 758 864 738 767 q 763 986 775 942 q 701 1049 750 1031 q 557 1067 651 1067 q 401 1047 461 1067 q 308 981 342 1026 q 257 856 275 935 l 189 861 q 252 1024 211 965 q 366 1106 293 1082 q 558 1131 439 1131 q 748 1105 682 1131 q 831 1019 814 1079 q 826 853 849 958 q 745 662 804 746 q 607 510 686 578 q 443 386 528 443 q 282 277 358 329 q 153 173 206 225 q 89 61 101 121 l 656 64 l 642 0 l 6 0 z "},"3":{"ha":833,"x_min":54,"x_max":832,"o":"m 328 -19 q 149 6 211 -19 q 70 92 86 32 q 75 256 54 153 l 144 256 q 139 128 128 174 q 196 63 150 82 q 329 44 242 44 q 477 67 419 44 q 569 145 535 90 q 622 294 603 200 q 636 444 643 389 q 590 524 629 499 q 474 556 551 550 l 374 556 l 388 619 l 482 619 q 613 649 563 625 q 694 720 664 672 q 740 849 724 768 q 748 979 758 932 q 692 1047 738 1026 q 558 1067 646 1067 q 412 1049 468 1067 q 324 990 356 1031 q 276 876 292 949 l 208 876 q 268 1031 229 975 q 376 1108 307 1086 q 560 1131 446 1131 q 738 1103 676 1131 q 816 1013 800 1076 q 808 838 832 949 q 771 720 793 767 q 713 642 749 674 q 618 585 676 611 q 685 525 664 561 q 708 431 707 489 q 690 283 710 374 q 624 101 665 168 q 512 8 582 35 q 328 -19 442 -19 z "},"4":{"ha":833,"x_min":61,"x_max":782,"o":"m 476 0 l 540 300 l 61 300 l 74 364 l 719 1111 l 782 1111 l 624 364 l 726 364 l 713 300 l 610 300 l 546 0 l 476 0 m 160 364 l 554 364 l 688 985 l 160 364 z "},"5":{"ha":833,"x_min":42,"x_max":857,"o":"m 328 -19 q 142 5 207 -19 q 59 85 76 29 q 61 236 42 140 l 131 231 q 128 118 115 158 q 189 61 140 78 q 329 44 238 44 q 494 72 431 44 q 597 163 558 99 q 658 338 635 228 q 672 507 682 446 q 611 594 661 568 q 463 619 561 619 q 389 611 424 619 q 315 584 354 603 q 224 532 275 565 l 153 533 l 275 1111 l 857 1111 l 844 1049 l 332 1049 l 235 600 q 343 666 293 649 q 465 683 393 683 q 659 650 593 683 q 740 539 725 617 q 725 326 754 461 q 652 119 697 194 q 529 12 607 43 q 328 -19 451 -19 z "},"6":{"ha":833,"x_min":54,"x_max":843,"o":"m 328 -19 q 144 13 207 -19 q 67 123 81 46 q 82 333 54 200 l 172 757 q 248 981 203 900 q 367 1097 293 1063 q 560 1131 442 1131 q 745 1105 681 1131 q 826 1019 810 1079 q 821 856 843 960 l 753 861 q 758 985 769 940 q 698 1049 746 1031 q 558 1067 650 1067 q 403 1038 464 1067 q 304 940 342 1008 q 240 751 267 871 l 201 574 q 274 640 238 617 q 356 674 310 664 q 465 683 401 683 q 649 650 586 683 q 725 539 713 617 q 708 326 738 461 q 637 119 681 194 q 519 12 593 43 q 328 -19 446 -19 m 329 44 q 484 72 424 44 q 581 163 544 99 q 642 338 618 228 q 656 507 665 446 q 601 594 647 568 q 463 619 554 619 q 308 592 368 619 q 210 501 247 565 q 150 325 174 436 q 136 156 128 218 q 191 69 144 94 q 329 44 238 44 z "},"7":{"ha":833,"x_min":132,"x_max":872,"o":"m 132 3 q 314 352 214 178 q 532 701 414 526 q 786 1050 650 876 l 231 1047 l 243 1111 l 872 1111 l 860 1044 q 605 696 724 871 q 386 347 486 521 q 204 -3 286 172 l 132 3 z "},"8":{"ha":833,"x_min":39,"x_max":821,"o":"m 328 -19 q 136 10 203 -19 q 54 112 69 40 q 65 306 39 183 q 108 444 83 390 q 174 533 133 499 q 281 593 215 568 q 206 684 221 629 q 213 849 190 739 q 275 1018 236 957 q 382 1105 314 1079 q 560 1131 450 1131 q 732 1103 672 1131 q 806 1013 792 1076 q 797 838 821 949 q 761 721 782 767 q 708 644 740 675 q 621 588 675 613 q 700 528 674 564 q 729 438 726 493 q 713 294 732 382 q 644 106 688 175 q 525 9 600 38 q 328 -19 450 -19 m 329 44 q 490 69 428 44 q 589 150 553 93 q 646 306 625 207 q 656 456 667 401 q 595 533 644 511 q 450 556 546 556 q 288 531 350 556 q 190 450 226 507 q 132 294 154 393 q 123 144 113 199 q 183 67 133 90 q 329 44 233 44 m 451 619 q 592 641 538 619 q 679 713 647 663 q 729 849 711 763 q 738 979 747 932 q 685 1047 728 1026 q 558 1067 642 1067 q 417 1045 472 1067 q 331 974 363 1024 q 281 838 299 924 q 272 707 263 754 q 325 640 282 660 q 451 619 368 619 z "},"9":{"ha":833,"x_min":43,"x_max":833,"o":"m 328 -19 q 142 6 207 -19 q 60 92 78 32 q 65 256 43 153 l 135 250 q 130 126 118 171 q 190 63 142 82 q 329 44 238 44 q 485 74 424 44 q 583 172 546 103 q 646 360 621 242 l 686 538 q 614 471 650 494 q 533 438 578 447 q 422 428 488 428 q 238 461 301 428 q 163 572 175 494 q 178 785 150 650 q 251 992 207 917 q 368 1099 294 1068 q 560 1131 442 1131 q 744 1098 681 1131 q 820 988 807 1065 q 804 778 833 911 l 715 354 q 640 130 685 211 q 520 15 594 49 q 328 -19 446 -19 m 424 492 q 579 519 518 492 q 677 610 640 546 q 738 786 714 675 q 752 956 761 894 q 697 1042 743 1017 q 558 1067 650 1067 q 403 1040 464 1067 q 306 949 343 1013 q 246 774 269 885 q 231 605 224 667 q 285 517 239 543 q 424 492 332 492 z "},"A":{"ha":833,"x_min":-22,"x_max":672,"o":"m -22 0 l 522 1111 l 600 1111 l 672 0 l 601 0 l 540 1007 l 51 0 l -22 0 m 167 300 l 197 364 l 608 364 l 611 300 l 167 300 z "},"Á":{"ha":833,"x_min":-22,"x_max":790,"o":"m -22 0 l 522 1111 l 600 1111 l 672 0 l 601 0 l 540 1007 l 51 0 l -22 0 m 167 300 l 197 364 l 608 364 l 611 300 l 167 300 m 571 1211 l 533 1260 l 753 1424 l 790 1375 l 571 1211 z "},"Ă":{"ha":833,"x_min":-22,"x_max":794,"o":"m -22 0 l 522 1111 l 600 1111 l 672 0 l 601 0 l 540 1007 l 51 0 l -22 0 m 167 300 l 197 364 l 608 364 l 611 300 l 167 300 m 592 1236 q 461 1272 492 1236 q 449 1396 431 1307 l 517 1396 q 514 1338 510 1358 q 538 1308 518 1317 q 594 1300 557 1300 q 663 1310 636 1300 q 704 1340 689 1319 q 726 1396 719 1361 l 794 1396 q 760 1299 782 1335 q 697 1250 738 1264 q 592 1236 657 1236 z "},"Ắ":{"ha":833,"x_min":-22,"x_max":806,"o":"m -22 0 l 522 1111 l 600 1111 l 672 0 l 601 0 l 540 1007 l 51 0 l -22 0 m 167 300 l 197 364 l 608 364 l 611 300 l 167 300 m 575 1158 q 444 1194 475 1158 q 432 1318 414 1229 l 500 1318 q 506 1242 489 1263 q 578 1222 522 1222 q 669 1244 640 1222 q 710 1318 699 1267 l 778 1318 q 743 1222 765 1257 q 681 1172 721 1186 q 575 1158 640 1158 m 585 1288 l 549 1336 l 768 1500 l 806 1451 l 585 1288 z "},"Ặ":{"ha":833,"x_min":-22,"x_max":794,"o":"m -22 0 l 522 1111 l 600 1111 l 672 0 l 601 0 l 540 1007 l 51 0 l -22 0 m 167 300 l 197 364 l 608 364 l 611 300 l 167 300 m 267 -308 q 205 -292 219 -308 q 200 -232 190 -275 q 228 -178 210 -193 q 286 -164 247 -164 q 349 -180 335 -164 q 353 -240 363 -196 q 326 -294 344 -279 q 267 -308 307 -308 m 592 1236 q 461 1272 492 1236 q 449 1396 431 1307 l 517 1396 q 514 1338 510 1358 q 538 1308 518 1317 q 594 1300 557 1300 q 663 1310 636 1300 q 704 1340 689 1319 q 726 1396 719 1361 l 794 1396 q 760 1299 782 1335 q 697 1250 738 1264 q 592 1236 657 1236 z "},"Ằ":{"ha":833,"x_min":-22,"x_max":778,"o":"m -22 0 l 522 1111 l 600 1111 l 672 0 l 601 0 l 540 1007 l 51 0 l -22 0 m 167 300 l 197 364 l 608 364 l 611 300 l 167 300 m 575 1158 q 444 1194 475 1158 q 432 1318 414 1229 l 500 1318 q 506 1242 489 1263 q 578 1222 522 1222 q 669 1244 640 1222 q 710 1318 699 1267 l 778 1318 q 743 1222 765 1257 q 681 1172 721 1186 q 575 1158 640 1158 m 614 1288 l 460 1451 l 514 1500 l 669 1336 l 614 1288 z "},"Ẳ":{"ha":833,"x_min":-22,"x_max":808,"o":"m -22 0 l 522 1111 l 600 1111 l 672 0 l 601 0 l 540 1007 l 51 0 l -22 0 m 167 300 l 197 364 l 608 364 l 611 300 l 167 300 m 606 1236 q 475 1272 506 1236 q 463 1396 444 1307 l 531 1396 q 528 1338 524 1358 q 551 1308 532 1317 q 608 1300 571 1300 q 676 1310 650 1300 q 718 1340 703 1319 q 740 1396 733 1361 l 808 1396 q 774 1299 796 1335 q 711 1250 751 1264 q 606 1236 671 1236 m 621 1419 l 611 1482 q 687 1516 660 1494 q 719 1560 714 1538 q 711 1590 724 1579 q 682 1601 699 1601 q 610 1583 647 1601 q 550 1549 574 1565 l 563 1629 q 623 1656 589 1646 q 683 1665 657 1665 q 767 1633 736 1665 q 786 1549 797 1601 q 736 1472 778 1507 q 621 1419 694 1436 z "},"Ẵ":{"ha":833,"x_min":-22,"x_max":886,"o":"m -22 0 l 522 1111 l 600 1111 l 672 0 l 601 0 l 540 1007 l 51 0 l -22 0 m 167 300 l 197 364 l 608 364 l 611 300 l 167 300 m 606 1239 q 475 1274 506 1239 q 463 1399 444 1310 l 531 1399 q 528 1340 524 1361 q 551 1311 532 1319 q 608 1303 571 1303 q 676 1313 650 1303 q 718 1343 703 1322 q 740 1399 733 1364 l 808 1399 q 774 1302 796 1338 q 711 1253 751 1267 q 606 1239 671 1239 m 753 1486 q 699 1502 721 1486 q 659 1540 676 1518 q 626 1577 642 1561 q 589 1593 610 1593 q 544 1573 557 1593 q 524 1522 531 1553 l 456 1522 q 506 1621 469 1585 q 590 1657 542 1657 q 642 1641 619 1657 q 682 1603 664 1625 q 717 1566 700 1582 q 754 1550 735 1550 q 799 1569 786 1550 q 818 1617 813 1589 l 886 1617 q 838 1522 874 1557 q 753 1486 801 1486 z "},"Ǎ":{"ha":833,"x_min":-22,"x_max":800,"o":"m -22 0 l 522 1111 l 600 1111 l 672 0 l 601 0 l 540 1007 l 51 0 l -22 0 m 167 300 l 197 364 l 608 364 l 611 300 l 167 300 m 586 1219 l 438 1379 l 497 1421 l 601 1308 l 753 1424 l 800 1382 l 586 1219 z "},"Â":{"ha":833,"x_min":-22,"x_max":771,"o":"m -22 0 l 522 1111 l 600 1111 l 672 0 l 601 0 l 540 1007 l 51 0 l -22 0 m 167 300 l 197 364 l 608 364 l 611 300 l 167 300 m 710 1208 l 608 1324 l 457 1211 l 411 1253 l 624 1413 l 771 1250 l 710 1208 z "},"Ấ":{"ha":833,"x_min":-22,"x_max":864,"o":"m -22 0 l 522 1111 l 600 1111 l 672 0 l 601 0 l 540 1007 l 51 0 l -22 0 m 167 300 l 197 364 l 608 364 l 611 300 l 167 300 m 724 1208 l 622 1324 l 471 1211 l 425 1253 l 638 1413 l 785 1250 l 724 1208 m 644 1496 l 607 1544 l 826 1708 l 864 1660 l 644 1496 z "},"Ậ":{"ha":833,"x_min":-22,"x_max":771,"o":"m -22 0 l 522 1111 l 600 1111 l 672 0 l 601 0 l 540 1007 l 51 0 l -22 0 m 167 300 l 197 364 l 608 364 l 611 300 l 167 300 m 267 -308 q 205 -292 219 -308 q 200 -232 190 -275 q 228 -178 210 -193 q 286 -164 247 -164 q 349 -180 335 -164 q 353 -240 363 -196 q 326 -294 344 -279 q 267 -308 307 -308 m 710 1208 l 608 1324 l 457 1211 l 411 1253 l 624 1413 l 771 1250 l 710 1208 z "},"Ầ":{"ha":833,"x_min":-22,"x_max":785,"o":"m -22 0 l 522 1111 l 600 1111 l 672 0 l 601 0 l 540 1007 l 51 0 l -22 0 m 167 300 l 197 364 l 608 364 l 611 300 l 167 300 m 724 1208 l 622 1324 l 471 1211 l 425 1253 l 638 1413 l 785 1250 l 724 1208 m 672 1496 l 517 1660 l 571 1708 l 726 1544 l 672 1496 z "},"Ẩ":{"ha":833,"x_min":-22,"x_max":804,"o":"m -22 0 l 522 1111 l 600 1111 l 672 0 l 601 0 l 540 1007 l 51 0 l -22 0 m 167 300 l 197 364 l 608 364 l 611 300 l 167 300 m 724 1208 l 622 1324 l 471 1211 l 425 1253 l 638 1413 l 785 1250 l 724 1208 m 628 1451 l 618 1514 q 694 1548 667 1526 q 726 1592 721 1569 q 718 1622 731 1611 q 689 1633 706 1633 q 617 1615 654 1633 q 557 1581 581 1597 l 569 1661 q 630 1688 596 1678 q 690 1697 664 1697 q 774 1665 743 1697 q 793 1581 804 1633 q 743 1503 785 1539 q 628 1451 701 1468 z "},"Ẫ":{"ha":833,"x_min":-22,"x_max":893,"o":"m -22 0 l 522 1111 l 600 1111 l 672 0 l 601 0 l 540 1007 l 51 0 l -22 0 m 167 300 l 197 364 l 608 364 l 611 300 l 167 300 m 724 1208 l 622 1324 l 471 1211 l 425 1253 l 638 1413 l 785 1250 l 724 1208 m 760 1515 q 706 1531 728 1515 q 666 1569 683 1547 q 633 1606 649 1590 q 596 1622 617 1622 q 551 1602 564 1622 q 531 1551 538 1582 l 463 1551 q 513 1650 476 1614 q 597 1686 549 1686 q 649 1670 626 1686 q 689 1633 671 1654 q 724 1595 707 1611 q 761 1579 742 1579 q 806 1599 793 1579 q 825 1646 819 1618 l 893 1646 q 844 1551 881 1586 q 760 1515 808 1515 z "},"Ä":{"ha":833,"x_min":-22,"x_max":846,"o":"m -22 0 l 522 1111 l 600 1111 l 672 0 l 601 0 l 540 1007 l 51 0 l -22 0 m 167 300 l 197 364 l 608 364 l 611 300 l 167 300 m 751 1274 q 691 1291 706 1274 q 686 1351 676 1308 q 710 1402 693 1389 q 769 1415 728 1415 q 831 1399 815 1415 q 836 1340 846 1382 q 810 1288 828 1301 q 751 1274 793 1274 m 451 1274 q 391 1291 406 1274 q 386 1351 376 1308 q 410 1402 393 1389 q 469 1415 428 1415 q 531 1399 515 1415 q 536 1340 546 1382 q 510 1288 528 1301 q 451 1274 493 1274 z "},"Ạ":{"ha":833,"x_min":-22,"x_max":672,"o":"m -22 0 l 522 1111 l 600 1111 l 672 0 l 601 0 l 540 1007 l 51 0 l -22 0 m 167 300 l 197 364 l 608 364 l 611 300 l 167 300 m 267 -308 q 205 -292 219 -308 q 200 -232 190 -275 q 228 -178 210 -193 q 286 -164 247 -164 q 349 -180 335 -164 q 353 -240 363 -196 q 326 -294 344 -279 q 267 -308 307 -308 z "},"À":{"ha":833,"x_min":-22,"x_max":672,"o":"m -22 0 l 522 1111 l 600 1111 l 672 0 l 601 0 l 540 1007 l 51 0 l -22 0 m 167 300 l 197 364 l 608 364 l 611 300 l 167 300 m 599 1211 l 443 1375 l 497 1424 l 653 1260 l 599 1211 z "},"Ả":{"ha":833,"x_min":-22,"x_max":731,"o":"m -22 0 l 522 1111 l 600 1111 l 672 0 l 601 0 l 540 1007 l 51 0 l -22 0 m 167 300 l 197 364 l 608 364 l 611 300 l 167 300 m 554 1167 l 544 1229 q 620 1263 593 1242 q 653 1307 647 1285 q 644 1338 657 1326 q 615 1349 632 1349 q 544 1331 581 1349 q 483 1296 507 1313 l 496 1376 q 556 1403 522 1393 q 617 1413 590 1413 q 700 1381 669 1413 q 719 1296 731 1349 q 669 1219 711 1254 q 554 1167 628 1183 z "},"Ā":{"ha":833,"x_min":-22,"x_max":797,"o":"m -22 0 l 522 1111 l 600 1111 l 672 0 l 601 0 l 540 1007 l 51 0 l -22 0 m 167 300 l 197 364 l 608 364 l 611 300 l 167 300 m 403 1263 l 417 1326 l 797 1326 l 783 1263 l 403 1263 z "},"Ą":{"ha":833,"x_min":-22,"x_max":672,"o":"m -22 0 l 522 1111 l 600 1111 l 672 0 l 601 0 l 540 1007 l 51 0 l -22 0 m 167 300 l 197 364 l 608 364 l 611 300 l 167 300 m 553 -272 q 447 -247 488 -272 q 407 -171 407 -222 q 438 -106 407 -137 q 518 -43 468 -74 q 624 14 568 -12 l 672 0 q 583 -52 628 -26 q 507 -103 538 -78 q 476 -157 476 -129 q 497 -194 476 -179 q 553 -208 518 -208 q 599 -199 575 -208 q 642 -175 624 -189 l 671 -233 q 617 -262 650 -251 q 553 -272 585 -272 z "},"Å":{"ha":833,"x_min":-22,"x_max":775,"o":"m -22 0 l 522 1111 l 600 1111 l 672 0 l 601 0 l 540 1007 l 51 0 l -22 0 m 167 300 l 197 364 l 608 364 l 611 300 l 167 300 m 553 1051 q 422 1088 453 1051 q 410 1217 392 1124 q 446 1310 424 1276 q 507 1357 468 1343 q 610 1371 546 1371 q 744 1335 713 1371 q 756 1206 775 1299 q 721 1113 743 1147 q 658 1065 699 1079 q 553 1051 618 1051 m 556 1115 q 647 1138 618 1115 q 688 1217 676 1161 q 682 1288 699 1269 q 608 1307 665 1307 q 518 1285 547 1307 q 478 1206 489 1263 q 483 1135 467 1154 q 556 1115 500 1115 z "},"Ã":{"ha":833,"x_min":-22,"x_max":819,"o":"m -22 0 l 522 1111 l 600 1111 l 672 0 l 601 0 l 540 1007 l 51 0 l -22 0 m 167 300 l 197 364 l 608 364 l 611 300 l 167 300 m 686 1231 q 632 1247 654 1231 q 592 1284 610 1263 q 559 1322 575 1306 q 522 1338 543 1338 q 477 1317 490 1338 q 457 1267 464 1297 l 389 1267 q 439 1365 403 1329 q 524 1401 475 1401 q 575 1385 553 1401 q 615 1348 597 1369 q 651 1310 633 1326 q 688 1294 668 1294 q 733 1314 719 1294 q 751 1361 746 1333 l 819 1361 q 771 1266 807 1301 q 686 1231 735 1231 z "},"Æ":{"ha":833,"x_min":-82,"x_max":960,"o":"m -82 0 l 454 1111 l 960 1111 l 947 1047 l 632 1047 l 526 556 l 731 556 l 718 492 l 514 492 l 422 64 l 738 64 l 724 0 l 339 0 l 563 1047 l 496 1047 l -8 0 l -82 0 m 135 364 l 164 428 l 469 428 l 456 364 l 135 364 z "},"B":{"ha":833,"x_min":39,"x_max":801,"o":"m 39 0 l 275 1111 l 536 1111 q 710 1085 650 1111 q 786 997 771 1058 q 778 831 801 936 q 742 716 764 761 q 683 642 719 671 q 586 593 646 614 q 680 542 649 575 q 716 452 711 508 q 701 306 721 396 q 635 122 676 189 q 524 28 594 56 q 340 0 454 0 l 39 0 m 122 64 l 349 64 q 492 88 436 64 q 581 167 547 111 q 635 317 615 222 q 644 460 654 408 q 590 534 635 513 q 458 556 546 556 l 226 556 l 122 64 m 240 619 l 432 619 q 574 640 519 619 q 661 710 629 661 q 711 842 693 758 q 717 966 728 921 q 662 1029 707 1011 q 529 1047 617 1047 l 332 1047 l 240 619 z "},"C":{"ha":833,"x_min":85,"x_max":829,"o":"m 349 -19 q 156 34 219 -19 q 89 215 93 88 q 131 563 85 342 q 205 835 165 725 q 296 1009 244 944 q 417 1102 347 1074 q 581 1131 486 1131 q 717 1109 665 1131 q 794 1038 768 1088 q 829 903 821 989 l 760 885 q 734 995 753 956 q 678 1051 715 1035 q 579 1067 642 1067 q 408 1019 478 1067 q 289 860 338 972 q 199 551 240 747 q 158 248 158 358 q 204 91 157 138 q 350 44 251 44 q 461 62 415 44 q 544 119 507 79 q 618 228 581 160 l 682 200 q 592 67 638 115 q 488 0 546 19 q 349 -19 431 -19 z "},"Ć":{"ha":833,"x_min":85,"x_max":829,"o":"m 349 -19 q 156 34 219 -19 q 89 215 93 88 q 131 563 85 342 q 205 835 165 725 q 296 1009 244 944 q 417 1102 347 1074 q 581 1131 486 1131 q 717 1109 665 1131 q 794 1038 768 1088 q 829 903 821 989 l 760 885 q 734 995 753 956 q 678 1051 715 1035 q 579 1067 642 1067 q 408 1019 478 1067 q 289 860 338 972 q 199 551 240 747 q 158 248 158 358 q 204 91 157 138 q 350 44 251 44 q 461 62 415 44 q 544 119 507 79 q 618 228 581 160 l 682 200 q 592 67 638 115 q 488 0 546 19 q 349 -19 431 -19 m 569 1207 l 532 1256 l 751 1419 l 789 1371 l 569 1207 z "},"Č":{"ha":833,"x_min":85,"x_max":829,"o":"m 349 -19 q 156 34 219 -19 q 89 215 93 88 q 131 563 85 342 q 205 835 165 725 q 296 1009 244 944 q 417 1102 347 1074 q 581 1131 486 1131 q 717 1109 665 1131 q 794 1038 768 1088 q 829 903 821 989 l 760 885 q 734 995 753 956 q 678 1051 715 1035 q 579 1067 642 1067 q 408 1019 478 1067 q 289 860 338 972 q 199 551 240 747 q 158 248 158 358 q 204 91 157 138 q 350 44 251 44 q 461 62 415 44 q 544 119 507 79 q 618 228 581 160 l 682 200 q 592 67 638 115 q 488 0 546 19 q 349 -19 431 -19 m 585 1215 l 436 1375 l 496 1417 l 600 1304 l 751 1419 l 799 1378 l 585 1215 z "},"Ç":{"ha":833,"x_min":85,"x_max":829,"o":"m 349 -19 q 156 34 219 -19 q 89 215 93 88 q 131 563 85 342 q 205 835 165 725 q 296 1009 244 944 q 417 1102 347 1074 q 581 1131 486 1131 q 717 1109 665 1131 q 794 1038 768 1088 q 829 903 821 989 l 760 885 q 734 995 753 956 q 678 1051 715 1035 q 579 1067 642 1067 q 408 1019 478 1067 q 289 860 338 972 q 199 551 240 747 q 158 248 158 358 q 204 91 157 138 q 350 44 251 44 q 461 62 415 44 q 544 119 507 79 q 618 228 581 160 l 682 200 q 592 67 638 115 q 488 0 546 19 q 349 -19 431 -19 m 260 -272 q 194 -261 225 -272 q 146 -232 164 -250 l 183 -176 q 220 -199 199 -190 q 261 -208 242 -208 q 324 -192 297 -208 q 356 -151 350 -176 q 335 -122 360 -132 q 264 -111 310 -111 l 286 7 l 356 7 l 340 -56 q 408 -95 385 -65 q 422 -162 431 -125 q 368 -242 413 -212 q 260 -272 324 -272 z "},"Ĉ":{"ha":833,"x_min":85,"x_max":829,"o":"m 349 -19 q 156 34 219 -19 q 89 215 93 88 q 131 563 85 342 q 205 835 165 725 q 296 1009 244 944 q 417 1102 347 1074 q 581 1131 486 1131 q 717 1109 665 1131 q 794 1038 768 1088 q 829 903 821 989 l 760 885 q 734 995 753 956 q 678 1051 715 1035 q 579 1067 642 1067 q 408 1019 478 1067 q 289 860 338 972 q 199 551 240 747 q 158 248 158 358 q 204 91 157 138 q 350 44 251 44 q 461 62 415 44 q 544 119 507 79 q 618 228 581 160 l 682 200 q 592 67 638 115 q 488 0 546 19 q 349 -19 431 -19 m 708 1204 l 607 1319 l 456 1207 l 410 1249 l 622 1408 l 769 1246 l 708 1204 z "},"Ċ":{"ha":833,"x_min":85,"x_max":829,"o":"m 349 -19 q 156 34 219 -19 q 89 215 93 88 q 131 563 85 342 q 205 835 165 725 q 296 1009 244 944 q 417 1102 347 1074 q 581 1131 486 1131 q 717 1109 665 1131 q 794 1038 768 1088 q 829 903 821 989 l 760 885 q 734 995 753 956 q 678 1051 715 1035 q 579 1067 642 1067 q 408 1019 478 1067 q 289 860 338 972 q 199 551 240 747 q 158 248 158 358 q 204 91 157 138 q 350 44 251 44 q 461 62 415 44 q 544 119 507 79 q 618 228 581 160 l 682 200 q 592 67 638 115 q 488 0 546 19 q 349 -19 431 -19 m 604 1290 q 542 1307 557 1290 q 538 1367 528 1324 q 566 1420 547 1406 q 624 1435 585 1435 q 686 1419 672 1435 q 690 1358 700 1403 q 663 1305 682 1319 q 604 1290 644 1290 z "},"D":{"ha":833,"x_min":26,"x_max":824,"o":"m 26 0 l 263 1111 l 576 1111 q 756 1060 697 1111 q 819 885 815 1008 q 778 550 824 763 q 706 287 744 393 q 618 117 668 181 q 502 27 568 54 q 346 0 436 0 l 26 0 m 101 19 l 65 64 l 354 64 q 513 110 449 64 q 624 265 578 156 q 710 561 671 374 q 751 853 750 747 q 708 1003 751 958 q 569 1047 664 1047 l 272 1047 l 328 1092 l 101 19 z "},"Ð":{"ha":833,"x_min":31,"x_max":828,"o":"m 31 0 l 267 1111 l 581 1111 q 760 1060 701 1111 q 824 885 819 1008 q 782 550 828 763 q 710 287 749 393 q 622 117 672 181 q 506 27 572 54 q 350 0 440 0 l 31 0 m 76 556 l 90 619 l 433 619 l 419 556 l 76 556 m 106 19 l 69 64 l 358 64 q 517 110 453 64 q 628 265 582 156 q 714 561 675 374 q 755 853 754 747 q 712 1003 756 958 q 574 1047 668 1047 l 276 1047 l 332 1092 l 106 19 z "},"Ď":{"ha":833,"x_min":26,"x_max":824,"o":"m 26 0 l 263 1111 l 576 1111 q 756 1060 697 1111 q 819 885 815 1008 q 778 550 824 763 q 706 287 744 393 q 618 117 668 181 q 502 27 568 54 q 346 0 436 0 l 26 0 m 101 19 l 65 64 l 354 64 q 513 110 449 64 q 624 265 578 156 q 710 561 671 374 q 751 853 750 747 q 708 1003 751 958 q 569 1047 664 1047 l 272 1047 l 328 1092 l 101 19 m 585 1215 l 436 1375 l 496 1417 l 600 1304 l 751 1419 l 799 1378 l 585 1215 z "},"Đ":{"ha":833,"x_min":31,"x_max":828,"o":"m 31 0 l 267 1111 l 581 1111 q 760 1060 701 1111 q 824 885 819 1008 q 782 550 828 763 q 710 287 749 393 q 622 117 672 181 q 506 27 572 54 q 350 0 440 0 l 31 0 m 76 556 l 90 619 l 433 619 l 419 556 l 76 556 m 106 19 l 69 64 l 358 64 q 517 110 453 64 q 628 265 582 156 q 714 561 675 374 q 755 853 754 747 q 712 1003 756 958 q 574 1047 668 1047 l 276 1047 l 332 1092 l 106 19 z "},"E":{"ha":833,"x_min":50,"x_max":875,"o":"m 50 0 l 286 1111 l 875 1111 l 863 1047 l 299 1047 l 350 1090 l 246 590 l 210 619 l 585 619 l 571 556 l 194 556 l 243 585 l 128 35 l 106 64 l 653 64 l 639 0 l 50 0 z "},"É":{"ha":833,"x_min":50,"x_max":875,"o":"m 50 0 l 286 1111 l 875 1111 l 863 1047 l 299 1047 l 350 1090 l 246 590 l 210 619 l 585 619 l 571 556 l 194 556 l 243 585 l 128 35 l 106 64 l 653 64 l 639 0 l 50 0 m 590 1211 l 553 1260 l 772 1424 l 810 1375 l 590 1211 z "},"Ě":{"ha":833,"x_min":50,"x_max":875,"o":"m 50 0 l 286 1111 l 875 1111 l 863 1047 l 299 1047 l 350 1090 l 246 590 l 210 619 l 585 619 l 571 556 l 194 556 l 243 585 l 128 35 l 106 64 l 653 64 l 639 0 l 50 0 m 606 1219 l 457 1379 l 517 1421 l 621 1308 l 772 1424 l 819 1382 l 606 1219 z "},"Ê":{"ha":833,"x_min":50,"x_max":875,"o":"m 50 0 l 286 1111 l 875 1111 l 863 1047 l 299 1047 l 350 1090 l 246 590 l 210 619 l 585 619 l 571 556 l 194 556 l 243 585 l 128 35 l 106 64 l 653 64 l 639 0 l 50 0 m 729 1208 l 628 1324 l 476 1211 l 431 1253 l 643 1413 l 790 1250 l 729 1208 z "},"Ế":{"ha":833,"x_min":50,"x_max":883,"o":"m 50 0 l 286 1111 l 875 1111 l 863 1047 l 299 1047 l 350 1090 l 246 590 l 210 619 l 585 619 l 571 556 l 194 556 l 243 585 l 128 35 l 106 64 l 653 64 l 639 0 l 50 0 m 743 1208 l 642 1324 l 490 1211 l 444 1253 l 657 1413 l 804 1250 l 743 1208 m 664 1496 l 626 1544 l 846 1708 l 883 1660 l 664 1496 z "},"Ệ":{"ha":833,"x_min":50,"x_max":875,"o":"m 50 0 l 286 1111 l 875 1111 l 863 1047 l 299 1047 l 350 1090 l 246 590 l 210 619 l 585 619 l 571 556 l 194 556 l 243 585 l 128 35 l 106 64 l 653 64 l 639 0 l 50 0 m 286 -308 q 224 -292 239 -308 q 219 -232 210 -275 q 248 -178 229 -193 q 306 -164 267 -164 q 368 -180 354 -164 q 372 -240 382 -196 q 345 -294 364 -279 q 286 -308 326 -308 m 729 1208 l 628 1324 l 476 1211 l 431 1253 l 643 1413 l 790 1250 l 729 1208 z "},"Ề":{"ha":833,"x_min":50,"x_max":875,"o":"m 50 0 l 286 1111 l 875 1111 l 863 1047 l 299 1047 l 350 1090 l 246 590 l 210 619 l 585 619 l 571 556 l 194 556 l 243 585 l 128 35 l 106 64 l 653 64 l 639 0 l 50 0 m 743 1208 l 642 1324 l 490 1211 l 444 1253 l 657 1413 l 804 1250 l 743 1208 m 692 1496 l 536 1660 l 590 1708 l 746 1544 l 692 1496 z "},"Ể":{"ha":833,"x_min":50,"x_max":875,"o":"m 50 0 l 286 1111 l 875 1111 l 863 1047 l 299 1047 l 350 1090 l 246 590 l 210 619 l 585 619 l 571 556 l 194 556 l 243 585 l 128 35 l 106 64 l 653 64 l 639 0 l 50 0 m 743 1208 l 642 1324 l 490 1211 l 444 1253 l 657 1413 l 804 1250 l 743 1208 m 647 1451 l 638 1514 q 713 1548 686 1526 q 746 1592 740 1569 q 738 1622 750 1611 q 708 1633 725 1633 q 637 1615 674 1633 q 576 1581 600 1597 l 589 1661 q 649 1688 615 1678 q 710 1697 683 1697 q 793 1665 763 1697 q 813 1581 824 1633 q 763 1503 804 1539 q 647 1451 721 1468 z "},"Ễ":{"ha":833,"x_min":50,"x_max":913,"o":"m 50 0 l 286 1111 l 875 1111 l 863 1047 l 299 1047 l 350 1090 l 246 590 l 210 619 l 585 619 l 571 556 l 194 556 l 243 585 l 128 35 l 106 64 l 653 64 l 639 0 l 50 0 m 743 1208 l 642 1324 l 490 1211 l 444 1253 l 657 1413 l 804 1250 l 743 1208 m 779 1515 q 725 1531 747 1515 q 685 1569 703 1547 q 652 1606 668 1590 q 615 1622 636 1622 q 570 1602 583 1622 q 550 1551 557 1582 l 482 1551 q 532 1650 496 1614 q 617 1686 568 1686 q 668 1670 646 1686 q 708 1633 690 1654 q 744 1595 726 1611 q 781 1579 761 1579 q 826 1599 813 1579 q 844 1646 839 1618 l 913 1646 q 864 1551 900 1586 q 779 1515 828 1515 z "},"Ë":{"ha":833,"x_min":50,"x_max":875,"o":"m 50 0 l 286 1111 l 875 1111 l 863 1047 l 299 1047 l 350 1090 l 246 590 l 210 619 l 585 619 l 571 556 l 194 556 l 243 585 l 128 35 l 106 64 l 653 64 l 639 0 l 50 0 m 771 1274 q 710 1291 725 1274 q 706 1351 696 1308 q 730 1402 713 1389 q 789 1415 747 1415 q 850 1399 835 1415 q 856 1340 865 1382 q 830 1288 847 1301 q 771 1274 813 1274 m 471 1274 q 410 1291 425 1274 q 406 1351 396 1308 q 430 1402 413 1389 q 489 1415 447 1415 q 550 1399 535 1415 q 556 1340 565 1382 q 530 1288 547 1301 q 471 1274 513 1274 z "},"Ė":{"ha":833,"x_min":50,"x_max":875,"o":"m 50 0 l 286 1111 l 875 1111 l 863 1047 l 299 1047 l 350 1090 l 246 590 l 210 619 l 585 619 l 571 556 l 194 556 l 243 585 l 128 35 l 106 64 l 653 64 l 639 0 l 50 0 m 625 1294 q 563 1311 578 1294 q 558 1371 549 1328 q 587 1424 568 1410 q 644 1439 606 1439 q 707 1423 693 1439 q 711 1363 721 1407 q 684 1309 703 1324 q 625 1294 665 1294 z "},"Ẹ":{"ha":833,"x_min":50,"x_max":875,"o":"m 50 0 l 286 1111 l 875 1111 l 863 1047 l 299 1047 l 350 1090 l 246 590 l 210 619 l 585 619 l 571 556 l 194 556 l 243 585 l 128 35 l 106 64 l 653 64 l 639 0 l 50 0 m 286 -308 q 224 -292 239 -308 q 219 -232 210 -275 q 248 -178 229 -193 q 306 -164 267 -164 q 368 -180 354 -164 q 372 -240 382 -196 q 345 -294 364 -279 q 286 -308 326 -308 z "},"È":{"ha":833,"x_min":50,"x_max":875,"o":"m 50 0 l 286 1111 l 875 1111 l 863 1047 l 299 1047 l 350 1090 l 246 590 l 210 619 l 585 619 l 571 556 l 194 556 l 243 585 l 128 35 l 106 64 l 653 64 l 639 0 l 50 0 m 618 1211 l 463 1375 l 517 1424 l 672 1260 l 618 1211 z "},"Ẻ":{"ha":833,"x_min":50,"x_max":875,"o":"m 50 0 l 286 1111 l 875 1111 l 863 1047 l 299 1047 l 350 1090 l 246 590 l 210 619 l 585 619 l 571 556 l 194 556 l 243 585 l 128 35 l 106 64 l 653 64 l 639 0 l 50 0 m 574 1167 l 564 1229 q 640 1263 613 1242 q 672 1307 667 1285 q 664 1338 676 1326 q 635 1349 651 1349 q 563 1331 600 1349 q 503 1296 526 1313 l 515 1376 q 576 1403 542 1393 q 636 1413 610 1413 q 719 1381 689 1413 q 739 1296 750 1349 q 689 1219 731 1254 q 574 1167 647 1183 z "},"Ē":{"ha":833,"x_min":50,"x_max":875,"o":"m 50 0 l 286 1111 l 875 1111 l 863 1047 l 299 1047 l 350 1090 l 246 590 l 210 619 l 585 619 l 571 556 l 194 556 l 243 585 l 128 35 l 106 64 l 653 64 l 639 0 l 50 0 m 422 1263 l 436 1326 l 817 1326 l 803 1263 l 422 1263 z "},"Ę":{"ha":833,"x_min":50,"x_max":875,"o":"m 50 0 l 286 1111 l 875 1111 l 863 1047 l 299 1047 l 350 1090 l 246 590 l 210 619 l 585 619 l 571 556 l 194 556 l 243 585 l 128 35 l 106 64 l 653 64 l 639 0 l 50 0 m 518 -272 q 413 -247 453 -272 q 372 -171 372 -222 q 403 -106 372 -137 q 483 -43 433 -74 q 589 14 533 -12 l 638 0 q 548 -52 593 -26 q 472 -103 503 -78 q 442 -157 442 -129 q 463 -194 442 -179 q 518 -208 483 -208 q 565 -199 540 -208 q 607 -175 589 -189 l 636 -233 q 583 -262 615 -251 q 518 -272 550 -272 z "},"Ẽ":{"ha":833,"x_min":50,"x_max":875,"o":"m 50 0 l 286 1111 l 875 1111 l 863 1047 l 299 1047 l 350 1090 l 246 590 l 210 619 l 585 619 l 571 556 l 194 556 l 243 585 l 128 35 l 106 64 l 653 64 l 639 0 l 50 0 m 706 1231 q 651 1247 674 1231 q 612 1284 629 1263 q 578 1322 594 1306 q 542 1338 563 1338 q 497 1317 510 1338 q 476 1267 483 1297 l 408 1267 q 458 1365 422 1329 q 543 1401 494 1401 q 594 1385 572 1401 q 635 1348 617 1369 q 670 1310 653 1326 q 707 1294 688 1294 q 752 1314 739 1294 q 771 1361 765 1333 l 839 1361 q 790 1266 826 1301 q 706 1231 754 1231 z "},"F":{"ha":833,"x_min":51,"x_max":876,"o":"m 51 0 l 288 1111 l 876 1111 l 864 1047 l 300 1047 l 351 1090 l 232 513 l 197 556 l 572 556 l 560 492 l 182 492 l 233 535 l 121 0 l 51 0 z "},"G":{"ha":833,"x_min":78,"x_max":844,"o":"m 354 -19 q 155 34 221 -19 q 83 214 89 88 q 124 561 78 340 q 199 833 158 724 q 292 1008 239 943 q 417 1102 344 1074 q 586 1131 489 1131 q 732 1107 678 1131 q 813 1028 786 1083 q 844 879 839 974 l 778 868 q 754 988 774 944 q 694 1049 735 1031 q 585 1067 654 1067 q 406 1019 478 1067 q 283 858 333 971 q 192 550 233 746 q 151 247 150 357 q 201 90 151 136 q 356 44 251 44 q 467 61 421 44 q 551 116 514 78 q 625 218 589 154 l 685 492 l 443 492 l 456 556 l 767 556 l 693 203 q 601 69 647 118 q 496 1 554 21 q 354 -19 438 -19 z "},"Ğ":{"ha":833,"x_min":78,"x_max":844,"o":"m 354 -19 q 155 34 221 -19 q 83 214 89 88 q 124 561 78 340 q 199 833 158 724 q 292 1008 239 943 q 417 1102 344 1074 q 586 1131 489 1131 q 732 1107 678 1131 q 813 1028 786 1083 q 844 879 839 974 l 778 868 q 754 988 774 944 q 694 1049 735 1031 q 585 1067 654 1067 q 406 1019 478 1067 q 283 858 333 971 q 192 550 233 746 q 151 247 150 357 q 201 90 151 136 q 356 44 251 44 q 467 61 421 44 q 551 116 514 78 q 625 218 589 154 l 685 492 l 443 492 l 456 556 l 767 556 l 693 203 q 601 69 647 118 q 496 1 554 21 q 354 -19 438 -19 m 590 1232 q 460 1267 490 1232 q 447 1392 429 1303 l 515 1392 q 513 1333 508 1354 q 536 1304 517 1313 q 593 1296 556 1296 q 661 1306 635 1296 q 703 1336 688 1315 q 725 1392 718 1357 l 793 1392 q 758 1295 781 1331 q 696 1246 736 1260 q 590 1232 656 1232 z "},"Ĝ":{"ha":833,"x_min":78,"x_max":844,"o":"m 354 -19 q 155 34 221 -19 q 83 214 89 88 q 124 561 78 340 q 199 833 158 724 q 292 1008 239 943 q 417 1102 344 1074 q 586 1131 489 1131 q 732 1107 678 1131 q 813 1028 786 1083 q 844 879 839 974 l 778 868 q 754 988 774 944 q 694 1049 735 1031 q 585 1067 654 1067 q 406 1019 478 1067 q 283 858 333 971 q 192 550 233 746 q 151 247 150 357 q 201 90 151 136 q 356 44 251 44 q 467 61 421 44 q 551 116 514 78 q 625 218 589 154 l 685 492 l 443 492 l 456 556 l 767 556 l 693 203 q 601 69 647 118 q 496 1 554 21 q 354 -19 438 -19 m 708 1204 l 607 1319 l 456 1207 l 410 1249 l 622 1408 l 769 1246 l 708 1204 z "},"Ģ":{"ha":833,"x_min":78,"x_max":844,"o":"m 354 -19 q 155 34 221 -19 q 83 214 89 88 q 124 561 78 340 q 199 833 158 724 q 292 1008 239 943 q 417 1102 344 1074 q 586 1131 489 1131 q 732 1107 678 1131 q 813 1028 786 1083 q 844 879 839 974 l 778 868 q 754 988 774 944 q 694 1049 735 1031 q 585 1067 654 1067 q 406 1019 478 1067 q 283 858 333 971 q 192 550 233 746 q 151 247 150 357 q 201 90 151 136 q 356 44 251 44 q 467 61 421 44 q 551 116 514 78 q 625 218 589 154 l 685 492 l 443 492 l 456 556 l 767 556 l 693 203 q 601 69 647 118 q 496 1 554 21 q 354 -19 438 -19 m 178 -342 l 283 -174 q 258 -156 265 -171 q 257 -114 251 -142 q 276 -74 264 -83 q 321 -64 289 -64 q 369 -77 357 -64 q 374 -125 381 -90 q 345 -188 368 -150 q 292 -267 322 -226 q 229 -344 261 -308 l 178 -342 z "},"Ġ":{"ha":833,"x_min":78,"x_max":844,"o":"m 354 -19 q 155 34 221 -19 q 83 214 89 88 q 124 561 78 340 q 199 833 158 724 q 292 1008 239 943 q 417 1102 344 1074 q 586 1131 489 1131 q 732 1107 678 1131 q 813 1028 786 1083 q 844 879 839 974 l 778 868 q 754 988 774 944 q 694 1049 735 1031 q 585 1067 654 1067 q 406 1019 478 1067 q 283 858 333 971 q 192 550 233 746 q 151 247 150 357 q 201 90 151 136 q 356 44 251 44 q 467 61 421 44 q 551 116 514 78 q 625 218 589 154 l 685 492 l 443 492 l 456 556 l 767 556 l 693 203 q 601 69 647 118 q 496 1 554 21 q 354 -19 438 -19 m 604 1290 q 542 1307 557 1290 q 538 1367 528 1324 q 566 1420 547 1406 q 624 1435 585 1435 q 686 1419 672 1435 q 690 1358 700 1403 q 663 1305 682 1319 q 604 1290 644 1290 z "},"H":{"ha":833,"x_min":25,"x_max":861,"o":"m 556 0 l 792 1111 l 861 1111 l 625 0 l 556 0 m 25 0 l 261 1111 l 331 1111 l 94 0 l 25 0 m 183 556 l 197 619 l 717 619 l 703 556 l 183 556 z "},"Ħ":{"ha":833,"x_min":25,"x_max":876,"o":"m 114 767 l 126 831 l 876 831 l 864 767 l 114 767 m 556 0 l 792 1111 l 861 1111 l 625 0 l 556 0 m 25 0 l 261 1111 l 331 1111 l 94 0 l 25 0 m 183 556 l 197 619 l 717 619 l 703 556 l 183 556 z "},"Ĥ":{"ha":833,"x_min":25,"x_max":861,"o":"m 556 0 l 792 1111 l 861 1111 l 625 0 l 556 0 m 25 0 l 261 1111 l 331 1111 l 94 0 l 25 0 m 183 556 l 197 619 l 717 619 l 703 556 l 183 556 m 708 1204 l 607 1319 l 456 1207 l 410 1249 l 622 1408 l 769 1246 l 708 1204 z "},"I":{"ha":833,"x_min":65,"x_max":821,"o":"m 290 0 l 526 1111 l 596 1111 l 360 0 l 290 0 m 65 0 l 79 64 l 599 64 l 585 0 l 65 0 m 289 1047 l 301 1111 l 821 1111 l 808 1047 l 289 1047 z "},"Ĳ":{"ha":833,"x_min":-18,"x_max":918,"o":"m 207 0 l 443 1111 l 513 1111 l 276 0 l 207 0 m -18 0 l -4 64 l 256 64 l 242 0 l -18 0 m 206 1047 l 218 1111 l 738 1111 l 725 1047 l 206 1047 m 124 -146 l 176 -96 q 231 -127 197 -118 q 314 -136 265 -136 q 483 -95 415 -136 q 597 42 551 -54 q 678 306 643 139 l 836 1047 l 654 1047 l 667 1111 l 918 1111 l 746 300 q 678 60 715 157 q 592 -93 642 -36 q 475 -175 543 -150 q 313 -200 407 -200 q 199 -187 244 -200 q 124 -146 153 -174 z "},"Í":{"ha":833,"x_min":65,"x_max":821,"o":"m 290 0 l 526 1111 l 596 1111 l 360 0 l 290 0 m 65 0 l 79 64 l 599 64 l 585 0 l 65 0 m 289 1047 l 301 1111 l 821 1111 l 808 1047 l 289 1047 m 571 1211 l 533 1260 l 753 1424 l 790 1375 l 571 1211 z "},"Ǐ":{"ha":833,"x_min":65,"x_max":821,"o":"m 290 0 l 526 1111 l 596 1111 l 360 0 l 290 0 m 65 0 l 79 64 l 599 64 l 585 0 l 65 0 m 289 1047 l 301 1111 l 821 1111 l 808 1047 l 289 1047 m 586 1219 l 438 1379 l 497 1421 l 601 1308 l 753 1424 l 800 1382 l 586 1219 z "},"Î":{"ha":833,"x_min":65,"x_max":821,"o":"m 290 0 l 526 1111 l 596 1111 l 360 0 l 290 0 m 65 0 l 79 64 l 599 64 l 585 0 l 65 0 m 289 1047 l 301 1111 l 821 1111 l 808 1047 l 289 1047 m 710 1208 l 608 1324 l 457 1211 l 411 1253 l 624 1413 l 771 1250 l 710 1208 z "},"Ï":{"ha":833,"x_min":65,"x_max":846,"o":"m 290 0 l 526 1111 l 596 1111 l 360 0 l 290 0 m 65 0 l 79 64 l 599 64 l 585 0 l 65 0 m 289 1047 l 301 1111 l 821 1111 l 808 1047 l 289 1047 m 751 1274 q 691 1291 706 1274 q 686 1351 676 1308 q 710 1402 693 1389 q 769 1415 728 1415 q 831 1399 815 1415 q 836 1340 846 1382 q 810 1288 828 1301 q 751 1274 793 1274 m 451 1274 q 391 1291 406 1274 q 386 1351 376 1308 q 410 1402 393 1389 q 469 1415 428 1415 q 531 1399 515 1415 q 536 1340 546 1382 q 510 1288 528 1301 q 451 1274 493 1274 z "},"İ":{"ha":833,"x_min":65,"x_max":821,"o":"m 290 0 l 526 1111 l 596 1111 l 360 0 l 290 0 m 65 0 l 79 64 l 599 64 l 585 0 l 65 0 m 289 1047 l 301 1111 l 821 1111 l 808 1047 l 289 1047 m 606 1294 q 544 1311 558 1294 q 539 1371 529 1328 q 567 1424 549 1410 q 625 1439 586 1439 q 688 1423 674 1439 q 692 1363 701 1407 q 665 1309 683 1324 q 606 1294 646 1294 z "},"Ị":{"ha":833,"x_min":65,"x_max":821,"o":"m 290 0 l 526 1111 l 596 1111 l 360 0 l 290 0 m 65 0 l 79 64 l 599 64 l 585 0 l 65 0 m 289 1047 l 301 1111 l 821 1111 l 808 1047 l 289 1047 m 267 -308 q 205 -292 219 -308 q 200 -232 190 -275 q 228 -178 210 -193 q 286 -164 247 -164 q 349 -180 335 -164 q 353 -240 363 -196 q 326 -294 344 -279 q 267 -308 307 -308 z "},"Ì":{"ha":833,"x_min":65,"x_max":821,"o":"m 290 0 l 526 1111 l 596 1111 l 360 0 l 290 0 m 65 0 l 79 64 l 599 64 l 585 0 l 65 0 m 289 1047 l 301 1111 l 821 1111 l 808 1047 l 289 1047 m 599 1211 l 443 1375 l 497 1424 l 653 1260 l 599 1211 z "},"Ỉ":{"ha":833,"x_min":65,"x_max":821,"o":"m 290 0 l 526 1111 l 596 1111 l 360 0 l 290 0 m 65 0 l 79 64 l 599 64 l 585 0 l 65 0 m 289 1047 l 301 1111 l 821 1111 l 808 1047 l 289 1047 m 554 1167 l 544 1229 q 620 1263 593 1242 q 653 1307 647 1285 q 644 1338 657 1326 q 615 1349 632 1349 q 544 1331 581 1349 q 483 1296 507 1313 l 496 1376 q 556 1403 522 1393 q 617 1413 590 1413 q 700 1381 669 1413 q 719 1296 731 1349 q 669 1219 711 1254 q 554 1167 628 1183 z "},"Ī":{"ha":833,"x_min":65,"x_max":821,"o":"m 290 0 l 526 1111 l 596 1111 l 360 0 l 290 0 m 65 0 l 79 64 l 599 64 l 585 0 l 65 0 m 289 1047 l 301 1111 l 821 1111 l 808 1047 l 289 1047 m 403 1263 l 417 1326 l 797 1326 l 783 1263 l 403 1263 z "},"Į":{"ha":833,"x_min":65,"x_max":821,"o":"m 290 0 l 526 1111 l 596 1111 l 360 0 l 290 0 m 65 0 l 79 64 l 599 64 l 585 0 l 65 0 m 289 1047 l 301 1111 l 821 1111 l 808 1047 l 289 1047 m 314 -272 q 208 -247 249 -272 q 168 -171 168 -222 q 199 -106 168 -137 q 279 -43 229 -74 q 385 14 329 -12 l 433 0 q 344 -52 389 -26 q 268 -103 299 -78 q 238 -157 238 -129 q 258 -194 238 -179 q 314 -208 279 -208 q 360 -199 336 -208 q 403 -175 385 -189 l 432 -233 q 378 -262 411 -251 q 314 -272 346 -272 z "},"Ĩ":{"ha":833,"x_min":65,"x_max":821,"o":"m 290 0 l 526 1111 l 596 1111 l 360 0 l 290 0 m 65 0 l 79 64 l 599 64 l 585 0 l 65 0 m 289 1047 l 301 1111 l 821 1111 l 808 1047 l 289 1047 m 686 1231 q 632 1247 654 1231 q 592 1284 610 1263 q 559 1322 575 1306 q 522 1338 543 1338 q 477 1317 490 1338 q 457 1267 464 1297 l 389 1267 q 439 1365 403 1329 q 524 1401 475 1401 q 575 1385 553 1401 q 615 1348 597 1369 q 651 1310 633 1326 q 688 1294 668 1294 q 733 1314 719 1294 q 751 1361 746 1333 l 819 1361 q 771 1266 807 1301 q 686 1231 735 1231 z "},"J":{"ha":833,"x_min":29,"x_max":844,"o":"m 278 -19 q 140 1 192 -19 q 63 72 89 22 q 29 204 38 121 l 96 217 q 122 113 103 150 q 178 60 140 75 q 279 44 217 44 q 449 85 381 44 q 563 223 517 126 q 643 486 608 319 l 763 1047 l 581 1047 l 593 1111 l 844 1111 l 711 481 q 644 241 681 338 q 557 88 607 144 q 439 6 507 31 q 278 -19 371 -19 z "},"Ĵ":{"ha":833,"x_min":29,"x_max":931,"o":"m 278 -19 q 140 1 192 -19 q 63 72 89 22 q 29 204 38 121 l 96 217 q 122 113 103 150 q 178 60 140 75 q 279 44 217 44 q 449 85 381 44 q 563 223 517 126 q 643 486 608 319 l 763 1047 l 581 1047 l 593 1111 l 844 1111 l 711 481 q 644 241 681 338 q 557 88 607 144 q 439 6 507 31 q 278 -19 371 -19 m 869 1204 l 768 1319 l 617 1207 l 571 1249 l 783 1408 l 931 1246 l 869 1204 z "},"K":{"ha":833,"x_min":33,"x_max":914,"o":"m 182 556 l 196 619 l 319 619 l 826 1111 l 914 1111 l 342 556 l 182 556 m 33 0 l 269 1111 l 339 1111 l 103 0 l 33 0 m 601 0 l 317 583 l 371 636 l 683 0 l 601 0 z "},"Ķ":{"ha":833,"x_min":33,"x_max":914,"o":"m 182 556 l 196 619 l 319 619 l 826 1111 l 914 1111 l 342 556 l 182 556 m 33 0 l 269 1111 l 339 1111 l 103 0 l 33 0 m 601 0 l 317 583 l 371 636 l 683 0 l 601 0 m 178 -342 l 283 -174 q 258 -156 265 -171 q 257 -114 251 -142 q 276 -74 264 -83 q 321 -64 289 -64 q 369 -77 357 -64 q 374 -125 381 -90 q 345 -188 368 -150 q 292 -267 322 -226 q 229 -344 261 -308 l 178 -342 z "},"L":{"ha":833,"x_min":76,"x_max":625,"o":"m 76 0 l 313 1111 l 382 1111 l 160 64 l 625 64 l 611 0 l 76 0 z "},"Ĺ":{"ha":833,"x_min":76,"x_max":625,"o":"m 76 0 l 313 1111 l 382 1111 l 160 64 l 625 64 l 611 0 l 76 0 m 379 1207 l 342 1256 l 561 1419 l 599 1371 l 379 1207 z "},"Ľ":{"ha":833,"x_min":76,"x_max":649,"o":"m 76 0 l 313 1111 l 382 1111 l 160 64 l 625 64 l 611 0 l 76 0 m 510 769 l 571 1111 l 649 1111 l 565 769 l 510 769 z "},"Ļ":{"ha":833,"x_min":76,"x_max":625,"o":"m 76 0 l 313 1111 l 382 1111 l 160 64 l 625 64 l 611 0 l 76 0 m 178 -342 l 283 -174 q 258 -156 265 -171 q 257 -114 251 -142 q 276 -74 264 -83 q 321 -64 289 -64 q 369 -77 357 -64 q 374 -125 381 -90 q 345 -188 368 -150 q 292 -267 322 -226 q 229 -344 261 -308 l 178 -342 z "},"Ł":{"ha":833,"x_min":101,"x_max":667,"o":"m 118 0 l 354 1111 l 424 1111 l 201 64 l 667 64 l 653 0 l 118 0 m 101 560 l 115 625 l 540 785 l 528 719 l 101 560 z "},"M":{"ha":833,"x_min":-8,"x_max":875,"o":"m -8 0 l 247 1111 l 318 1111 l 422 464 l 804 1111 l 875 1111 l 658 0 l 589 0 l 772 936 l 439 364 l 369 364 l 278 936 l 61 0 l -8 0 z "},"N":{"ha":833,"x_min":28,"x_max":858,"o":"m 28 0 l 264 1111 l 339 1111 l 622 0 l 553 0 l 789 1111 l 858 1111 l 622 0 l 549 0 l 265 1111 l 333 1111 l 97 0 l 28 0 z "},"Ń":{"ha":833,"x_min":28,"x_max":858,"o":"m 28 0 l 264 1111 l 339 1111 l 622 0 l 553 0 l 789 1111 l 858 1111 l 622 0 l 549 0 l 265 1111 l 333 1111 l 97 0 l 28 0 m 571 1211 l 533 1260 l 753 1424 l 790 1375 l 571 1211 z "},"Ň":{"ha":833,"x_min":28,"x_max":858,"o":"m 28 0 l 264 1111 l 339 1111 l 622 0 l 553 0 l 789 1111 l 858 1111 l 622 0 l 549 0 l 265 1111 l 333 1111 l 97 0 l 28 0 m 586 1219 l 438 1379 l 497 1421 l 601 1308 l 753 1424 l 800 1382 l 586 1219 z "},"Ņ":{"ha":833,"x_min":28,"x_max":858,"o":"m 28 0 l 264 1111 l 339 1111 l 622 0 l 553 0 l 789 1111 l 858 1111 l 622 0 l 549 0 l 265 1111 l 333 1111 l 97 0 l 28 0 m 178 -346 l 283 -178 q 258 -160 265 -175 q 257 -118 251 -146 q 276 -78 264 -87 q 321 -68 289 -68 q 369 -81 357 -68 q 374 -129 381 -94 q 345 -192 368 -154 q 292 -272 322 -231 q 229 -349 261 -312 l 178 -346 z "},"Ŋ":{"ha":833,"x_min":28,"x_max":858,"o":"m 383 -215 l 390 -151 q 465 -134 433 -151 q 517 -91 497 -117 q 544 -40 536 -65 q 549 0 553 -15 l 622 0 q 590 -103 611 -54 q 520 -184 568 -153 q 383 -215 472 -215 m 28 0 l 264 1111 l 339 1111 l 622 0 l 553 0 l 789 1111 l 858 1111 l 622 0 l 549 0 l 265 1111 l 333 1111 l 97 0 l 28 0 z "},"Ñ":{"ha":833,"x_min":28,"x_max":858,"o":"m 28 0 l 264 1111 l 339 1111 l 622 0 l 553 0 l 789 1111 l 858 1111 l 622 0 l 549 0 l 265 1111 l 333 1111 l 97 0 l 28 0 m 686 1231 q 632 1247 654 1231 q 592 1284 610 1263 q 559 1322 575 1306 q 522 1338 543 1338 q 477 1317 490 1338 q 457 1267 464 1297 l 389 1267 q 439 1365 403 1329 q 524 1401 475 1401 q 575 1385 553 1401 q 615 1348 597 1369 q 651 1310 633 1326 q 688 1294 668 1294 q 733 1314 719 1294 q 751 1361 746 1333 l 819 1361 q 771 1266 807 1301 q 686 1231 735 1231 z "},"O":{"ha":833,"x_min":67,"x_max":821,"o":"m 328 -19 q 141 29 203 -19 q 73 192 79 78 q 108 503 67 306 l 132 614 q 201 862 164 763 q 286 1020 238 961 q 401 1105 335 1079 q 560 1131 468 1131 q 747 1082 685 1131 q 815 919 808 1033 q 778 608 821 806 l 754 497 q 686 250 724 350 q 600 91 649 150 q 485 6 551 32 q 328 -19 418 -19 m 329 44 q 493 87 428 44 q 604 230 558 129 q 686 503 650 331 l 710 614 q 746 886 747 788 q 699 1026 744 985 q 558 1067 654 1067 q 393 1024 460 1067 q 281 882 326 982 q 200 608 236 782 l 176 497 q 142 226 140 325 q 190 85 144 126 q 329 44 235 44 z "},"Ó":{"ha":833,"x_min":67,"x_max":821,"o":"m 328 -19 q 141 29 203 -19 q 73 192 79 78 q 108 503 67 306 l 132 614 q 201 862 164 763 q 286 1020 238 961 q 401 1105 335 1079 q 560 1131 468 1131 q 747 1082 685 1131 q 815 919 808 1033 q 778 608 821 806 l 754 497 q 686 250 724 350 q 600 91 649 150 q 485 6 551 32 q 328 -19 418 -19 m 329 44 q 493 87 428 44 q 604 230 558 129 q 686 503 650 331 l 710 614 q 746 886 747 788 q 699 1026 744 985 q 558 1067 654 1067 q 393 1024 460 1067 q 281 882 326 982 q 200 608 236 782 l 176 497 q 142 226 140 325 q 190 85 144 126 q 329 44 235 44 m 571 1211 l 533 1260 l 753 1424 l 790 1375 l 571 1211 z "},"Ǒ":{"ha":833,"x_min":67,"x_max":821,"o":"m 328 -19 q 141 29 203 -19 q 73 192 79 78 q 108 503 67 306 l 132 614 q 201 862 164 763 q 286 1020 238 961 q 401 1105 335 1079 q 560 1131 468 1131 q 747 1082 685 1131 q 815 919 808 1033 q 778 608 821 806 l 754 497 q 686 250 724 350 q 600 91 649 150 q 485 6 551 32 q 328 -19 418 -19 m 329 44 q 493 87 428 44 q 604 230 558 129 q 686 503 650 331 l 710 614 q 746 886 747 788 q 699 1026 744 985 q 558 1067 654 1067 q 393 1024 460 1067 q 281 882 326 982 q 200 608 236 782 l 176 497 q 142 226 140 325 q 190 85 144 126 q 329 44 235 44 m 586 1219 l 438 1379 l 497 1421 l 601 1308 l 753 1424 l 800 1382 l 586 1219 z "},"Ô":{"ha":833,"x_min":67,"x_max":821,"o":"m 328 -19 q 141 29 203 -19 q 73 192 79 78 q 108 503 67 306 l 132 614 q 201 862 164 763 q 286 1020 238 961 q 401 1105 335 1079 q 560 1131 468 1131 q 747 1082 685 1131 q 815 919 808 1033 q 778 608 821 806 l 754 497 q 686 250 724 350 q 600 91 649 150 q 485 6 551 32 q 328 -19 418 -19 m 329 44 q 493 87 428 44 q 604 230 558 129 q 686 503 650 331 l 710 614 q 746 886 747 788 q 699 1026 744 985 q 558 1067 654 1067 q 393 1024 460 1067 q 281 882 326 982 q 200 608 236 782 l 176 497 q 142 226 140 325 q 190 85 144 126 q 329 44 235 44 m 710 1208 l 608 1324 l 457 1211 l 411 1253 l 624 1413 l 771 1250 l 710 1208 z "},"Ố":{"ha":833,"x_min":67,"x_max":864,"o":"m 328 -19 q 141 29 203 -19 q 73 192 79 78 q 108 503 67 306 l 132 614 q 201 862 164 763 q 286 1020 238 961 q 401 1105 335 1079 q 560 1131 468 1131 q 747 1082 685 1131 q 815 919 808 1033 q 778 608 821 806 l 754 497 q 686 250 724 350 q 600 91 649 150 q 485 6 551 32 q 328 -19 418 -19 m 329 44 q 493 87 428 44 q 604 230 558 129 q 686 503 650 331 l 710 614 q 746 886 747 788 q 699 1026 744 985 q 558 1067 654 1067 q 393 1024 460 1067 q 281 882 326 982 q 200 608 236 782 l 176 497 q 142 226 140 325 q 190 85 144 126 q 329 44 235 44 m 724 1208 l 622 1324 l 471 1211 l 425 1253 l 638 1413 l 785 1250 l 724 1208 m 644 1496 l 607 1544 l 826 1708 l 864 1660 l 644 1496 z "},"Ộ":{"ha":833,"x_min":67,"x_max":821,"o":"m 328 -19 q 141 29 203 -19 q 73 192 79 78 q 108 503 67 306 l 132 614 q 201 862 164 763 q 286 1020 238 961 q 401 1105 335 1079 q 560 1131 468 1131 q 747 1082 685 1131 q 815 919 808 1033 q 778 608 821 806 l 754 497 q 686 250 724 350 q 600 91 649 150 q 485 6 551 32 q 328 -19 418 -19 m 329 44 q 493 87 428 44 q 604 230 558 129 q 686 503 650 331 l 710 614 q 746 886 747 788 q 699 1026 744 985 q 558 1067 654 1067 q 393 1024 460 1067 q 281 882 326 982 q 200 608 236 782 l 176 497 q 142 226 140 325 q 190 85 144 126 q 329 44 235 44 m 267 -308 q 205 -292 219 -308 q 200 -232 190 -275 q 228 -178 210 -193 q 286 -164 247 -164 q 349 -180 335 -164 q 353 -240 363 -196 q 326 -294 344 -279 q 267 -308 307 -308 m 710 1208 l 608 1324 l 457 1211 l 411 1253 l 624 1413 l 771 1250 l 710 1208 z "},"Ồ":{"ha":833,"x_min":67,"x_max":821,"o":"m 328 -19 q 141 29 203 -19 q 73 192 79 78 q 108 503 67 306 l 132 614 q 201 862 164 763 q 286 1020 238 961 q 401 1105 335 1079 q 560 1131 468 1131 q 747 1082 685 1131 q 815 919 808 1033 q 778 608 821 806 l 754 497 q 686 250 724 350 q 600 91 649 150 q 485 6 551 32 q 328 -19 418 -19 m 329 44 q 493 87 428 44 q 604 230 558 129 q 686 503 650 331 l 710 614 q 746 886 747 788 q 699 1026 744 985 q 558 1067 654 1067 q 393 1024 460 1067 q 281 882 326 982 q 200 608 236 782 l 176 497 q 142 226 140 325 q 190 85 144 126 q 329 44 235 44 m 724 1208 l 622 1324 l 471 1211 l 425 1253 l 638 1413 l 785 1250 l 724 1208 m 672 1496 l 517 1660 l 571 1708 l 726 1544 l 672 1496 z "},"Ổ":{"ha":833,"x_min":67,"x_max":821,"o":"m 328 -19 q 141 29 203 -19 q 73 192 79 78 q 108 503 67 306 l 132 614 q 201 862 164 763 q 286 1020 238 961 q 401 1105 335 1079 q 560 1131 468 1131 q 747 1082 685 1131 q 815 919 808 1033 q 778 608 821 806 l 754 497 q 686 250 724 350 q 600 91 649 150 q 485 6 551 32 q 328 -19 418 -19 m 329 44 q 493 87 428 44 q 604 230 558 129 q 686 503 650 331 l 710 614 q 746 886 747 788 q 699 1026 744 985 q 558 1067 654 1067 q 393 1024 460 1067 q 281 882 326 982 q 200 608 236 782 l 176 497 q 142 226 140 325 q 190 85 144 126 q 329 44 235 44 m 724 1208 l 622 1324 l 471 1211 l 425 1253 l 638 1413 l 785 1250 l 724 1208 m 628 1451 l 618 1514 q 694 1548 667 1526 q 726 1592 721 1569 q 718 1622 731 1611 q 689 1633 706 1633 q 617 1615 654 1633 q 557 1581 581 1597 l 569 1661 q 630 1688 596 1678 q 690 1697 664 1697 q 774 1665 743 1697 q 793 1581 804 1633 q 743 1503 785 1539 q 628 1451 701 1468 z "},"Ỗ":{"ha":833,"x_min":67,"x_max":893,"o":"m 328 -19 q 141 29 203 -19 q 73 192 79 78 q 108 503 67 306 l 132 614 q 201 862 164 763 q 286 1020 238 961 q 401 1105 335 1079 q 560 1131 468 1131 q 747 1082 685 1131 q 815 919 808 1033 q 778 608 821 806 l 754 497 q 686 250 724 350 q 600 91 649 150 q 485 6 551 32 q 328 -19 418 -19 m 329 44 q 493 87 428 44 q 604 230 558 129 q 686 503 650 331 l 710 614 q 746 886 747 788 q 699 1026 744 985 q 558 1067 654 1067 q 393 1024 460 1067 q 281 882 326 982 q 200 608 236 782 l 176 497 q 142 226 140 325 q 190 85 144 126 q 329 44 235 44 m 724 1208 l 622 1324 l 471 1211 l 425 1253 l 638 1413 l 785 1250 l 724 1208 m 760 1515 q 706 1531 728 1515 q 666 1569 683 1547 q 633 1606 649 1590 q 596 1622 617 1622 q 551 1602 564 1622 q 531 1551 538 1582 l 463 1551 q 513 1650 476 1614 q 597 1686 549 1686 q 649 1670 626 1686 q 689 1633 671 1654 q 724 1595 707 1611 q 761 1579 742 1579 q 806 1599 793 1579 q 825 1646 819 1618 l 893 1646 q 844 1551 881 1586 q 760 1515 808 1515 z "},"Ö":{"ha":833,"x_min":67,"x_max":846,"o":"m 328 -19 q 141 29 203 -19 q 73 192 79 78 q 108 503 67 306 l 132 614 q 201 862 164 763 q 286 1020 238 961 q 401 1105 335 1079 q 560 1131 468 1131 q 747 1082 685 1131 q 815 919 808 1033 q 778 608 821 806 l 754 497 q 686 250 724 350 q 600 91 649 150 q 485 6 551 32 q 328 -19 418 -19 m 329 44 q 493 87 428 44 q 604 230 558 129 q 686 503 650 331 l 710 614 q 746 886 747 788 q 699 1026 744 985 q 558 1067 654 1067 q 393 1024 460 1067 q 281 882 326 982 q 200 608 236 782 l 176 497 q 142 226 140 325 q 190 85 144 126 q 329 44 235 44 m 751 1274 q 691 1291 706 1274 q 686 1351 676 1308 q 710 1402 693 1389 q 769 1415 728 1415 q 831 1399 815 1415 q 836 1340 846 1382 q 810 1288 828 1301 q 751 1274 793 1274 m 451 1274 q 391 1291 406 1274 q 386 1351 376 1308 q 410 1402 393 1389 q 469 1415 428 1415 q 531 1399 515 1415 q 536 1340 546 1382 q 510 1288 528 1301 q 451 1274 493 1274 z "},"Ọ":{"ha":833,"x_min":67,"x_max":821,"o":"m 328 -19 q 141 29 203 -19 q 73 192 79 78 q 108 503 67 306 l 132 614 q 201 862 164 763 q 286 1020 238 961 q 401 1105 335 1079 q 560 1131 468 1131 q 747 1082 685 1131 q 815 919 808 1033 q 778 608 821 806 l 754 497 q 686 250 724 350 q 600 91 649 150 q 485 6 551 32 q 328 -19 418 -19 m 329 44 q 493 87 428 44 q 604 230 558 129 q 686 503 650 331 l 710 614 q 746 886 747 788 q 699 1026 744 985 q 558 1067 654 1067 q 393 1024 460 1067 q 281 882 326 982 q 200 608 236 782 l 176 497 q 142 226 140 325 q 190 85 144 126 q 329 44 235 44 m 267 -308 q 205 -292 219 -308 q 200 -232 190 -275 q 228 -178 210 -193 q 286 -164 247 -164 q 349 -180 335 -164 q 353 -240 363 -196 q 326 -294 344 -279 q 267 -308 307 -308 z "},"Ò":{"ha":833,"x_min":67,"x_max":821,"o":"m 328 -19 q 141 29 203 -19 q 73 192 79 78 q 108 503 67 306 l 132 614 q 201 862 164 763 q 286 1020 238 961 q 401 1105 335 1079 q 560 1131 468 1131 q 747 1082 685 1131 q 815 919 808 1033 q 778 608 821 806 l 754 497 q 686 250 724 350 q 600 91 649 150 q 485 6 551 32 q 328 -19 418 -19 m 329 44 q 493 87 428 44 q 604 230 558 129 q 686 503 650 331 l 710 614 q 746 886 747 788 q 699 1026 744 985 q 558 1067 654 1067 q 393 1024 460 1067 q 281 882 326 982 q 200 608 236 782 l 176 497 q 142 226 140 325 q 190 85 144 126 q 329 44 235 44 m 599 1211 l 443 1375 l 497 1424 l 653 1260 l 599 1211 z "},"Ỏ":{"ha":833,"x_min":67,"x_max":821,"o":"m 328 -19 q 141 29 203 -19 q 73 192 79 78 q 108 503 67 306 l 132 614 q 201 862 164 763 q 286 1020 238 961 q 401 1105 335 1079 q 560 1131 468 1131 q 747 1082 685 1131 q 815 919 808 1033 q 778 608 821 806 l 754 497 q 686 250 724 350 q 600 91 649 150 q 485 6 551 32 q 328 -19 418 -19 m 329 44 q 493 87 428 44 q 604 230 558 129 q 686 503 650 331 l 710 614 q 746 886 747 788 q 699 1026 744 985 q 558 1067 654 1067 q 393 1024 460 1067 q 281 882 326 982 q 200 608 236 782 l 176 497 q 142 226 140 325 q 190 85 144 126 q 329 44 235 44 m 554 1167 l 544 1229 q 620 1263 593 1242 q 653 1307 647 1285 q 644 1338 657 1326 q 615 1349 632 1349 q 544 1331 581 1349 q 483 1296 507 1313 l 496 1376 q 556 1403 522 1393 q 617 1413 590 1413 q 700 1381 669 1413 q 719 1296 731 1349 q 669 1219 711 1254 q 554 1167 628 1183 z "},"Ơ":{"ha":833,"x_min":67,"x_max":1089,"o":"m 328 -19 q 141 29 203 -19 q 73 192 79 78 q 108 503 67 306 l 132 614 q 201 862 164 763 q 286 1020 238 961 q 401 1105 335 1079 q 560 1131 468 1131 q 747 1082 685 1131 q 815 919 808 1033 q 778 608 821 806 l 754 497 q 686 250 724 350 q 600 91 649 150 q 485 6 551 32 q 328 -19 418 -19 m 329 44 q 493 87 428 44 q 604 230 558 129 q 686 503 650 331 l 710 614 q 746 886 747 788 q 699 1026 744 985 q 558 1067 654 1067 q 393 1024 460 1067 q 281 882 326 982 q 200 608 236 782 l 176 497 q 142 226 140 325 q 190 85 144 126 q 329 44 235 44 m 872 908 q 825 919 849 908 q 786 949 801 931 l 796 1008 q 813 989 801 997 q 840 976 824 981 q 874 972 856 972 q 942 1003 911 972 q 982 1081 972 1033 l 1019 1258 l 1089 1258 l 1050 1075 q 986 953 1035 999 q 872 908 938 908 z "},"Ớ":{"ha":833,"x_min":67,"x_max":1089,"o":"m 328 -19 q 141 29 203 -19 q 73 192 79 78 q 108 503 67 306 l 132 614 q 201 862 164 763 q 286 1020 238 961 q 401 1105 335 1079 q 560 1131 468 1131 q 747 1082 685 1131 q 815 919 808 1033 q 778 608 821 806 l 754 497 q 686 250 724 350 q 600 91 649 150 q 485 6 551 32 q 328 -19 418 -19 m 329 44 q 493 87 428 44 q 604 230 558 129 q 686 503 650 331 l 710 614 q 746 886 747 788 q 699 1026 744 985 q 558 1067 654 1067 q 393 1024 460 1067 q 281 882 326 982 q 200 608 236 782 l 176 497 q 142 226 140 325 q 190 85 144 126 q 329 44 235 44 m 872 908 q 825 919 849 908 q 786 949 801 931 l 796 1008 q 813 989 801 997 q 840 976 824 981 q 874 972 856 972 q 942 1003 911 972 q 982 1081 972 1033 l 1019 1258 l 1089 1258 l 1050 1075 q 986 953 1035 999 q 872 908 938 908 m 571 1211 l 533 1260 l 753 1424 l 790 1375 l 571 1211 z "},"Ợ":{"ha":833,"x_min":67,"x_max":1089,"o":"m 328 -19 q 141 29 203 -19 q 73 192 79 78 q 108 503 67 306 l 132 614 q 201 862 164 763 q 286 1020 238 961 q 401 1105 335 1079 q 560 1131 468 1131 q 747 1082 685 1131 q 815 919 808 1033 q 778 608 821 806 l 754 497 q 686 250 724 350 q 600 91 649 150 q 485 6 551 32 q 328 -19 418 -19 m 329 44 q 493 87 428 44 q 604 230 558 129 q 686 503 650 331 l 710 614 q 746 886 747 788 q 699 1026 744 985 q 558 1067 654 1067 q 393 1024 460 1067 q 281 882 326 982 q 200 608 236 782 l 176 497 q 142 226 140 325 q 190 85 144 126 q 329 44 235 44 m 872 908 q 825 919 849 908 q 786 949 801 931 l 796 1008 q 813 989 801 997 q 840 976 824 981 q 874 972 856 972 q 942 1003 911 972 q 982 1081 972 1033 l 1019 1258 l 1089 1258 l 1050 1075 q 986 953 1035 999 q 872 908 938 908 m 267 -308 q 205 -292 219 -308 q 200 -232 190 -275 q 228 -178 210 -193 q 286 -164 247 -164 q 349 -180 335 -164 q 353 -240 363 -196 q 326 -294 344 -279 q 267 -308 307 -308 z "},"Ờ":{"ha":833,"x_min":67,"x_max":1089,"o":"m 328 -19 q 141 29 203 -19 q 73 192 79 78 q 108 503 67 306 l 132 614 q 201 862 164 763 q 286 1020 238 961 q 401 1105 335 1079 q 560 1131 468 1131 q 747 1082 685 1131 q 815 919 808 1033 q 778 608 821 806 l 754 497 q 686 250 724 350 q 600 91 649 150 q 485 6 551 32 q 328 -19 418 -19 m 329 44 q 493 87 428 44 q 604 230 558 129 q 686 503 650 331 l 710 614 q 746 886 747 788 q 699 1026 744 985 q 558 1067 654 1067 q 393 1024 460 1067 q 281 882 326 982 q 200 608 236 782 l 176 497 q 142 226 140 325 q 190 85 144 126 q 329 44 235 44 m 872 908 q 825 919 849 908 q 786 949 801 931 l 796 1008 q 813 989 801 997 q 840 976 824 981 q 874 972 856 972 q 942 1003 911 972 q 982 1081 972 1033 l 1019 1258 l 1089 1258 l 1050 1075 q 986 953 1035 999 q 872 908 938 908 m 599 1211 l 443 1375 l 497 1424 l 653 1260 l 599 1211 z "},"Ở":{"ha":833,"x_min":67,"x_max":1089,"o":"m 328 -19 q 141 29 203 -19 q 73 192 79 78 q 108 503 67 306 l 132 614 q 201 862 164 763 q 286 1020 238 961 q 401 1105 335 1079 q 560 1131 468 1131 q 747 1082 685 1131 q 815 919 808 1033 q 778 608 821 806 l 754 497 q 686 250 724 350 q 600 91 649 150 q 485 6 551 32 q 328 -19 418 -19 m 329 44 q 493 87 428 44 q 604 230 558 129 q 686 503 650 331 l 710 614 q 746 886 747 788 q 699 1026 744 985 q 558 1067 654 1067 q 393 1024 460 1067 q 281 882 326 982 q 200 608 236 782 l 176 497 q 142 226 140 325 q 190 85 144 126 q 329 44 235 44 m 872 908 q 825 919 849 908 q 786 949 801 931 l 796 1008 q 813 989 801 997 q 840 976 824 981 q 874 972 856 972 q 942 1003 911 972 q 982 1081 972 1033 l 1019 1258 l 1089 1258 l 1050 1075 q 986 953 1035 999 q 872 908 938 908 m 554 1167 l 544 1229 q 620 1263 593 1242 q 653 1307 647 1285 q 644 1338 657 1326 q 615 1349 632 1349 q 544 1331 581 1349 q 483 1296 507 1313 l 496 1376 q 556 1403 522 1393 q 617 1413 590 1413 q 700 1381 669 1413 q 719 1296 731 1349 q 669 1219 711 1254 q 554 1167 628 1183 z "},"Ỡ":{"ha":833,"x_min":67,"x_max":1089,"o":"m 328 -19 q 141 29 203 -19 q 73 192 79 78 q 108 503 67 306 l 132 614 q 201 862 164 763 q 286 1020 238 961 q 401 1105 335 1079 q 560 1131 468 1131 q 747 1082 685 1131 q 815 919 808 1033 q 778 608 821 806 l 754 497 q 686 250 724 350 q 600 91 649 150 q 485 6 551 32 q 328 -19 418 -19 m 329 44 q 493 87 428 44 q 604 230 558 129 q 686 503 650 331 l 710 614 q 746 886 747 788 q 699 1026 744 985 q 558 1067 654 1067 q 393 1024 460 1067 q 281 882 326 982 q 200 608 236 782 l 176 497 q 142 226 140 325 q 190 85 144 126 q 329 44 235 44 m 872 908 q 825 919 849 908 q 786 949 801 931 l 796 1008 q 813 989 801 997 q 840 976 824 981 q 874 972 856 972 q 942 1003 911 972 q 982 1081 972 1033 l 1019 1258 l 1089 1258 l 1050 1075 q 986 953 1035 999 q 872 908 938 908 m 686 1231 q 632 1247 654 1231 q 592 1284 610 1263 q 559 1322 575 1306 q 522 1338 543 1338 q 477 1317 490 1338 q 457 1267 464 1297 l 389 1267 q 439 1365 403 1329 q 524 1401 475 1401 q 575 1385 553 1401 q 615 1348 597 1369 q 651 1310 633 1326 q 688 1294 668 1294 q 733 1314 719 1294 q 751 1361 746 1333 l 819 1361 q 771 1266 807 1301 q 686 1231 735 1231 z "},"Ő":{"ha":833,"x_min":67,"x_max":853,"o":"m 328 -19 q 141 29 203 -19 q 73 192 79 78 q 108 503 67 306 l 132 614 q 201 862 164 763 q 286 1020 238 961 q 401 1105 335 1079 q 560 1131 468 1131 q 747 1082 685 1131 q 815 919 808 1033 q 778 608 821 806 l 754 497 q 686 250 724 350 q 600 91 649 150 q 485 6 551 32 q 328 -19 418 -19 m 329 44 q 493 87 428 44 q 604 230 558 129 q 686 503 650 331 l 710 614 q 746 886 747 788 q 699 1026 744 985 q 558 1067 654 1067 q 393 1024 460 1067 q 281 882 326 982 q 200 608 236 782 l 176 497 q 142 226 140 325 q 190 85 144 126 q 329 44 235 44 m 633 1211 l 596 1260 l 815 1424 l 853 1375 l 633 1211 m 394 1211 l 357 1260 l 576 1424 l 614 1375 l 394 1211 z "},"Ō":{"ha":833,"x_min":67,"x_max":821,"o":"m 328 -19 q 141 29 203 -19 q 73 192 79 78 q 108 503 67 306 l 132 614 q 201 862 164 763 q 286 1020 238 961 q 401 1105 335 1079 q 560 1131 468 1131 q 747 1082 685 1131 q 815 919 808 1033 q 778 608 821 806 l 754 497 q 686 250 724 350 q 600 91 649 150 q 485 6 551 32 q 328 -19 418 -19 m 329 44 q 493 87 428 44 q 604 230 558 129 q 686 503 650 331 l 710 614 q 746 886 747 788 q 699 1026 744 985 q 558 1067 654 1067 q 393 1024 460 1067 q 281 882 326 982 q 200 608 236 782 l 176 497 q 142 226 140 325 q 190 85 144 126 q 329 44 235 44 m 403 1263 l 417 1326 l 797 1326 l 783 1263 l 403 1263 z "},"Ø":{"ha":833,"x_min":-17,"x_max":904,"o":"m -17 -69 l 825 1181 l 904 1181 l 61 -69 l -17 -69 m 328 -19 q 141 29 203 -19 q 73 192 79 78 q 108 503 67 306 l 132 614 q 201 862 164 763 q 286 1020 238 961 q 401 1105 335 1079 q 560 1131 468 1131 q 747 1082 685 1131 q 815 919 808 1033 q 778 608 821 806 l 754 497 q 686 250 724 350 q 600 91 649 150 q 485 6 551 32 q 328 -19 418 -19 m 329 44 q 493 87 428 44 q 604 230 558 129 q 686 503 650 331 l 710 614 q 746 886 747 788 q 699 1026 744 985 q 558 1067 654 1067 q 394 1024 461 1067 q 283 882 328 982 q 200 608 238 782 l 176 497 q 142 226 140 325 q 189 85 143 126 q 329 44 235 44 z "},"Õ":{"ha":833,"x_min":67,"x_max":821,"o":"m 328 -19 q 141 29 203 -19 q 73 192 79 78 q 108 503 67 306 l 132 614 q 201 862 164 763 q 286 1020 238 961 q 401 1105 335 1079 q 560 1131 468 1131 q 747 1082 685 1131 q 815 919 808 1033 q 778 608 821 806 l 754 497 q 686 250 724 350 q 600 91 649 150 q 485 6 551 32 q 328 -19 418 -19 m 329 44 q 493 87 428 44 q 604 230 558 129 q 686 503 650 331 l 710 614 q 746 886 747 788 q 699 1026 744 985 q 558 1067 654 1067 q 393 1024 460 1067 q 281 882 326 982 q 200 608 236 782 l 176 497 q 142 226 140 325 q 190 85 144 126 q 329 44 235 44 m 686 1231 q 632 1247 654 1231 q 592 1284 610 1263 q 559 1322 575 1306 q 522 1338 543 1338 q 477 1317 490 1338 q 457 1267 464 1297 l 389 1267 q 439 1365 403 1329 q 524 1401 475 1401 q 575 1385 553 1401 q 615 1348 597 1369 q 651 1310 633 1326 q 688 1294 668 1294 q 733 1314 719 1294 q 751 1361 746 1333 l 819 1361 q 771 1266 807 1301 q 686 1231 735 1231 z "},"Œ":{"ha":833,"x_min":-22,"x_max":975,"o":"m 168 -19 q 24 34 69 -19 q -19 214 -22 88 q 31 560 -15 340 q 101 833 65 722 q 178 1008 136 943 q 275 1102 221 1074 q 400 1131 329 1131 q 544 1076 499 1131 q 586 894 589 1022 q 536 544 583 767 q 466 274 501 383 q 388 101 431 165 q 292 8 346 36 q 168 -19 239 -19 m 169 44 q 293 92 242 44 q 386 252 344 139 q 469 560 428 365 q 518 863 511 753 q 497 1020 525 974 q 399 1067 468 1067 q 276 1019 328 1067 q 181 858 224 971 q 97 549 139 744 q 49 247 57 357 q 72 90 42 136 q 169 44 101 44 m 350 0 l 586 1111 l 975 1111 l 963 1047 l 603 1047 l 650 1089 l 544 578 l 514 619 l 744 619 l 731 556 l 499 556 l 546 597 l 425 22 l 396 64 l 753 64 l 739 0 l 350 0 z "},"P":{"ha":833,"x_min":56,"x_max":846,"o":"m 56 0 l 292 1111 l 586 1111 q 759 1082 700 1111 q 832 984 818 1053 q 821 796 846 915 q 756 614 797 681 q 645 519 715 547 q 461 492 575 492 l 200 492 l 213 556 l 468 556 q 611 578 556 556 q 701 657 667 601 q 754 807 735 713 q 765 952 774 900 q 711 1026 756 1004 q 579 1047 667 1047 l 304 1047 l 356 1090 l 125 0 l 56 0 z "},"Þ":{"ha":833,"x_min":56,"x_max":765,"o":"m 154 272 l 168 336 l 394 336 q 537 357 482 336 q 624 427 592 378 q 674 561 656 476 q 681 690 692 643 q 625 756 669 736 q 493 775 581 775 l 261 775 l 275 839 l 501 839 q 675 812 615 839 q 750 722 735 785 q 742 550 765 660 q 679 383 719 444 q 569 297 639 322 q 386 272 500 272 l 154 272 m 56 0 l 292 1111 l 361 1111 l 125 0 l 56 0 z "},"Q":{"ha":833,"x_min":26,"x_max":1154,"o":"m 328 -19 q 141 29 203 -19 q 73 192 79 78 q 108 503 67 306 l 132 614 q 201 862 164 763 q 286 1020 238 961 q 401 1105 335 1079 q 560 1131 468 1131 q 747 1082 685 1131 q 815 919 808 1033 q 778 608 821 806 l 754 497 q 686 250 724 350 q 600 91 649 150 q 485 6 551 32 q 328 -19 418 -19 m 653 -254 q 544 -235 590 -254 q 459 -185 497 -215 q 383 -119 421 -154 q 302 -53 346 -85 q 200 -3 258 -22 q 145 1 169 8 q 110 -31 121 -7 q 110 -67 100 -53 q 146 -82 119 -82 q 188 -69 168 -82 q 233 -36 207 -57 q 301 8 260 -15 q 410 51 343 31 l 424 -11 q 329 -54 367 -31 q 263 -99 292 -78 q 208 -133 235 -119 q 146 -146 182 -146 q 53 -108 79 -146 q 49 -11 26 -71 q 90 48 64 28 q 153 71 117 68 q 232 58 190 74 q 336 4 292 36 q 417 -62 381 -28 q 488 -125 453 -96 q 562 -172 522 -154 q 653 -190 601 -190 q 763 -176 718 -190 q 846 -141 808 -162 q 924 -97 883 -119 q 1019 -58 964 -75 q 1154 -36 1074 -42 l 1142 -101 q 1024 -124 1072 -107 q 938 -162 976 -140 q 861 -206 900 -185 q 773 -240 822 -226 q 653 -254 724 -254 m 329 44 q 493 87 428 44 q 604 230 558 129 q 686 503 650 331 l 710 614 q 746 886 747 788 q 699 1026 744 985 q 558 1067 654 1067 q 393 1024 460 1067 q 281 882 326 982 q 200 608 236 782 l 176 497 q 142 226 140 325 q 190 85 144 126 q 329 44 235 44 z "},"R":{"ha":833,"x_min":44,"x_max":835,"o":"m 44 0 l 281 1111 l 575 1111 q 748 1082 689 1111 q 821 984 807 1053 q 810 796 835 915 q 745 614 786 681 q 634 519 704 547 q 450 492 564 492 l 175 492 l 188 556 l 457 556 q 600 578 544 556 q 690 657 656 601 q 743 807 724 713 q 753 952 763 900 q 700 1026 744 1004 q 568 1047 656 1047 l 338 1047 l 114 0 l 44 0 m 588 0 l 357 525 l 438 525 l 667 0 l 588 0 z "},"Ŕ":{"ha":833,"x_min":44,"x_max":835,"o":"m 44 0 l 281 1111 l 575 1111 q 748 1082 689 1111 q 821 984 807 1053 q 810 796 835 915 q 745 614 786 681 q 634 519 704 547 q 450 492 564 492 l 175 492 l 188 556 l 457 556 q 600 578 544 556 q 690 657 656 601 q 743 807 724 713 q 753 952 763 900 q 700 1026 744 1004 q 568 1047 656 1047 l 338 1047 l 114 0 l 44 0 m 588 0 l 357 525 l 438 525 l 667 0 l 588 0 m 569 1207 l 532 1256 l 751 1419 l 789 1371 l 569 1207 z "},"Ř":{"ha":833,"x_min":44,"x_max":835,"o":"m 44 0 l 281 1111 l 575 1111 q 748 1082 689 1111 q 821 984 807 1053 q 810 796 835 915 q 745 614 786 681 q 634 519 704 547 q 450 492 564 492 l 175 492 l 188 556 l 457 556 q 600 578 544 556 q 690 657 656 601 q 743 807 724 713 q 753 952 763 900 q 700 1026 744 1004 q 568 1047 656 1047 l 338 1047 l 114 0 l 44 0 m 588 0 l 357 525 l 438 525 l 667 0 l 588 0 m 585 1215 l 436 1375 l 496 1417 l 600 1304 l 751 1419 l 799 1378 l 585 1215 z "},"Ŗ":{"ha":833,"x_min":44,"x_max":835,"o":"m 44 0 l 281 1111 l 575 1111 q 748 1082 689 1111 q 821 984 807 1053 q 810 796 835 915 q 745 614 786 681 q 634 519 704 547 q 450 492 564 492 l 175 492 l 188 556 l 457 556 q 600 578 544 556 q 690 657 656 601 q 743 807 724 713 q 753 952 763 900 q 700 1026 744 1004 q 568 1047 656 1047 l 338 1047 l 114 0 l 44 0 m 588 0 l 357 525 l 438 525 l 667 0 l 588 0 m 178 -342 l 283 -174 q 258 -156 265 -171 q 257 -114 251 -142 q 276 -74 264 -83 q 321 -64 289 -64 q 369 -77 357 -64 q 374 -125 381 -90 q 345 -188 368 -150 q 292 -267 322 -226 q 229 -344 261 -308 l 178 -342 z "},"S":{"ha":833,"x_min":36,"x_max":832,"o":"m 328 -19 q 179 -5 236 -19 q 89 43 122 10 q 36 135 56 76 l 96 178 q 134 97 108 126 q 206 56 160 68 q 329 44 253 44 q 481 69 422 44 q 576 150 540 93 q 632 304 611 207 q 634 414 646 369 q 578 491 622 458 q 449 554 533 524 q 288 631 344 592 q 215 722 231 669 q 214 850 199 775 q 276 1019 238 958 q 382 1106 314 1081 q 560 1131 450 1131 q 696 1118 643 1131 q 781 1076 749 1106 q 832 997 813 1047 l 776 951 q 738 1022 763 997 q 670 1057 713 1047 q 558 1067 628 1067 q 418 1046 472 1067 q 332 975 364 1025 q 282 839 300 925 q 281 743 269 782 q 333 676 292 704 q 451 621 375 647 q 624 542 564 585 q 701 440 683 499 q 699 293 718 381 q 631 106 674 174 q 517 9 589 38 q 328 -19 444 -19 z "},"Ś":{"ha":833,"x_min":36,"x_max":832,"o":"m 328 -19 q 179 -5 236 -19 q 89 43 122 10 q 36 135 56 76 l 96 178 q 134 97 108 126 q 206 56 160 68 q 329 44 253 44 q 481 69 422 44 q 576 150 540 93 q 632 304 611 207 q 634 414 646 369 q 578 491 622 458 q 449 554 533 524 q 288 631 344 592 q 215 722 231 669 q 214 850 199 775 q 276 1019 238 958 q 382 1106 314 1081 q 560 1131 450 1131 q 696 1118 643 1131 q 781 1076 749 1106 q 832 997 813 1047 l 776 951 q 738 1022 763 997 q 670 1057 713 1047 q 558 1067 628 1067 q 418 1046 472 1067 q 332 975 364 1025 q 282 839 300 925 q 281 743 269 782 q 333 676 292 704 q 451 621 375 647 q 624 542 564 585 q 701 440 683 499 q 699 293 718 381 q 631 106 674 174 q 517 9 589 38 q 328 -19 444 -19 m 571 1211 l 533 1260 l 753 1424 l 790 1375 l 571 1211 z "},"Š":{"ha":833,"x_min":36,"x_max":832,"o":"m 328 -19 q 179 -5 236 -19 q 89 43 122 10 q 36 135 56 76 l 96 178 q 134 97 108 126 q 206 56 160 68 q 329 44 253 44 q 481 69 422 44 q 576 150 540 93 q 632 304 611 207 q 634 414 646 369 q 578 491 622 458 q 449 554 533 524 q 288 631 344 592 q 215 722 231 669 q 214 850 199 775 q 276 1019 238 958 q 382 1106 314 1081 q 560 1131 450 1131 q 696 1118 643 1131 q 781 1076 749 1106 q 832 997 813 1047 l 776 951 q 738 1022 763 997 q 670 1057 713 1047 q 558 1067 628 1067 q 418 1046 472 1067 q 332 975 364 1025 q 282 839 300 925 q 281 743 269 782 q 333 676 292 704 q 451 621 375 647 q 624 542 564 585 q 701 440 683 499 q 699 293 718 381 q 631 106 674 174 q 517 9 589 38 q 328 -19 444 -19 m 586 1219 l 438 1379 l 497 1421 l 601 1308 l 753 1424 l 800 1382 l 586 1219 z "},"Ş":{"ha":833,"x_min":36,"x_max":832,"o":"m 328 -19 q 179 -5 236 -19 q 89 43 122 10 q 36 135 56 76 l 96 178 q 134 97 108 126 q 206 56 160 68 q 329 44 253 44 q 481 69 422 44 q 576 150 540 93 q 632 304 611 207 q 634 414 646 369 q 578 491 622 458 q 449 554 533 524 q 288 631 344 592 q 215 722 231 669 q 214 850 199 775 q 276 1019 238 958 q 382 1106 314 1081 q 560 1131 450 1131 q 696 1118 643 1131 q 781 1076 749 1106 q 832 997 813 1047 l 776 951 q 738 1022 763 997 q 670 1057 713 1047 q 558 1067 628 1067 q 418 1046 472 1067 q 332 975 364 1025 q 282 839 300 925 q 281 743 269 782 q 333 676 292 704 q 451 621 375 647 q 624 542 564 585 q 701 440 683 499 q 699 293 718 381 q 631 106 674 174 q 517 9 589 38 q 328 -19 444 -19 m 260 -272 q 194 -261 225 -272 q 146 -232 164 -250 l 183 -176 q 220 -199 199 -190 q 261 -208 242 -208 q 324 -192 297 -208 q 356 -151 350 -176 q 335 -122 360 -132 q 264 -111 310 -111 l 286 7 l 356 7 l 340 -56 q 408 -95 385 -65 q 422 -162 431 -125 q 368 -242 413 -212 q 260 -272 324 -272 z "},"Ŝ":{"ha":833,"x_min":36,"x_max":832,"o":"m 328 -19 q 179 -5 236 -19 q 89 43 122 10 q 36 135 56 76 l 96 178 q 134 97 108 126 q 206 56 160 68 q 329 44 253 44 q 481 69 422 44 q 576 150 540 93 q 632 304 611 207 q 634 414 646 369 q 578 491 622 458 q 449 554 533 524 q 288 631 344 592 q 215 722 231 669 q 214 850 199 775 q 276 1019 238 958 q 382 1106 314 1081 q 560 1131 450 1131 q 696 1118 643 1131 q 781 1076 749 1106 q 832 997 813 1047 l 776 951 q 738 1022 763 997 q 670 1057 713 1047 q 558 1067 628 1067 q 418 1046 472 1067 q 332 975 364 1025 q 282 839 300 925 q 281 743 269 782 q 333 676 292 704 q 451 621 375 647 q 624 542 564 585 q 701 440 683 499 q 699 293 718 381 q 631 106 674 174 q 517 9 589 38 q 328 -19 444 -19 m 710 1208 l 608 1324 l 457 1211 l 411 1253 l 624 1413 l 771 1250 l 710 1208 z "},"Ș":{"ha":833,"x_min":36,"x_max":832,"o":"m 328 -19 q 179 -5 236 -19 q 89 43 122 10 q 36 135 56 76 l 96 178 q 134 97 108 126 q 206 56 160 68 q 329 44 253 44 q 481 69 422 44 q 576 150 540 93 q 632 304 611 207 q 634 414 646 369 q 578 491 622 458 q 449 554 533 524 q 288 631 344 592 q 215 722 231 669 q 214 850 199 775 q 276 1019 238 958 q 382 1106 314 1081 q 560 1131 450 1131 q 696 1118 643 1131 q 781 1076 749 1106 q 832 997 813 1047 l 776 951 q 738 1022 763 997 q 670 1057 713 1047 q 558 1067 628 1067 q 418 1046 472 1067 q 332 975 364 1025 q 282 839 300 925 q 281 743 269 782 q 333 676 292 704 q 451 621 375 647 q 624 542 564 585 q 701 440 683 499 q 699 293 718 381 q 631 106 674 174 q 517 9 589 38 q 328 -19 444 -19 m 178 -342 l 283 -174 q 258 -156 265 -171 q 257 -114 251 -142 q 276 -74 264 -83 q 321 -64 289 -64 q 369 -77 357 -64 q 374 -125 381 -90 q 345 -188 368 -150 q 292 -267 322 -226 q 229 -344 261 -308 l 178 -342 z "},"ẞ":{"ha":833,"x_min":-42,"x_max":951,"o":"m -42 0 l 126 790 q 263 1026 158 942 q 521 1111 368 1111 l 951 1111 l 524 592 l 442 592 l 819 1047 l 506 1047 q 366 1014 431 1047 q 256 922 301 981 q 194 785 211 863 l 28 0 l -42 0 m 426 -19 q 270 0 325 -19 q 200 65 215 19 q 201 186 185 110 l 269 181 q 286 73 253 101 q 428 44 319 44 q 568 68 514 44 q 656 153 622 92 q 714 324 690 214 q 728 483 736 425 q 679 567 721 542 q 553 592 638 592 l 503 592 l 517 656 l 561 656 q 729 623 672 656 q 797 515 786 590 q 781 313 808 440 q 732 149 760 214 q 664 48 704 85 q 566 -4 624 11 q 426 -19 508 -19 z "},"T":{"ha":833,"x_min":176,"x_max":933,"o":"m 290 0 l 526 1111 l 596 1111 l 360 0 l 290 0 m 176 1047 l 189 1111 l 933 1111 l 921 1047 l 176 1047 z "},"Ŧ":{"ha":833,"x_min":176,"x_max":933,"o":"m 179 556 l 193 619 l 721 619 l 707 556 l 179 556 m 290 0 l 526 1111 l 596 1111 l 360 0 l 290 0 m 176 1047 l 189 1111 l 933 1111 l 921 1047 l 176 1047 z "},"Ť":{"ha":833,"x_min":176,"x_max":933,"o":"m 290 0 l 526 1111 l 596 1111 l 360 0 l 290 0 m 176 1047 l 189 1111 l 933 1111 l 921 1047 l 176 1047 m 585 1215 l 436 1375 l 496 1417 l 600 1304 l 751 1419 l 799 1378 l 585 1215 z "},"Ţ":{"ha":833,"x_min":151,"x_max":933,"o":"m 290 0 l 526 1111 l 596 1111 l 360 0 l 290 0 m 176 1047 l 189 1111 l 933 1111 l 921 1047 l 176 1047 m 265 -272 q 200 -261 231 -272 q 151 -232 169 -250 l 189 -176 q 226 -199 204 -190 q 267 -208 247 -208 q 329 -192 303 -208 q 361 -151 356 -176 q 340 -122 365 -132 q 269 -111 315 -111 l 292 7 l 361 7 l 346 -56 q 413 -95 390 -65 q 428 -162 436 -125 q 374 -242 418 -212 q 265 -272 329 -272 z "},"Ț":{"ha":833,"x_min":176,"x_max":933,"o":"m 290 0 l 526 1111 l 596 1111 l 360 0 l 290 0 m 176 1047 l 189 1111 l 933 1111 l 921 1047 l 176 1047 m 178 -342 l 283 -174 q 258 -156 265 -171 q 257 -114 251 -142 q 276 -74 264 -83 q 321 -64 289 -64 q 369 -77 357 -64 q 374 -125 381 -90 q 345 -188 368 -150 q 292 -267 322 -226 q 229 -344 261 -308 l 178 -342 z "},"U":{"ha":833,"x_min":85,"x_max":856,"o":"m 328 -19 q 157 20 214 -19 q 92 154 100 60 q 118 410 85 249 l 267 1111 l 336 1111 l 186 404 q 160 188 157 267 q 205 77 164 110 q 329 44 246 44 q 474 78 417 44 q 570 192 532 113 q 638 410 608 272 l 786 1111 l 856 1111 l 706 404 q 626 150 672 243 q 508 19 579 57 q 328 -19 438 -19 z "},"Ú":{"ha":833,"x_min":85,"x_max":856,"o":"m 328 -19 q 157 20 214 -19 q 92 154 100 60 q 118 410 85 249 l 267 1111 l 336 1111 l 186 404 q 160 188 157 267 q 205 77 164 110 q 329 44 246 44 q 474 78 417 44 q 570 192 532 113 q 638 410 608 272 l 786 1111 l 856 1111 l 706 404 q 626 150 672 243 q 508 19 579 57 q 328 -19 438 -19 m 571 1211 l 533 1260 l 753 1424 l 790 1375 l 571 1211 z "},"Ŭ":{"ha":833,"x_min":85,"x_max":856,"o":"m 328 -19 q 157 20 214 -19 q 92 154 100 60 q 118 410 85 249 l 267 1111 l 336 1111 l 186 404 q 160 188 157 267 q 205 77 164 110 q 329 44 246 44 q 474 78 417 44 q 570 192 532 113 q 638 410 608 272 l 786 1111 l 856 1111 l 706 404 q 626 150 672 243 q 508 19 579 57 q 328 -19 438 -19 m 592 1236 q 461 1272 492 1236 q 449 1396 431 1307 l 517 1396 q 514 1338 510 1358 q 538 1308 518 1317 q 594 1300 557 1300 q 663 1310 636 1300 q 704 1340 689 1319 q 726 1396 719 1361 l 794 1396 q 760 1299 782 1335 q 697 1250 738 1264 q 592 1236 657 1236 z "},"Ǔ":{"ha":833,"x_min":85,"x_max":856,"o":"m 328 -19 q 157 20 214 -19 q 92 154 100 60 q 118 410 85 249 l 267 1111 l 336 1111 l 186 404 q 160 188 157 267 q 205 77 164 110 q 329 44 246 44 q 474 78 417 44 q 570 192 532 113 q 638 410 608 272 l 786 1111 l 856 1111 l 706 404 q 626 150 672 243 q 508 19 579 57 q 328 -19 438 -19 m 586 1219 l 438 1379 l 497 1421 l 601 1308 l 753 1424 l 800 1382 l 586 1219 z "},"Û":{"ha":833,"x_min":85,"x_max":856,"o":"m 328 -19 q 157 20 214 -19 q 92 154 100 60 q 118 410 85 249 l 267 1111 l 336 1111 l 186 404 q 160 188 157 267 q 205 77 164 110 q 329 44 246 44 q 474 78 417 44 q 570 192 532 113 q 638 410 608 272 l 786 1111 l 856 1111 l 706 404 q 626 150 672 243 q 508 19 579 57 q 328 -19 438 -19 m 710 1208 l 608 1324 l 457 1211 l 411 1253 l 624 1413 l 771 1250 l 710 1208 z "},"Ü":{"ha":833,"x_min":85,"x_max":856,"o":"m 328 -19 q 157 20 214 -19 q 92 154 100 60 q 118 410 85 249 l 267 1111 l 336 1111 l 186 404 q 160 188 157 267 q 205 77 164 110 q 329 44 246 44 q 474 78 417 44 q 570 192 532 113 q 638 410 608 272 l 786 1111 l 856 1111 l 706 404 q 626 150 672 243 q 508 19 579 57 q 328 -19 438 -19 m 751 1274 q 691 1291 706 1274 q 686 1351 676 1308 q 710 1402 693 1389 q 769 1415 728 1415 q 831 1399 815 1415 q 836 1340 846 1382 q 810 1288 828 1301 q 751 1274 793 1274 m 451 1274 q 391 1291 406 1274 q 386 1351 376 1308 q 410 1402 393 1389 q 469 1415 428 1415 q 531 1399 515 1415 q 536 1340 546 1382 q 510 1288 528 1301 q 451 1274 493 1274 z "},"Ǘ":{"ha":833,"x_min":85,"x_max":856,"o":"m 328 -19 q 157 20 214 -19 q 92 154 100 60 q 118 410 85 249 l 267 1111 l 336 1111 l 186 404 q 160 188 157 267 q 205 77 164 110 q 329 44 246 44 q 474 78 417 44 q 570 192 532 113 q 638 410 608 272 l 786 1111 l 856 1111 l 706 404 q 626 150 672 243 q 508 19 579 57 q 328 -19 438 -19 m 725 1144 q 665 1162 679 1144 q 660 1222 650 1179 q 684 1273 667 1260 q 743 1286 701 1286 q 804 1269 789 1286 q 810 1211 819 1253 q 784 1158 801 1172 q 725 1144 767 1144 m 425 1144 q 365 1162 379 1144 q 360 1222 350 1179 q 384 1273 367 1260 q 443 1286 401 1286 q 504 1269 489 1286 q 510 1211 519 1253 q 484 1158 501 1172 q 425 1144 467 1144 m 589 1293 l 551 1342 l 771 1506 l 808 1457 l 589 1293 z "},"Ǚ":{"ha":833,"x_min":85,"x_max":856,"o":"m 328 -19 q 157 20 214 -19 q 92 154 100 60 q 118 410 85 249 l 267 1111 l 336 1111 l 186 404 q 160 188 157 267 q 205 77 164 110 q 329 44 246 44 q 474 78 417 44 q 570 192 532 113 q 638 410 608 272 l 786 1111 l 856 1111 l 706 404 q 626 150 672 243 q 508 19 579 57 q 328 -19 438 -19 m 725 1144 q 665 1162 679 1144 q 660 1222 650 1179 q 684 1273 667 1260 q 743 1286 701 1286 q 804 1269 789 1286 q 810 1211 819 1253 q 784 1158 801 1172 q 725 1144 767 1144 m 425 1144 q 365 1162 379 1144 q 360 1222 350 1179 q 384 1273 367 1260 q 443 1286 401 1286 q 504 1269 489 1286 q 510 1211 519 1253 q 484 1158 501 1172 q 425 1144 467 1144 m 606 1306 l 457 1465 l 517 1507 l 621 1394 l 772 1510 l 819 1468 l 606 1306 z "},"Ǜ":{"ha":833,"x_min":85,"x_max":856,"o":"m 328 -19 q 157 20 214 -19 q 92 154 100 60 q 118 410 85 249 l 267 1111 l 336 1111 l 186 404 q 160 188 157 267 q 205 77 164 110 q 329 44 246 44 q 474 78 417 44 q 570 192 532 113 q 638 410 608 272 l 786 1111 l 856 1111 l 706 404 q 626 150 672 243 q 508 19 579 57 q 328 -19 438 -19 m 725 1144 q 665 1162 679 1144 q 660 1222 650 1179 q 684 1273 667 1260 q 743 1286 701 1286 q 804 1269 789 1286 q 810 1211 819 1253 q 784 1158 801 1172 q 725 1144 767 1144 m 425 1144 q 365 1162 379 1144 q 360 1222 350 1179 q 384 1273 367 1260 q 443 1286 401 1286 q 504 1269 489 1286 q 510 1211 519 1253 q 484 1158 501 1172 q 425 1144 467 1144 m 617 1293 l 461 1457 l 515 1506 l 671 1342 l 617 1293 z "},"Ǖ":{"ha":833,"x_min":85,"x_max":856,"o":"m 328 -19 q 157 20 214 -19 q 92 154 100 60 q 118 410 85 249 l 267 1111 l 336 1111 l 186 404 q 160 188 157 267 q 205 77 164 110 q 329 44 246 44 q 474 78 417 44 q 570 192 532 113 q 638 410 608 272 l 786 1111 l 856 1111 l 706 404 q 626 150 672 243 q 508 19 579 57 q 328 -19 438 -19 m 725 1144 q 665 1162 679 1144 q 660 1222 650 1179 q 684 1273 667 1260 q 743 1286 701 1286 q 804 1269 789 1286 q 810 1211 819 1253 q 784 1158 801 1172 q 725 1144 767 1144 m 425 1144 q 365 1162 379 1144 q 360 1222 350 1179 q 384 1273 367 1260 q 443 1286 401 1286 q 504 1269 489 1286 q 510 1211 519 1253 q 484 1158 501 1172 q 425 1144 467 1144 m 439 1432 l 453 1496 l 833 1496 l 819 1432 l 439 1432 z "},"Ụ":{"ha":833,"x_min":85,"x_max":856,"o":"m 328 -19 q 157 20 214 -19 q 92 154 100 60 q 118 410 85 249 l 267 1111 l 336 1111 l 186 404 q 160 188 157 267 q 205 77 164 110 q 329 44 246 44 q 474 78 417 44 q 570 192 532 113 q 638 410 608 272 l 786 1111 l 856 1111 l 706 404 q 626 150 672 243 q 508 19 579 57 q 328 -19 438 -19 m 267 -308 q 205 -292 219 -308 q 200 -232 190 -275 q 228 -178 210 -193 q 286 -164 247 -164 q 349 -180 335 -164 q 353 -240 363 -196 q 326 -294 344 -279 q 267 -308 307 -308 z "},"Ù":{"ha":833,"x_min":85,"x_max":856,"o":"m 328 -19 q 157 20 214 -19 q 92 154 100 60 q 118 410 85 249 l 267 1111 l 336 1111 l 186 404 q 160 188 157 267 q 205 77 164 110 q 329 44 246 44 q 474 78 417 44 q 570 192 532 113 q 638 410 608 272 l 786 1111 l 856 1111 l 706 404 q 626 150 672 243 q 508 19 579 57 q 328 -19 438 -19 m 599 1211 l 443 1375 l 497 1424 l 653 1260 l 599 1211 z "},"Ủ":{"ha":833,"x_min":85,"x_max":856,"o":"m 328 -19 q 157 20 214 -19 q 92 154 100 60 q 118 410 85 249 l 267 1111 l 336 1111 l 186 404 q 160 188 157 267 q 205 77 164 110 q 329 44 246 44 q 474 78 417 44 q 570 192 532 113 q 638 410 608 272 l 786 1111 l 856 1111 l 706 404 q 626 150 672 243 q 508 19 579 57 q 328 -19 438 -19 m 554 1167 l 544 1229 q 620 1263 593 1242 q 653 1307 647 1285 q 644 1338 657 1326 q 615 1349 632 1349 q 544 1331 581 1349 q 483 1296 507 1313 l 496 1376 q 556 1403 522 1393 q 617 1413 590 1413 q 700 1381 669 1413 q 719 1296 731 1349 q 669 1219 711 1254 q 554 1167 628 1183 z "},"Ư":{"ha":833,"x_min":85,"x_max":1110,"o":"m 328 -19 q 157 20 214 -19 q 92 154 100 60 q 118 410 85 249 l 267 1111 l 336 1111 l 186 404 q 160 188 157 267 q 205 77 164 110 q 329 44 246 44 q 474 78 417 44 q 570 192 532 113 q 638 410 608 272 l 786 1111 l 856 1111 l 706 404 q 626 150 672 243 q 508 19 579 57 q 328 -19 438 -19 m 893 1008 q 846 1019 869 1008 q 807 1049 822 1031 l 817 1108 q 833 1089 822 1097 q 860 1076 844 1081 q 894 1072 876 1072 q 963 1103 932 1072 q 1003 1181 993 1133 l 1040 1358 l 1110 1358 l 1071 1175 q 1007 1053 1056 1099 q 893 1008 958 1008 z "},"Ứ":{"ha":833,"x_min":85,"x_max":1110,"o":"m 328 -19 q 157 20 214 -19 q 92 154 100 60 q 118 410 85 249 l 267 1111 l 336 1111 l 186 404 q 160 188 157 267 q 205 77 164 110 q 329 44 246 44 q 474 78 417 44 q 570 192 532 113 q 638 410 608 272 l 786 1111 l 856 1111 l 706 404 q 626 150 672 243 q 508 19 579 57 q 328 -19 438 -19 m 893 1008 q 846 1019 869 1008 q 807 1049 822 1031 l 817 1108 q 833 1089 822 1097 q 860 1076 844 1081 q 894 1072 876 1072 q 963 1103 932 1072 q 1003 1181 993 1133 l 1040 1358 l 1110 1358 l 1071 1175 q 1007 1053 1056 1099 q 893 1008 958 1008 m 571 1211 l 533 1260 l 753 1424 l 790 1375 l 571 1211 z "},"Ự":{"ha":833,"x_min":85,"x_max":1110,"o":"m 328 -19 q 157 20 214 -19 q 92 154 100 60 q 118 410 85 249 l 267 1111 l 336 1111 l 186 404 q 160 188 157 267 q 205 77 164 110 q 329 44 246 44 q 474 78 417 44 q 570 192 532 113 q 638 410 608 272 l 786 1111 l 856 1111 l 706 404 q 626 150 672 243 q 508 19 579 57 q 328 -19 438 -19 m 893 1008 q 846 1019 869 1008 q 807 1049 822 1031 l 817 1108 q 833 1089 822 1097 q 860 1076 844 1081 q 894 1072 876 1072 q 963 1103 932 1072 q 1003 1181 993 1133 l 1040 1358 l 1110 1358 l 1071 1175 q 1007 1053 1056 1099 q 893 1008 958 1008 m 267 -308 q 205 -292 219 -308 q 200 -232 190 -275 q 228 -178 210 -193 q 286 -164 247 -164 q 349 -180 335 -164 q 353 -240 363 -196 q 326 -294 344 -279 q 267 -308 307 -308 z "},"Ừ":{"ha":833,"x_min":85,"x_max":1110,"o":"m 328 -19 q 157 20 214 -19 q 92 154 100 60 q 118 410 85 249 l 267 1111 l 336 1111 l 186 404 q 160 188 157 267 q 205 77 164 110 q 329 44 246 44 q 474 78 417 44 q 570 192 532 113 q 638 410 608 272 l 786 1111 l 856 1111 l 706 404 q 626 150 672 243 q 508 19 579 57 q 328 -19 438 -19 m 893 1008 q 846 1019 869 1008 q 807 1049 822 1031 l 817 1108 q 833 1089 822 1097 q 860 1076 844 1081 q 894 1072 876 1072 q 963 1103 932 1072 q 1003 1181 993 1133 l 1040 1358 l 1110 1358 l 1071 1175 q 1007 1053 1056 1099 q 893 1008 958 1008 m 599 1211 l 443 1375 l 497 1424 l 653 1260 l 599 1211 z "},"Ử":{"ha":833,"x_min":85,"x_max":1110,"o":"m 328 -19 q 157 20 214 -19 q 92 154 100 60 q 118 410 85 249 l 267 1111 l 336 1111 l 186 404 q 160 188 157 267 q 205 77 164 110 q 329 44 246 44 q 474 78 417 44 q 570 192 532 113 q 638 410 608 272 l 786 1111 l 856 1111 l 706 404 q 626 150 672 243 q 508 19 579 57 q 328 -19 438 -19 m 893 1008 q 846 1019 869 1008 q 807 1049 822 1031 l 817 1108 q 833 1089 822 1097 q 860 1076 844 1081 q 894 1072 876 1072 q 963 1103 932 1072 q 1003 1181 993 1133 l 1040 1358 l 1110 1358 l 1071 1175 q 1007 1053 1056 1099 q 893 1008 958 1008 m 554 1167 l 544 1229 q 620 1263 593 1242 q 653 1307 647 1285 q 644 1338 657 1326 q 615 1349 632 1349 q 544 1331 581 1349 q 483 1296 507 1313 l 496 1376 q 556 1403 522 1393 q 617 1413 590 1413 q 700 1381 669 1413 q 719 1296 731 1349 q 669 1219 711 1254 q 554 1167 628 1183 z "},"Ữ":{"ha":833,"x_min":85,"x_max":1110,"o":"m 328 -19 q 157 20 214 -19 q 92 154 100 60 q 118 410 85 249 l 267 1111 l 336 1111 l 186 404 q 160 188 157 267 q 205 77 164 110 q 329 44 246 44 q 474 78 417 44 q 570 192 532 113 q 638 410 608 272 l 786 1111 l 856 1111 l 706 404 q 626 150 672 243 q 508 19 579 57 q 328 -19 438 -19 m 893 1008 q 846 1019 869 1008 q 807 1049 822 1031 l 817 1108 q 833 1089 822 1097 q 860 1076 844 1081 q 894 1072 876 1072 q 963 1103 932 1072 q 1003 1181 993 1133 l 1040 1358 l 1110 1358 l 1071 1175 q 1007 1053 1056 1099 q 893 1008 958 1008 m 686 1231 q 632 1247 654 1231 q 592 1284 610 1263 q 559 1322 575 1306 q 522 1338 543 1338 q 477 1317 490 1338 q 457 1267 464 1297 l 389 1267 q 439 1365 403 1329 q 524 1401 475 1401 q 575 1385 553 1401 q 615 1348 597 1369 q 651 1310 633 1326 q 688 1294 668 1294 q 733 1314 719 1294 q 751 1361 746 1333 l 819 1361 q 771 1266 807 1301 q 686 1231 735 1231 z "},"Ű":{"ha":833,"x_min":85,"x_max":856,"o":"m 328 -19 q 157 20 214 -19 q 92 154 100 60 q 118 410 85 249 l 267 1111 l 336 1111 l 186 404 q 160 188 157 267 q 205 77 164 110 q 329 44 246 44 q 474 78 417 44 q 570 192 532 113 q 638 410 608 272 l 786 1111 l 856 1111 l 706 404 q 626 150 672 243 q 508 19 579 57 q 328 -19 438 -19 m 633 1211 l 596 1260 l 815 1424 l 853 1375 l 633 1211 m 394 1211 l 357 1260 l 576 1424 l 614 1375 l 394 1211 z "},"Ū":{"ha":833,"x_min":85,"x_max":856,"o":"m 328 -19 q 157 20 214 -19 q 92 154 100 60 q 118 410 85 249 l 267 1111 l 336 1111 l 186 404 q 160 188 157 267 q 205 77 164 110 q 329 44 246 44 q 474 78 417 44 q 570 192 532 113 q 638 410 608 272 l 786 1111 l 856 1111 l 706 404 q 626 150 672 243 q 508 19 579 57 q 328 -19 438 -19 m 403 1263 l 417 1326 l 797 1326 l 783 1263 l 403 1263 z "},"Ų":{"ha":833,"x_min":85,"x_max":856,"o":"m 328 -19 q 157 20 214 -19 q 92 154 100 60 q 118 410 85 249 l 267 1111 l 336 1111 l 186 404 q 160 188 157 267 q 205 77 164 110 q 329 44 246 44 q 474 78 417 44 q 570 192 532 113 q 638 410 608 272 l 786 1111 l 856 1111 l 706 404 q 626 150 672 243 q 508 19 579 57 q 328 -19 438 -19 m 314 -272 q 208 -247 249 -272 q 168 -171 168 -222 q 199 -106 168 -137 q 279 -43 229 -74 q 385 14 329 -12 l 433 0 q 344 -52 389 -26 q 268 -103 299 -78 q 238 -157 238 -129 q 258 -194 238 -179 q 314 -208 279 -208 q 360 -199 336 -208 q 403 -175 385 -189 l 432 -233 q 378 -262 411 -251 q 314 -272 346 -272 z "},"Ů":{"ha":833,"x_min":85,"x_max":856,"o":"m 328 -19 q 157 20 214 -19 q 92 154 100 60 q 118 410 85 249 l 267 1111 l 336 1111 l 186 404 q 160 188 157 267 q 205 77 164 110 q 329 44 246 44 q 474 78 417 44 q 570 192 532 113 q 638 410 608 272 l 786 1111 l 856 1111 l 706 404 q 626 150 672 243 q 508 19 579 57 q 328 -19 438 -19 m 553 1051 q 422 1088 453 1051 q 410 1217 392 1124 q 446 1310 424 1276 q 507 1357 468 1343 q 610 1371 546 1371 q 744 1335 713 1371 q 756 1206 775 1299 q 721 1113 743 1147 q 658 1065 699 1079 q 553 1051 618 1051 m 556 1115 q 647 1138 618 1115 q 688 1217 676 1161 q 682 1288 699 1269 q 608 1307 665 1307 q 518 1285 547 1307 q 478 1206 489 1263 q 483 1135 467 1154 q 556 1115 500 1115 z "},"Ũ":{"ha":833,"x_min":85,"x_max":856,"o":"m 328 -19 q 157 20 214 -19 q 92 154 100 60 q 118 410 85 249 l 267 1111 l 336 1111 l 186 404 q 160 188 157 267 q 205 77 164 110 q 329 44 246 44 q 474 78 417 44 q 570 192 532 113 q 638 410 608 272 l 786 1111 l 856 1111 l 706 404 q 626 150 672 243 q 508 19 579 57 q 328 -19 438 -19 m 686 1231 q 632 1247 654 1231 q 592 1284 610 1263 q 559 1322 575 1306 q 522 1338 543 1338 q 477 1317 490 1338 q 457 1267 464 1297 l 389 1267 q 439 1365 403 1329 q 524 1401 475 1401 q 575 1385 553 1401 q 615 1348 597 1369 q 651 1310 633 1326 q 688 1294 668 1294 q 733 1314 719 1294 q 751 1361 746 1333 l 819 1361 q 771 1266 807 1301 q 686 1231 735 1231 z "},"V":{"ha":833,"x_min":221,"x_max":904,"o":"m 288 0 l 221 1111 l 294 1111 l 350 125 l 828 1111 l 904 1111 l 365 0 l 288 0 z "},"W":{"ha":833,"x_min":107,"x_max":931,"o":"m 107 0 l 194 1111 l 264 1111 l 185 160 l 449 744 l 518 744 l 532 160 l 858 1111 l 931 1111 l 546 0 l 475 0 l 458 618 l 178 0 l 107 0 z "},"Ẃ":{"ha":833,"x_min":107,"x_max":931,"o":"m 107 0 l 194 1111 l 264 1111 l 185 160 l 449 744 l 518 744 l 532 160 l 858 1111 l 931 1111 l 546 0 l 475 0 l 458 618 l 178 0 l 107 0 m 571 1211 l 533 1260 l 753 1424 l 790 1375 l 571 1211 z "},"Ŵ":{"ha":833,"x_min":107,"x_max":931,"o":"m 107 0 l 194 1111 l 264 1111 l 185 160 l 449 744 l 518 744 l 532 160 l 858 1111 l 931 1111 l 546 0 l 475 0 l 458 618 l 178 0 l 107 0 m 710 1208 l 608 1324 l 457 1211 l 411 1253 l 624 1413 l 771 1250 l 710 1208 z "},"Ẅ":{"ha":833,"x_min":107,"x_max":931,"o":"m 107 0 l 194 1111 l 264 1111 l 185 160 l 449 744 l 518 744 l 532 160 l 858 1111 l 931 1111 l 546 0 l 475 0 l 458 618 l 178 0 l 107 0 m 751 1274 q 691 1291 706 1274 q 686 1351 676 1308 q 710 1402 693 1389 q 769 1415 728 1415 q 831 1399 815 1415 q 836 1340 846 1382 q 810 1288 828 1301 q 751 1274 793 1274 m 451 1274 q 391 1291 406 1274 q 386 1351 376 1308 q 410 1402 393 1389 q 469 1415 428 1415 q 531 1399 515 1415 q 536 1340 546 1382 q 510 1288 528 1301 q 451 1274 493 1274 z "},"Ẁ":{"ha":833,"x_min":107,"x_max":931,"o":"m 107 0 l 194 1111 l 264 1111 l 185 160 l 449 744 l 518 744 l 532 160 l 858 1111 l 931 1111 l 546 0 l 475 0 l 458 618 l 178 0 l 107 0 m 599 1211 l 443 1375 l 497 1424 l 653 1260 l 599 1211 z "},"X":{"ha":833,"x_min":-7,"x_max":894,"o":"m 582 0 l 231 1111 l 306 1111 l 657 0 l 582 0 m -7 0 l 817 1111 l 894 1111 l 71 0 l -7 0 z "},"Y":{"ha":833,"x_min":204,"x_max":921,"o":"m 290 0 l 383 428 l 204 1111 l 279 1111 l 433 514 l 843 1111 l 921 1111 l 453 428 l 360 0 l 290 0 z "},"Ý":{"ha":833,"x_min":204,"x_max":921,"o":"m 290 0 l 383 428 l 204 1111 l 279 1111 l 433 514 l 843 1111 l 921 1111 l 453 428 l 360 0 l 290 0 m 571 1211 l 533 1260 l 753 1424 l 790 1375 l 571 1211 z "},"Ŷ":{"ha":833,"x_min":204,"x_max":921,"o":"m 290 0 l 383 428 l 204 1111 l 279 1111 l 433 514 l 843 1111 l 921 1111 l 453 428 l 360 0 l 290 0 m 710 1208 l 608 1324 l 457 1211 l 411 1253 l 624 1413 l 771 1250 l 710 1208 z "},"Ÿ":{"ha":833,"x_min":204,"x_max":921,"o":"m 290 0 l 383 428 l 204 1111 l 279 1111 l 433 514 l 843 1111 l 921 1111 l 453 428 l 360 0 l 290 0 m 751 1274 q 691 1291 706 1274 q 686 1351 676 1308 q 710 1402 693 1389 q 769 1415 728 1415 q 831 1399 815 1415 q 836 1340 846 1382 q 810 1288 828 1301 q 751 1274 793 1274 m 451 1274 q 391 1291 406 1274 q 386 1351 376 1308 q 410 1402 393 1389 q 469 1415 428 1415 q 531 1399 515 1415 q 536 1340 546 1382 q 510 1288 528 1301 q 451 1274 493 1274 z "},"Ỵ":{"ha":833,"x_min":190,"x_max":921,"o":"m 290 0 l 383 428 l 204 1111 l 279 1111 l 433 514 l 843 1111 l 921 1111 l 453 428 l 360 0 l 290 0 m 267 -308 q 205 -292 219 -308 q 200 -232 190 -275 q 228 -178 210 -193 q 286 -164 247 -164 q 349 -180 335 -164 q 353 -240 363 -196 q 326 -294 344 -279 q 267 -308 307 -308 z "},"Ỳ":{"ha":833,"x_min":204,"x_max":921,"o":"m 290 0 l 383 428 l 204 1111 l 279 1111 l 433 514 l 843 1111 l 921 1111 l 453 428 l 360 0 l 290 0 m 599 1211 l 443 1375 l 497 1424 l 653 1260 l 599 1211 z "},"Ỷ":{"ha":833,"x_min":204,"x_max":921,"o":"m 290 0 l 383 428 l 204 1111 l 279 1111 l 433 514 l 843 1111 l 921 1111 l 453 428 l 360 0 l 290 0 m 554 1167 l 544 1229 q 620 1263 593 1242 q 653 1307 647 1285 q 644 1338 657 1326 q 615 1349 632 1349 q 544 1331 581 1349 q 483 1296 507 1313 l 496 1376 q 556 1403 522 1393 q 617 1413 590 1413 q 700 1381 669 1413 q 719 1296 731 1349 q 669 1219 711 1254 q 554 1167 628 1183 z "},"Ỹ":{"ha":833,"x_min":204,"x_max":921,"o":"m 290 0 l 383 428 l 204 1111 l 279 1111 l 433 514 l 843 1111 l 921 1111 l 453 428 l 360 0 l 290 0 m 686 1231 q 632 1247 654 1231 q 592 1284 610 1263 q 559 1322 575 1306 q 522 1338 543 1338 q 477 1317 490 1338 q 457 1267 464 1297 l 389 1267 q 439 1365 403 1329 q 524 1401 475 1401 q 575 1385 553 1401 q 615 1348 597 1369 q 651 1310 633 1326 q 688 1294 668 1294 q 733 1314 719 1294 q 751 1361 746 1333 l 819 1361 q 771 1266 807 1301 q 686 1231 735 1231 z "},"Z":{"ha":833,"x_min":-10,"x_max":963,"o":"m 624 -87 q 528 -72 575 -87 q 435 -35 482 -56 q 338 1 389 -15 q 229 17 288 17 q 196 14 214 17 q 151 8 178 11 q 86 3 125 6 q -10 0 47 0 l 1 57 l 800 1047 l 217 1047 l 229 1111 l 896 1111 l 885 1053 l 88 64 q 165 72 132 64 q 244 81 197 81 q 358 65 307 81 q 456 28 410 49 q 545 -8 501 8 q 638 -24 589 -24 q 726 -10 688 -24 q 800 20 764 3 q 874 51 836 38 q 963 64 913 64 l 949 0 q 897 -9 921 0 q 845 -31 872 -18 q 787 -56 818 -43 q 716 -78 756 -69 q 624 -87 676 -87 z "},"Ź":{"ha":833,"x_min":-10,"x_max":963,"o":"m 624 -87 q 528 -72 575 -87 q 435 -35 482 -56 q 338 1 389 -15 q 229 17 288 17 q 196 14 214 17 q 151 8 178 11 q 86 3 125 6 q -10 0 47 0 l 1 57 l 800 1047 l 217 1047 l 229 1111 l 896 1111 l 885 1053 l 88 64 q 165 72 132 64 q 244 81 197 81 q 358 65 307 81 q 456 28 410 49 q 545 -8 501 8 q 638 -24 589 -24 q 726 -10 688 -24 q 800 20 764 3 q 874 51 836 38 q 963 64 913 64 l 949 0 q 897 -9 921 0 q 845 -31 872 -18 q 787 -56 818 -43 q 716 -78 756 -69 q 624 -87 676 -87 m 569 1207 l 532 1256 l 751 1419 l 789 1371 l 569 1207 z "},"Ž":{"ha":833,"x_min":-10,"x_max":963,"o":"m 624 -87 q 528 -72 575 -87 q 435 -35 482 -56 q 338 1 389 -15 q 229 17 288 17 q 196 14 214 17 q 151 8 178 11 q 86 3 125 6 q -10 0 47 0 l 1 57 l 800 1047 l 217 1047 l 229 1111 l 896 1111 l 885 1053 l 88 64 q 165 72 132 64 q 244 81 197 81 q 358 65 307 81 q 456 28 410 49 q 545 -8 501 8 q 638 -24 589 -24 q 726 -10 688 -24 q 800 20 764 3 q 874 51 836 38 q 963 64 913 64 l 949 0 q 897 -9 921 0 q 845 -31 872 -18 q 787 -56 818 -43 q 716 -78 756 -69 q 624 -87 676 -87 m 585 1215 l 436 1375 l 496 1417 l 600 1304 l 751 1419 l 799 1378 l 585 1215 z "},"Ż":{"ha":833,"x_min":-10,"x_max":963,"o":"m 624 -87 q 528 -72 575 -87 q 435 -35 482 -56 q 338 1 389 -15 q 229 17 288 17 q 196 14 214 17 q 151 8 178 11 q 86 3 125 6 q -10 0 47 0 l 1 57 l 800 1047 l 217 1047 l 229 1111 l 896 1111 l 885 1053 l 88 64 q 165 72 132 64 q 244 81 197 81 q 358 65 307 81 q 456 28 410 49 q 545 -8 501 8 q 638 -24 589 -24 q 726 -10 688 -24 q 800 20 764 3 q 874 51 836 38 q 963 64 913 64 l 949 0 q 897 -9 921 0 q 845 -31 872 -18 q 787 -56 818 -43 q 716 -78 756 -69 q 624 -87 676 -87 m 604 1290 q 542 1307 557 1290 q 538 1367 528 1324 q 566 1420 547 1406 q 624 1435 585 1435 q 686 1419 672 1435 q 690 1358 700 1403 q 663 1305 682 1319 q 604 1290 644 1290 z "},"a":{"ha":833,"x_min":44,"x_max":721,"o":"m 688 74 l 721 22 q 668 -8 701 4 q 599 -19 635 -19 q 529 3 556 -19 q 503 61 503 25 q 506 117 503 90 q 515 157 510 143 q 411 29 476 78 q 278 -19 346 -19 q 156 10 208 -19 q 74 94 103 40 q 44 221 44 149 q 72 397 44 306 q 146 574 99 489 q 252 728 193 660 q 376 838 311 797 q 504 878 442 878 q 649 853 592 878 q 706 757 706 829 q 703 733 706 751 q 692 675 700 714 q 669 567 683 636 q 633 392 656 499 q 578 132 610 285 q 578 69 572 93 q 624 44 583 44 q 656 52 639 44 q 688 74 674 60 m 278 44 q 386 83 333 44 q 484 193 439 122 q 558 357 529 264 q 615 625 594 522 q 636 750 636 728 q 605 801 636 788 q 504 814 574 814 q 400 776 454 814 q 294 676 346 739 q 203 535 243 613 q 138 376 163 457 q 114 221 114 294 q 159 93 114 142 q 278 44 204 44 z "},"á":{"ha":833,"x_min":44,"x_max":736,"o":"m 688 74 l 721 22 q 668 -8 701 4 q 599 -19 635 -19 q 529 3 556 -19 q 503 61 503 25 q 506 117 503 90 q 515 157 510 143 q 411 29 476 78 q 278 -19 346 -19 q 156 10 208 -19 q 74 94 103 40 q 44 221 44 149 q 72 397 44 306 q 146 574 99 489 q 252 728 193 660 q 376 838 311 797 q 504 878 442 878 q 649 853 592 878 q 706 757 706 829 q 703 733 706 751 q 692 675 700 714 q 669 567 683 636 q 633 392 656 499 q 578 132 610 285 q 578 69 572 93 q 624 44 583 44 q 656 52 639 44 q 688 74 674 60 m 278 44 q 386 83 333 44 q 484 193 439 122 q 558 357 529 264 q 615 625 594 522 q 636 750 636 728 q 605 801 636 788 q 504 814 574 814 q 400 776 454 814 q 294 676 346 739 q 203 535 243 613 q 138 376 163 457 q 114 221 114 294 q 159 93 114 142 q 278 44 204 44 m 517 954 l 479 1003 l 699 1167 l 736 1118 l 517 954 z "},"ă":{"ha":833,"x_min":44,"x_max":740,"o":"m 688 74 l 721 22 q 668 -8 701 4 q 599 -19 635 -19 q 529 3 556 -19 q 503 61 503 25 q 506 117 503 90 q 515 157 510 143 q 411 29 476 78 q 278 -19 346 -19 q 156 10 208 -19 q 74 94 103 40 q 44 221 44 149 q 72 397 44 306 q 146 574 99 489 q 252 728 193 660 q 376 838 311 797 q 504 878 442 878 q 649 853 592 878 q 706 757 706 829 q 703 733 706 751 q 692 675 700 714 q 669 567 683 636 q 633 392 656 499 q 578 132 610 285 q 578 69 572 93 q 624 44 583 44 q 656 52 639 44 q 688 74 674 60 m 278 44 q 386 83 333 44 q 484 193 439 122 q 558 357 529 264 q 615 625 594 522 q 636 750 636 728 q 605 801 636 788 q 504 814 574 814 q 400 776 454 814 q 294 676 346 739 q 203 535 243 613 q 138 376 163 457 q 114 221 114 294 q 159 93 114 142 q 278 44 204 44 m 538 979 q 407 1015 438 979 q 394 1139 376 1050 l 463 1139 q 460 1081 456 1101 q 483 1051 464 1060 q 540 1043 503 1043 q 608 1053 582 1043 q 650 1083 635 1063 q 672 1139 665 1104 l 740 1139 q 706 1042 728 1078 q 643 993 683 1007 q 538 979 603 979 z "},"ắ":{"ha":833,"x_min":44,"x_max":789,"o":"m 688 74 l 721 22 q 668 -8 701 4 q 599 -19 635 -19 q 529 3 556 -19 q 503 61 503 25 q 506 117 503 90 q 515 157 510 143 q 411 29 476 78 q 278 -19 346 -19 q 156 10 208 -19 q 74 94 103 40 q 44 221 44 149 q 72 397 44 306 q 146 574 99 489 q 252 728 193 660 q 376 838 311 797 q 504 878 442 878 q 649 853 592 878 q 706 757 706 829 q 703 733 706 751 q 692 675 700 714 q 669 567 683 636 q 633 392 656 499 q 578 132 610 285 q 578 69 572 93 q 624 44 583 44 q 656 52 639 44 q 688 74 674 60 m 278 44 q 386 83 333 44 q 484 193 439 122 q 558 357 529 264 q 615 625 594 522 q 636 750 636 728 q 605 801 636 788 q 504 814 574 814 q 400 776 454 814 q 294 676 346 739 q 203 535 243 613 q 138 376 163 457 q 114 221 114 294 q 159 93 114 142 q 278 44 204 44 m 538 979 q 407 1015 438 979 q 394 1139 376 1050 l 463 1139 q 460 1081 456 1101 q 483 1051 464 1060 q 540 1043 503 1043 q 608 1053 582 1043 q 650 1083 635 1063 q 672 1139 665 1104 l 740 1139 q 706 1042 728 1078 q 643 993 683 1007 q 538 979 603 979 m 569 1207 l 532 1256 l 751 1419 l 789 1371 l 569 1207 z "},"ặ":{"ha":833,"x_min":44,"x_max":740,"o":"m 688 74 l 721 22 q 668 -8 701 4 q 599 -19 635 -19 q 529 3 556 -19 q 503 61 503 25 q 506 117 503 90 q 515 157 510 143 q 411 29 476 78 q 278 -19 346 -19 q 156 10 208 -19 q 74 94 103 40 q 44 221 44 149 q 72 397 44 306 q 146 574 99 489 q 252 728 193 660 q 376 838 311 797 q 504 878 442 878 q 649 853 592 878 q 706 757 706 829 q 703 733 706 751 q 692 675 700 714 q 669 567 683 636 q 633 392 656 499 q 578 132 610 285 q 578 69 572 93 q 624 44 583 44 q 656 52 639 44 q 688 74 674 60 m 278 44 q 386 83 333 44 q 484 193 439 122 q 558 357 529 264 q 615 625 594 522 q 636 750 636 728 q 605 801 636 788 q 504 814 574 814 q 400 776 454 814 q 294 676 346 739 q 203 535 243 613 q 138 376 163 457 q 114 221 114 294 q 159 93 114 142 q 278 44 204 44 m 267 -304 q 205 -287 219 -304 q 200 -228 190 -271 q 228 -174 210 -189 q 286 -160 247 -160 q 349 -176 335 -160 q 353 -236 363 -192 q 326 -290 344 -275 q 267 -304 307 -304 m 538 979 q 407 1015 438 979 q 394 1139 376 1050 l 463 1139 q 460 1081 456 1101 q 483 1051 464 1060 q 540 1043 503 1043 q 608 1053 582 1043 q 650 1083 635 1063 q 672 1139 665 1104 l 740 1139 q 706 1042 728 1078 q 643 993 683 1007 q 538 979 603 979 z "},"ằ":{"ha":833,"x_min":44,"x_max":740,"o":"m 688 74 l 721 22 q 668 -8 701 4 q 599 -19 635 -19 q 529 3 556 -19 q 503 61 503 25 q 506 117 503 90 q 515 157 510 143 q 411 29 476 78 q 278 -19 346 -19 q 156 10 208 -19 q 74 94 103 40 q 44 221 44 149 q 72 397 44 306 q 146 574 99 489 q 252 728 193 660 q 376 838 311 797 q 504 878 442 878 q 649 853 592 878 q 706 757 706 829 q 703 733 706 751 q 692 675 700 714 q 669 567 683 636 q 633 392 656 499 q 578 132 610 285 q 578 69 572 93 q 624 44 583 44 q 656 52 639 44 q 688 74 674 60 m 278 44 q 386 83 333 44 q 484 193 439 122 q 558 357 529 264 q 615 625 594 522 q 636 750 636 728 q 605 801 636 788 q 504 814 574 814 q 400 776 454 814 q 294 676 346 739 q 203 535 243 613 q 138 376 163 457 q 114 221 114 294 q 159 93 114 142 q 278 44 204 44 m 538 979 q 407 1015 438 979 q 394 1139 376 1050 l 463 1139 q 460 1081 456 1101 q 483 1051 464 1060 q 540 1043 503 1043 q 608 1053 582 1043 q 650 1083 635 1063 q 672 1139 665 1104 l 740 1139 q 706 1042 728 1078 q 643 993 683 1007 q 538 979 603 979 m 597 1207 l 442 1371 l 496 1419 l 651 1256 l 597 1207 z "},"ẳ":{"ha":833,"x_min":44,"x_max":740,"o":"m 688 74 l 721 22 q 668 -8 701 4 q 599 -19 635 -19 q 529 3 556 -19 q 503 61 503 25 q 506 117 503 90 q 515 157 510 143 q 411 29 476 78 q 278 -19 346 -19 q 156 10 208 -19 q 74 94 103 40 q 44 221 44 149 q 72 397 44 306 q 146 574 99 489 q 252 728 193 660 q 376 838 311 797 q 504 878 442 878 q 649 853 592 878 q 706 757 706 829 q 703 733 706 751 q 692 675 700 714 q 669 567 683 636 q 633 392 656 499 q 578 132 610 285 q 578 69 572 93 q 624 44 583 44 q 656 52 639 44 q 688 74 674 60 m 278 44 q 386 83 333 44 q 484 193 439 122 q 558 357 529 264 q 615 625 594 522 q 636 750 636 728 q 605 801 636 788 q 504 814 574 814 q 400 776 454 814 q 294 676 346 739 q 203 535 243 613 q 138 376 163 457 q 114 221 114 294 q 159 93 114 142 q 278 44 204 44 m 538 979 q 407 1015 438 979 q 394 1139 376 1050 l 463 1139 q 460 1081 456 1101 q 483 1051 464 1060 q 540 1043 503 1043 q 608 1053 582 1043 q 650 1083 635 1063 q 672 1139 665 1104 l 740 1139 q 706 1042 728 1078 q 643 993 683 1007 q 538 979 603 979 m 553 1163 l 543 1225 q 619 1259 592 1238 q 651 1303 646 1281 q 643 1333 656 1322 q 614 1344 631 1344 q 542 1326 579 1344 q 482 1292 506 1308 l 494 1372 q 555 1399 521 1389 q 615 1408 589 1408 q 699 1376 668 1408 q 718 1292 729 1344 q 668 1215 710 1250 q 553 1163 626 1179 z "},"ẵ":{"ha":833,"x_min":44,"x_max":818,"o":"m 688 74 l 721 22 q 668 -8 701 4 q 599 -19 635 -19 q 529 3 556 -19 q 503 61 503 25 q 506 117 503 90 q 515 157 510 143 q 411 29 476 78 q 278 -19 346 -19 q 156 10 208 -19 q 74 94 103 40 q 44 221 44 149 q 72 397 44 306 q 146 574 99 489 q 252 728 193 660 q 376 838 311 797 q 504 878 442 878 q 649 853 592 878 q 706 757 706 829 q 703 733 706 751 q 692 675 700 714 q 669 567 683 636 q 633 392 656 499 q 578 132 610 285 q 578 69 572 93 q 624 44 583 44 q 656 52 639 44 q 688 74 674 60 m 278 44 q 386 83 333 44 q 484 193 439 122 q 558 357 529 264 q 615 625 594 522 q 636 750 636 728 q 605 801 636 788 q 504 814 574 814 q 400 776 454 814 q 294 676 346 739 q 203 535 243 613 q 138 376 163 457 q 114 221 114 294 q 159 93 114 142 q 278 44 204 44 m 538 979 q 407 1015 438 979 q 394 1139 376 1050 l 463 1139 q 460 1081 456 1101 q 483 1051 464 1060 q 540 1043 503 1043 q 608 1053 582 1043 q 650 1083 635 1063 q 672 1139 665 1104 l 740 1139 q 706 1042 728 1078 q 643 993 683 1007 q 538 979 603 979 m 685 1226 q 631 1242 653 1226 q 591 1280 608 1258 q 558 1317 574 1301 q 521 1333 542 1333 q 476 1313 489 1333 q 456 1263 463 1293 l 388 1263 q 438 1361 401 1325 q 522 1397 474 1397 q 574 1381 551 1397 q 614 1344 596 1365 q 649 1306 632 1322 q 686 1290 667 1290 q 731 1310 718 1290 q 750 1357 744 1329 l 818 1357 q 769 1262 806 1297 q 685 1226 733 1226 z "},"ǎ":{"ha":833,"x_min":44,"x_max":746,"o":"m 688 74 l 721 22 q 668 -8 701 4 q 599 -19 635 -19 q 529 3 556 -19 q 503 61 503 25 q 506 117 503 90 q 515 157 510 143 q 411 29 476 78 q 278 -19 346 -19 q 156 10 208 -19 q 74 94 103 40 q 44 221 44 149 q 72 397 44 306 q 146 574 99 489 q 252 728 193 660 q 376 838 311 797 q 504 878 442 878 q 649 853 592 878 q 706 757 706 829 q 703 733 706 751 q 692 675 700 714 q 669 567 683 636 q 633 392 656 499 q 578 132 610 285 q 578 69 572 93 q 624 44 583 44 q 656 52 639 44 q 688 74 674 60 m 278 44 q 386 83 333 44 q 484 193 439 122 q 558 357 529 264 q 615 625 594 522 q 636 750 636 728 q 605 801 636 788 q 504 814 574 814 q 400 776 454 814 q 294 676 346 739 q 203 535 243 613 q 138 376 163 457 q 114 221 114 294 q 159 93 114 142 q 278 44 204 44 m 532 963 l 383 1122 l 443 1164 l 547 1051 l 699 1167 l 746 1125 l 532 963 z "},"â":{"ha":833,"x_min":44,"x_max":721,"o":"m 688 74 l 721 22 q 668 -8 701 4 q 599 -19 635 -19 q 529 3 556 -19 q 503 61 503 25 q 506 117 503 90 q 515 157 510 143 q 411 29 476 78 q 278 -19 346 -19 q 156 10 208 -19 q 74 94 103 40 q 44 221 44 149 q 72 397 44 306 q 146 574 99 489 q 252 728 193 660 q 376 838 311 797 q 504 878 442 878 q 649 853 592 878 q 706 757 706 829 q 703 733 706 751 q 692 675 700 714 q 669 567 683 636 q 633 392 656 499 q 578 132 610 285 q 578 69 572 93 q 624 44 583 44 q 656 52 639 44 q 688 74 674 60 m 278 44 q 386 83 333 44 q 484 193 439 122 q 558 357 529 264 q 615 625 594 522 q 636 750 636 728 q 605 801 636 788 q 504 814 574 814 q 400 776 454 814 q 294 676 346 739 q 203 535 243 613 q 138 376 163 457 q 114 221 114 294 q 159 93 114 142 q 278 44 204 44 m 656 951 l 554 1067 l 403 954 l 357 996 l 569 1156 l 717 993 l 656 951 z "},"ấ":{"ha":833,"x_min":44,"x_max":796,"o":"m 688 74 l 721 22 q 668 -8 701 4 q 599 -19 635 -19 q 529 3 556 -19 q 503 61 503 25 q 506 117 503 90 q 515 157 510 143 q 411 29 476 78 q 278 -19 346 -19 q 156 10 208 -19 q 74 94 103 40 q 44 221 44 149 q 72 397 44 306 q 146 574 99 489 q 252 728 193 660 q 376 838 311 797 q 504 878 442 878 q 649 853 592 878 q 706 757 706 829 q 703 733 706 751 q 692 675 700 714 q 669 567 683 636 q 633 392 656 499 q 578 132 610 285 q 578 69 572 93 q 624 44 583 44 q 656 52 639 44 q 688 74 674 60 m 278 44 q 386 83 333 44 q 484 193 439 122 q 558 357 529 264 q 615 625 594 522 q 636 750 636 728 q 605 801 636 788 q 504 814 574 814 q 400 776 454 814 q 294 676 346 739 q 203 535 243 613 q 138 376 163 457 q 114 221 114 294 q 159 93 114 142 q 278 44 204 44 m 656 951 l 554 1067 l 403 954 l 357 996 l 569 1156 l 717 993 l 656 951 m 576 1239 l 539 1288 l 758 1451 l 796 1403 l 576 1239 z "},"ậ":{"ha":833,"x_min":44,"x_max":721,"o":"m 688 74 l 721 22 q 668 -8 701 4 q 599 -19 635 -19 q 529 3 556 -19 q 503 61 503 25 q 506 117 503 90 q 515 157 510 143 q 411 29 476 78 q 278 -19 346 -19 q 156 10 208 -19 q 74 94 103 40 q 44 221 44 149 q 72 397 44 306 q 146 574 99 489 q 252 728 193 660 q 376 838 311 797 q 504 878 442 878 q 649 853 592 878 q 706 757 706 829 q 703 733 706 751 q 692 675 700 714 q 669 567 683 636 q 633 392 656 499 q 578 132 610 285 q 578 69 572 93 q 624 44 583 44 q 656 52 639 44 q 688 74 674 60 m 278 44 q 386 83 333 44 q 484 193 439 122 q 558 357 529 264 q 615 625 594 522 q 636 750 636 728 q 605 801 636 788 q 504 814 574 814 q 400 776 454 814 q 294 676 346 739 q 203 535 243 613 q 138 376 163 457 q 114 221 114 294 q 159 93 114 142 q 278 44 204 44 m 267 -304 q 205 -287 219 -304 q 200 -228 190 -271 q 228 -174 210 -189 q 286 -160 247 -160 q 349 -176 335 -160 q 353 -236 363 -192 q 326 -290 344 -275 q 267 -304 307 -304 m 656 951 l 554 1067 l 403 954 l 357 996 l 569 1156 l 717 993 l 656 951 z "},"ầ":{"ha":833,"x_min":44,"x_max":721,"o":"m 688 74 l 721 22 q 668 -8 701 4 q 599 -19 635 -19 q 529 3 556 -19 q 503 61 503 25 q 506 117 503 90 q 515 157 510 143 q 411 29 476 78 q 278 -19 346 -19 q 156 10 208 -19 q 74 94 103 40 q 44 221 44 149 q 72 397 44 306 q 146 574 99 489 q 252 728 193 660 q 376 838 311 797 q 504 878 442 878 q 649 853 592 878 q 706 757 706 829 q 703 733 706 751 q 692 675 700 714 q 669 567 683 636 q 633 392 656 499 q 578 132 610 285 q 578 69 572 93 q 624 44 583 44 q 656 52 639 44 q 688 74 674 60 m 278 44 q 386 83 333 44 q 484 193 439 122 q 558 357 529 264 q 615 625 594 522 q 636 750 636 728 q 605 801 636 788 q 504 814 574 814 q 400 776 454 814 q 294 676 346 739 q 203 535 243 613 q 138 376 163 457 q 114 221 114 294 q 159 93 114 142 q 278 44 204 44 m 656 951 l 554 1067 l 403 954 l 357 996 l 569 1156 l 717 993 l 656 951 m 604 1239 l 449 1403 l 503 1451 l 658 1288 l 604 1239 z "},"ẩ":{"ha":833,"x_min":44,"x_max":736,"o":"m 688 74 l 721 22 q 668 -8 701 4 q 599 -19 635 -19 q 529 3 556 -19 q 503 61 503 25 q 506 117 503 90 q 515 157 510 143 q 411 29 476 78 q 278 -19 346 -19 q 156 10 208 -19 q 74 94 103 40 q 44 221 44 149 q 72 397 44 306 q 146 574 99 489 q 252 728 193 660 q 376 838 311 797 q 504 878 442 878 q 649 853 592 878 q 706 757 706 829 q 703 733 706 751 q 692 675 700 714 q 669 567 683 636 q 633 392 656 499 q 578 132 610 285 q 578 69 572 93 q 624 44 583 44 q 656 52 639 44 q 688 74 674 60 m 278 44 q 386 83 333 44 q 484 193 439 122 q 558 357 529 264 q 615 625 594 522 q 636 750 636 728 q 605 801 636 788 q 504 814 574 814 q 400 776 454 814 q 294 676 346 739 q 203 535 243 613 q 138 376 163 457 q 114 221 114 294 q 159 93 114 142 q 278 44 204 44 m 656 951 l 554 1067 l 403 954 l 357 996 l 569 1156 l 717 993 l 656 951 m 560 1194 l 550 1257 q 626 1291 599 1269 q 658 1335 653 1313 q 650 1365 663 1354 q 621 1376 638 1376 q 549 1358 586 1376 q 489 1324 513 1340 l 501 1404 q 562 1431 528 1421 q 622 1440 596 1440 q 706 1408 675 1440 q 725 1324 736 1376 q 675 1247 717 1282 q 560 1194 633 1211 z "},"ẫ":{"ha":833,"x_min":44,"x_max":825,"o":"m 688 74 l 721 22 q 668 -8 701 4 q 599 -19 635 -19 q 529 3 556 -19 q 503 61 503 25 q 506 117 503 90 q 515 157 510 143 q 411 29 476 78 q 278 -19 346 -19 q 156 10 208 -19 q 74 94 103 40 q 44 221 44 149 q 72 397 44 306 q 146 574 99 489 q 252 728 193 660 q 376 838 311 797 q 504 878 442 878 q 649 853 592 878 q 706 757 706 829 q 703 733 706 751 q 692 675 700 714 q 669 567 683 636 q 633 392 656 499 q 578 132 610 285 q 578 69 572 93 q 624 44 583 44 q 656 52 639 44 q 688 74 674 60 m 278 44 q 386 83 333 44 q 484 193 439 122 q 558 357 529 264 q 615 625 594 522 q 636 750 636 728 q 605 801 636 788 q 504 814 574 814 q 400 776 454 814 q 294 676 346 739 q 203 535 243 613 q 138 376 163 457 q 114 221 114 294 q 159 93 114 142 q 278 44 204 44 m 656 951 l 554 1067 l 403 954 l 357 996 l 569 1156 l 717 993 l 656 951 m 692 1258 q 638 1274 660 1258 q 598 1312 615 1290 q 565 1349 581 1333 q 528 1365 549 1365 q 483 1345 496 1365 q 463 1294 469 1325 l 394 1294 q 444 1393 408 1357 q 529 1429 481 1429 q 581 1413 558 1429 q 621 1376 603 1397 q 656 1338 639 1354 q 693 1322 674 1322 q 738 1342 725 1322 q 757 1389 751 1361 l 825 1389 q 776 1294 813 1329 q 692 1258 740 1258 z "},"ä":{"ha":833,"x_min":44,"x_max":792,"o":"m 688 74 l 721 22 q 668 -8 701 4 q 599 -19 635 -19 q 529 3 556 -19 q 503 61 503 25 q 506 117 503 90 q 515 157 510 143 q 411 29 476 78 q 278 -19 346 -19 q 156 10 208 -19 q 74 94 103 40 q 44 221 44 149 q 72 397 44 306 q 146 574 99 489 q 252 728 193 660 q 376 838 311 797 q 504 878 442 878 q 649 853 592 878 q 706 757 706 829 q 703 733 706 751 q 692 675 700 714 q 669 567 683 636 q 633 392 656 499 q 578 132 610 285 q 578 69 572 93 q 624 44 583 44 q 656 52 639 44 q 688 74 674 60 m 278 44 q 386 83 333 44 q 484 193 439 122 q 558 357 529 264 q 615 625 594 522 q 636 750 636 728 q 605 801 636 788 q 504 814 574 814 q 400 776 454 814 q 294 676 346 739 q 203 535 243 613 q 138 376 163 457 q 114 221 114 294 q 159 93 114 142 q 278 44 204 44 m 697 1017 q 637 1034 651 1017 q 632 1094 622 1051 q 656 1145 639 1132 q 715 1158 674 1158 q 776 1142 761 1158 q 782 1083 792 1125 q 756 1031 774 1044 q 697 1017 739 1017 m 397 1017 q 337 1034 351 1017 q 332 1094 322 1051 q 356 1145 339 1132 q 415 1158 374 1158 q 476 1142 461 1158 q 482 1083 492 1125 q 456 1031 474 1044 q 397 1017 439 1017 z "},"ạ":{"ha":833,"x_min":44,"x_max":721,"o":"m 688 74 l 721 22 q 668 -8 701 4 q 599 -19 635 -19 q 529 3 556 -19 q 503 61 503 25 q 506 117 503 90 q 515 157 510 143 q 411 29 476 78 q 278 -19 346 -19 q 156 10 208 -19 q 74 94 103 40 q 44 221 44 149 q 72 397 44 306 q 146 574 99 489 q 252 728 193 660 q 376 838 311 797 q 504 878 442 878 q 649 853 592 878 q 706 757 706 829 q 703 733 706 751 q 692 675 700 714 q 669 567 683 636 q 633 392 656 499 q 578 132 610 285 q 578 69 572 93 q 624 44 583 44 q 656 52 639 44 q 688 74 674 60 m 278 44 q 386 83 333 44 q 484 193 439 122 q 558 357 529 264 q 615 625 594 522 q 636 750 636 728 q 605 801 636 788 q 504 814 574 814 q 400 776 454 814 q 294 676 346 739 q 203 535 243 613 q 138 376 163 457 q 114 221 114 294 q 159 93 114 142 q 278 44 204 44 m 267 -304 q 205 -287 219 -304 q 200 -228 190 -271 q 228 -174 210 -189 q 286 -160 247 -160 q 349 -176 335 -160 q 353 -236 363 -192 q 326 -290 344 -275 q 267 -304 307 -304 z "},"à":{"ha":833,"x_min":44,"x_max":721,"o":"m 688 74 l 721 22 q 668 -8 701 4 q 599 -19 635 -19 q 529 3 556 -19 q 503 61 503 25 q 506 117 503 90 q 515 157 510 143 q 411 29 476 78 q 278 -19 346 -19 q 156 10 208 -19 q 74 94 103 40 q 44 221 44 149 q 72 397 44 306 q 146 574 99 489 q 252 728 193 660 q 376 838 311 797 q 504 878 442 878 q 649 853 592 878 q 706 757 706 829 q 703 733 706 751 q 692 675 700 714 q 669 567 683 636 q 633 392 656 499 q 578 132 610 285 q 578 69 572 93 q 624 44 583 44 q 656 52 639 44 q 688 74 674 60 m 278 44 q 386 83 333 44 q 484 193 439 122 q 558 357 529 264 q 615 625 594 522 q 636 750 636 728 q 605 801 636 788 q 504 814 574 814 q 400 776 454 814 q 294 676 346 739 q 203 535 243 613 q 138 376 163 457 q 114 221 114 294 q 159 93 114 142 q 278 44 204 44 m 544 954 l 389 1118 l 443 1167 l 599 1003 l 544 954 z "},"ả":{"ha":833,"x_min":44,"x_max":721,"o":"m 688 74 l 721 22 q 668 -8 701 4 q 599 -19 635 -19 q 529 3 556 -19 q 503 61 503 25 q 506 117 503 90 q 515 157 510 143 q 411 29 476 78 q 278 -19 346 -19 q 156 10 208 -19 q 74 94 103 40 q 44 221 44 149 q 72 397 44 306 q 146 574 99 489 q 252 728 193 660 q 376 838 311 797 q 504 878 442 878 q 649 853 592 878 q 706 757 706 829 q 703 733 706 751 q 692 675 700 714 q 669 567 683 636 q 633 392 656 499 q 578 132 610 285 q 578 69 572 93 q 624 44 583 44 q 656 52 639 44 q 688 74 674 60 m 278 44 q 386 83 333 44 q 484 193 439 122 q 558 357 529 264 q 615 625 594 522 q 636 750 636 728 q 605 801 636 788 q 504 814 574 814 q 400 776 454 814 q 294 676 346 739 q 203 535 243 613 q 138 376 163 457 q 114 221 114 294 q 159 93 114 142 q 278 44 204 44 m 500 910 l 490 972 q 566 1006 539 985 q 599 1050 593 1028 q 590 1081 603 1069 q 561 1092 578 1092 q 490 1074 526 1092 q 429 1039 453 1056 l 442 1119 q 502 1146 468 1136 q 563 1156 536 1156 q 646 1124 615 1156 q 665 1039 676 1092 q 615 962 657 997 q 500 910 574 926 z "},"ā":{"ha":833,"x_min":44,"x_max":743,"o":"m 688 74 l 721 22 q 668 -8 701 4 q 599 -19 635 -19 q 529 3 556 -19 q 503 61 503 25 q 506 117 503 90 q 515 157 510 143 q 411 29 476 78 q 278 -19 346 -19 q 156 10 208 -19 q 74 94 103 40 q 44 221 44 149 q 72 397 44 306 q 146 574 99 489 q 252 728 193 660 q 376 838 311 797 q 504 878 442 878 q 649 853 592 878 q 706 757 706 829 q 703 733 706 751 q 692 675 700 714 q 669 567 683 636 q 633 392 656 499 q 578 132 610 285 q 578 69 572 93 q 624 44 583 44 q 656 52 639 44 q 688 74 674 60 m 278 44 q 386 83 333 44 q 484 193 439 122 q 558 357 529 264 q 615 625 594 522 q 636 750 636 728 q 605 801 636 788 q 504 814 574 814 q 400 776 454 814 q 294 676 346 739 q 203 535 243 613 q 138 376 163 457 q 114 221 114 294 q 159 93 114 142 q 278 44 204 44 m 349 1006 l 363 1069 l 743 1069 l 729 1006 l 349 1006 z "},"ą":{"ha":833,"x_min":44,"x_max":721,"o":"m 688 74 l 721 22 q 668 -8 701 4 q 599 -19 635 -19 q 529 3 556 -19 q 503 61 503 25 q 506 117 503 90 q 515 157 510 143 q 411 29 476 78 q 278 -19 346 -19 q 156 10 208 -19 q 74 94 103 40 q 44 221 44 149 q 72 397 44 306 q 146 574 99 489 q 252 728 193 660 q 376 838 311 797 q 504 878 442 878 q 649 853 592 878 q 706 757 706 829 q 703 733 706 751 q 692 675 700 714 q 669 567 683 636 q 633 392 656 499 q 578 132 610 285 q 578 69 572 93 q 624 44 583 44 q 656 52 639 44 q 688 74 674 60 m 278 44 q 386 83 333 44 q 484 193 439 122 q 558 357 529 264 q 615 625 594 522 q 636 750 636 728 q 605 801 636 788 q 504 814 574 814 q 400 776 454 814 q 294 676 346 739 q 203 535 243 613 q 138 376 163 457 q 114 221 114 294 q 159 93 114 142 q 278 44 204 44 m 572 -269 q 467 -244 507 -269 q 426 -168 426 -219 q 457 -103 426 -135 q 538 -40 488 -71 q 643 17 588 -10 l 692 3 q 602 -49 647 -24 q 526 -101 557 -75 q 496 -154 496 -126 q 517 -191 496 -176 q 572 -206 538 -206 q 619 -196 594 -206 q 661 -172 643 -186 l 690 -231 q 637 -259 669 -249 q 572 -269 604 -269 z "},"å":{"ha":833,"x_min":44,"x_max":757,"o":"m 688 74 l 721 22 q 668 -8 701 4 q 599 -19 635 -19 q 529 3 556 -19 q 503 61 503 25 q 506 117 503 90 q 515 157 510 143 q 411 29 476 78 q 278 -19 346 -19 q 156 10 208 -19 q 74 94 103 40 q 44 221 44 149 q 72 397 44 306 q 146 574 99 489 q 252 728 193 660 q 376 838 311 797 q 504 878 442 878 q 649 853 592 878 q 706 757 706 829 q 703 733 706 751 q 692 675 700 714 q 669 567 683 636 q 633 392 656 499 q 578 132 610 285 q 578 69 572 93 q 624 44 583 44 q 656 52 639 44 q 688 74 674 60 m 278 44 q 386 83 333 44 q 484 193 439 122 q 558 357 529 264 q 615 625 594 522 q 636 750 636 728 q 605 801 636 788 q 504 814 574 814 q 400 776 454 814 q 294 676 346 739 q 203 535 243 613 q 138 376 163 457 q 114 221 114 294 q 159 93 114 142 q 278 44 204 44 m 535 965 q 403 1001 435 965 q 392 1131 372 1038 q 453 1252 411 1219 q 592 1285 496 1285 q 724 1249 690 1285 q 738 1119 757 1213 q 703 1027 725 1061 q 640 979 681 993 q 535 965 600 965 m 538 1029 q 629 1052 600 1029 q 669 1131 658 1075 q 664 1202 681 1183 q 589 1221 647 1221 q 500 1199 529 1221 q 460 1119 471 1176 q 465 1049 449 1068 q 538 1029 482 1029 z "},"ã":{"ha":833,"x_min":44,"x_max":765,"o":"m 688 74 l 721 22 q 668 -8 701 4 q 599 -19 635 -19 q 529 3 556 -19 q 503 61 503 25 q 506 117 503 90 q 515 157 510 143 q 411 29 476 78 q 278 -19 346 -19 q 156 10 208 -19 q 74 94 103 40 q 44 221 44 149 q 72 397 44 306 q 146 574 99 489 q 252 728 193 660 q 376 838 311 797 q 504 878 442 878 q 649 853 592 878 q 706 757 706 829 q 703 733 706 751 q 692 675 700 714 q 669 567 683 636 q 633 392 656 499 q 578 132 610 285 q 578 69 572 93 q 624 44 583 44 q 656 52 639 44 q 688 74 674 60 m 278 44 q 386 83 333 44 q 484 193 439 122 q 558 357 529 264 q 615 625 594 522 q 636 750 636 728 q 605 801 636 788 q 504 814 574 814 q 400 776 454 814 q 294 676 346 739 q 203 535 243 613 q 138 376 163 457 q 114 221 114 294 q 159 93 114 142 q 278 44 204 44 m 632 974 q 578 990 600 974 q 538 1027 556 1006 q 505 1065 521 1049 q 468 1081 489 1081 q 423 1060 436 1081 q 403 1010 410 1040 l 335 1010 q 385 1108 349 1072 q 469 1144 421 1144 q 521 1128 499 1144 q 561 1091 543 1113 q 597 1053 579 1069 q 633 1038 614 1038 q 678 1057 665 1038 q 697 1104 692 1076 l 765 1104 q 717 1009 753 1044 q 632 974 681 974 z "},"æ":{"ha":833,"x_min":-35,"x_max":839,"o":"m 133 -19 q 31 13 71 -19 q -22 102 -8 44 q -19 236 -35 160 q 86 420 6 351 q 274 489 167 489 l 394 489 l 414 585 q 415 751 435 688 q 338 814 394 814 q 242 775 292 814 q 158 672 193 736 l 92 694 q 161 791 121 750 q 247 855 201 832 q 339 878 293 878 q 435 833 396 878 q 483 714 475 788 q 583 833 524 788 q 699 878 643 878 q 796 822 761 878 q 835 663 831 765 q 810 425 839 561 l 449 425 q 422 226 426 311 q 442 92 417 140 q 538 44 468 44 q 593 59 563 44 q 651 99 624 74 q 689 160 678 125 l 740 117 q 684 44 721 75 q 607 -3 647 14 q 535 -19 567 -19 q 417 30 463 -19 q 367 164 371 79 q 305 69 344 110 q 219 4 265 28 q 133 -19 174 -19 m 135 44 q 228 76 185 44 q 305 167 272 108 q 354 303 338 225 l 381 428 l 267 428 q 128 372 188 428 q 49 225 68 317 q 56 94 32 144 q 135 44 79 44 m 463 489 l 756 489 q 770 659 772 586 q 750 773 768 732 q 697 814 732 814 q 602 773 649 814 q 519 659 556 732 q 463 489 483 586 z "},"b":{"ha":833,"x_min":93,"x_max":815,"o":"m 815 608 l 804 544 q 763 544 782 544 q 725 544 743 544 q 622 248 686 375 q 481 51 558 121 q 321 -19 403 -19 q 160 28 211 -19 q 101 163 108 76 q 114 364 93 249 l 274 1111 l 343 1111 l 183 364 q 165 197 165 268 q 200 85 165 125 q 322 44 235 44 q 449 108 386 44 q 565 285 511 171 q 657 550 619 399 q 553 581 593 550 q 513 672 513 613 q 543 752 513 719 q 631 785 574 785 q 725 742 701 785 q 738 608 749 699 q 775 608 756 608 q 815 608 794 608 m 571 678 q 597 628 571 643 q 667 613 624 613 q 672 669 672 642 q 662 714 672 696 q 624 732 651 732 q 583 715 596 732 q 571 678 571 697 z "},"c":{"ha":833,"x_min":74,"x_max":776,"o":"m 594 161 l 649 121 q 557 37 601 68 q 457 -7 513 6 q 319 -19 401 -19 q 149 22 207 -19 q 82 163 90 64 q 111 435 74 263 q 177 616 133 535 q 278 756 221 697 q 401 846 336 814 q 531 878 467 878 q 644 865 599 878 q 720 820 689 851 q 776 733 751 789 l 714 704 q 670 770 694 746 q 613 804 646 794 q 529 814 579 814 q 388 765 460 814 q 260 629 317 717 q 178 424 203 542 q 151 197 147 279 q 197 79 156 114 q 321 44 239 44 q 433 55 388 44 q 515 91 478 65 q 594 161 553 117 z "},"ć":{"ha":833,"x_min":74,"x_max":776,"o":"m 594 161 l 649 121 q 557 37 601 68 q 457 -7 513 6 q 319 -19 401 -19 q 149 22 207 -19 q 82 163 90 64 q 111 435 74 263 q 177 616 133 535 q 278 756 221 697 q 401 846 336 814 q 531 878 467 878 q 644 865 599 878 q 720 820 689 851 q 776 733 751 789 l 714 704 q 670 770 694 746 q 613 804 646 794 q 529 814 579 814 q 388 765 460 814 q 260 629 317 717 q 178 424 203 542 q 151 197 147 279 q 197 79 156 114 q 321 44 239 44 q 433 55 388 44 q 515 91 478 65 q 594 161 553 117 m 517 954 l 479 1003 l 699 1167 l 736 1118 l 517 954 z "},"č":{"ha":833,"x_min":74,"x_max":776,"o":"m 594 161 l 649 121 q 557 37 601 68 q 457 -7 513 6 q 319 -19 401 -19 q 149 22 207 -19 q 82 163 90 64 q 111 435 74 263 q 177 616 133 535 q 278 756 221 697 q 401 846 336 814 q 531 878 467 878 q 644 865 599 878 q 720 820 689 851 q 776 733 751 789 l 714 704 q 670 770 694 746 q 613 804 646 794 q 529 814 579 814 q 388 765 460 814 q 260 629 317 717 q 178 424 203 542 q 151 197 147 279 q 197 79 156 114 q 321 44 239 44 q 433 55 388 44 q 515 91 478 65 q 594 161 553 117 m 532 963 l 383 1122 l 443 1164 l 547 1051 l 699 1167 l 746 1125 l 532 963 z "},"ç":{"ha":833,"x_min":74,"x_max":776,"o":"m 594 161 l 649 121 q 557 37 601 68 q 457 -7 513 6 q 319 -19 401 -19 q 149 22 207 -19 q 82 163 90 64 q 111 435 74 263 q 177 616 133 535 q 278 756 221 697 q 401 846 336 814 q 531 878 467 878 q 644 865 599 878 q 720 820 689 851 q 776 733 751 789 l 714 704 q 670 770 694 746 q 613 804 646 794 q 529 814 579 814 q 388 765 460 814 q 260 629 317 717 q 178 424 203 542 q 151 197 147 279 q 197 79 156 114 q 321 44 239 44 q 433 55 388 44 q 515 91 478 65 q 594 161 553 117 m 260 -272 q 194 -261 225 -272 q 146 -232 164 -250 l 183 -176 q 220 -199 199 -190 q 261 -208 242 -208 q 324 -192 297 -208 q 356 -151 350 -176 q 335 -122 360 -132 q 264 -111 310 -111 l 286 7 l 356 7 l 340 -56 q 408 -95 385 -65 q 422 -162 431 -125 q 368 -242 413 -212 q 260 -272 324 -272 z "},"ĉ":{"ha":833,"x_min":74,"x_max":776,"o":"m 594 161 l 649 121 q 557 37 601 68 q 457 -7 513 6 q 319 -19 401 -19 q 149 22 207 -19 q 82 163 90 64 q 111 435 74 263 q 177 616 133 535 q 278 756 221 697 q 401 846 336 814 q 531 878 467 878 q 644 865 599 878 q 720 820 689 851 q 776 733 751 789 l 714 704 q 670 770 694 746 q 613 804 646 794 q 529 814 579 814 q 388 765 460 814 q 260 629 317 717 q 178 424 203 542 q 151 197 147 279 q 197 79 156 114 q 321 44 239 44 q 433 55 388 44 q 515 91 478 65 q 594 161 553 117 m 656 951 l 554 1067 l 403 954 l 357 996 l 569 1156 l 717 993 l 656 951 z "},"ċ":{"ha":833,"x_min":74,"x_max":776,"o":"m 594 161 l 649 121 q 557 37 601 68 q 457 -7 513 6 q 319 -19 401 -19 q 149 22 207 -19 q 82 163 90 64 q 111 435 74 263 q 177 616 133 535 q 278 756 221 697 q 401 846 336 814 q 531 878 467 878 q 644 865 599 878 q 720 820 689 851 q 776 733 751 789 l 714 704 q 670 770 694 746 q 613 804 646 794 q 529 814 579 814 q 388 765 460 814 q 260 629 317 717 q 178 424 203 542 q 151 197 147 279 q 197 79 156 114 q 321 44 239 44 q 433 55 388 44 q 515 91 478 65 q 594 161 553 117 m 551 1038 q 490 1054 504 1038 q 485 1114 475 1071 q 513 1167 494 1153 q 571 1182 532 1182 q 633 1166 619 1182 q 638 1106 647 1150 q 610 1052 629 1067 q 551 1038 592 1038 z "},"d":{"ha":833,"x_min":49,"x_max":826,"o":"m 664 44 q 697 52 679 44 q 728 74 714 60 l 761 22 q 708 -8 742 4 q 639 -19 675 -19 q 568 3 593 -19 q 543 75 543 26 q 433 3 506 25 q 265 -19 361 -19 q 112 22 164 -19 q 54 163 60 64 q 85 433 49 261 q 171 667 113 567 q 313 822 229 767 q 499 878 397 878 q 618 842 568 878 q 679 750 668 807 l 757 1111 l 826 1111 l 618 132 q 618 69 613 93 q 664 44 624 44 m 267 44 q 449 79 369 44 q 556 169 528 114 l 646 581 q 620 750 661 686 q 497 814 579 814 q 344 765 414 814 q 226 628 275 715 q 151 422 176 540 q 122 197 121 279 q 160 79 124 114 q 267 44 196 44 z "},"ð":{"ha":833,"x_min":58,"x_max":818,"o":"m 286 -19 q 132 15 186 -19 q 68 130 78 49 q 88 351 58 211 q 167 540 111 460 q 308 666 224 621 q 499 711 393 711 q 664 676 606 711 q 733 560 722 642 q 710 340 744 479 q 563 74 667 167 q 286 -19 460 -19 m 288 44 q 518 126 429 44 q 643 351 607 208 q 665 527 672 463 q 615 619 657 592 q 497 647 574 647 q 275 563 365 647 q 154 340 185 479 q 137 163 131 228 q 181 72 143 99 q 288 44 218 44 m 339 1047 l 346 1111 q 591 1073 497 1111 q 726 946 685 1035 q 763 710 768 857 q 711 343 758 563 l 643 349 q 690 682 685 547 q 661 897 696 817 q 547 1013 626 978 q 339 1047 467 1047 m 794 1111 l 818 1056 l 365 831 l 342 886 l 794 1111 z "},"ď":{"ha":833,"x_min":49,"x_max":969,"o":"m 664 44 q 697 52 679 44 q 728 74 714 60 l 761 22 q 708 -8 742 4 q 639 -19 675 -19 q 568 3 593 -19 q 543 75 543 26 q 433 3 506 25 q 265 -19 361 -19 q 112 22 164 -19 q 54 163 60 64 q 85 433 49 261 q 171 667 113 567 q 313 822 229 767 q 499 878 397 878 q 618 842 568 878 q 679 750 668 807 l 757 1111 l 826 1111 l 618 132 q 618 69 613 93 q 664 44 624 44 m 267 44 q 449 79 369 44 q 556 169 528 114 l 646 581 q 620 750 661 686 q 497 814 579 814 q 344 765 414 814 q 226 628 275 715 q 151 422 176 540 q 122 197 121 279 q 160 79 124 114 q 267 44 196 44 m 831 768 l 892 1110 l 969 1110 l 886 768 l 831 768 z "},"đ":{"ha":833,"x_min":49,"x_max":915,"o":"m 568 947 l 582 1011 l 915 1011 l 901 947 l 568 947 m 664 44 q 697 52 679 44 q 728 74 714 60 l 761 22 q 708 -8 742 4 q 639 -19 675 -19 q 568 3 593 -19 q 543 75 543 26 q 433 3 506 25 q 265 -19 361 -19 q 112 22 164 -19 q 54 163 60 64 q 85 433 49 261 q 171 667 113 567 q 313 822 229 767 q 499 878 397 878 q 618 842 568 878 q 679 750 668 807 l 757 1111 l 826 1111 l 618 132 q 618 69 613 93 q 664 44 624 44 m 267 44 q 449 79 369 44 q 556 169 528 114 l 646 581 q 620 750 661 686 q 497 814 579 814 q 344 765 414 814 q 226 628 275 715 q 151 422 176 540 q 122 197 121 279 q 160 79 124 114 q 267 44 196 44 z "},"e":{"ha":833,"x_min":24,"x_max":740,"o":"m 647 171 l 683 114 q 583 44 639 74 q 467 -3 526 14 q 353 -19 408 -19 q 238 12 289 -19 q 156 99 186 43 q 125 226 125 154 q 157 487 125 368 q 247 693 189 606 q 383 829 304 781 q 557 878 463 878 q 690 836 639 878 q 740 700 740 794 q 708 560 740 619 q 620 456 675 500 q 498 381 565 413 q 361 328 431 350 q 228 288 292 306 q 120 255 165 271 q 57 219 75 239 l 24 276 q 89 314 44 297 q 193 347 133 331 q 318 384 253 364 q 446 431 383 404 q 559 494 508 457 q 640 581 610 531 q 671 700 671 632 q 635 786 671 758 q 556 814 600 814 q 412 769 478 814 q 297 645 346 725 q 222 457 249 565 q 194 221 194 349 q 244 97 194 144 q 361 49 293 49 q 459 64 408 49 q 559 107 510 79 q 647 171 608 135 z "},"é":{"ha":833,"x_min":24,"x_max":740,"o":"m 647 171 l 683 114 q 583 44 639 74 q 467 -3 526 14 q 353 -19 408 -19 q 238 12 289 -19 q 156 99 186 43 q 125 226 125 154 q 157 487 125 368 q 247 693 189 606 q 383 829 304 781 q 557 878 463 878 q 690 836 639 878 q 740 700 740 794 q 708 560 740 619 q 620 456 675 500 q 498 381 565 413 q 361 328 431 350 q 228 288 292 306 q 120 255 165 271 q 57 219 75 239 l 24 276 q 89 314 44 297 q 193 347 133 331 q 318 384 253 364 q 446 431 383 404 q 559 494 508 457 q 640 581 610 531 q 671 700 671 632 q 635 786 671 758 q 556 814 600 814 q 412 769 478 814 q 297 645 346 725 q 222 457 249 565 q 194 221 194 349 q 244 97 194 144 q 361 49 293 49 q 459 64 408 49 q 559 107 510 79 q 647 171 608 135 m 517 954 l 479 1003 l 699 1167 l 736 1118 l 517 954 z "},"ě":{"ha":833,"x_min":24,"x_max":746,"o":"m 647 171 l 683 114 q 583 44 639 74 q 467 -3 526 14 q 353 -19 408 -19 q 238 12 289 -19 q 156 99 186 43 q 125 226 125 154 q 157 487 125 368 q 247 693 189 606 q 383 829 304 781 q 557 878 463 878 q 690 836 639 878 q 740 700 740 794 q 708 560 740 619 q 620 456 675 500 q 498 381 565 413 q 361 328 431 350 q 228 288 292 306 q 120 255 165 271 q 57 219 75 239 l 24 276 q 89 314 44 297 q 193 347 133 331 q 318 384 253 364 q 446 431 383 404 q 559 494 508 457 q 640 581 610 531 q 671 700 671 632 q 635 786 671 758 q 556 814 600 814 q 412 769 478 814 q 297 645 346 725 q 222 457 249 565 q 194 221 194 349 q 244 97 194 144 q 361 49 293 49 q 459 64 408 49 q 559 107 510 79 q 647 171 608 135 m 532 963 l 383 1122 l 443 1164 l 547 1051 l 699 1167 l 746 1125 l 532 963 z "},"ê":{"ha":833,"x_min":24,"x_max":740,"o":"m 647 171 l 683 114 q 583 44 639 74 q 467 -3 526 14 q 353 -19 408 -19 q 238 12 289 -19 q 156 99 186 43 q 125 226 125 154 q 157 487 125 368 q 247 693 189 606 q 383 829 304 781 q 557 878 463 878 q 690 836 639 878 q 740 700 740 794 q 708 560 740 619 q 620 456 675 500 q 498 381 565 413 q 361 328 431 350 q 228 288 292 306 q 120 255 165 271 q 57 219 75 239 l 24 276 q 89 314 44 297 q 193 347 133 331 q 318 384 253 364 q 446 431 383 404 q 559 494 508 457 q 640 581 610 531 q 671 700 671 632 q 635 786 671 758 q 556 814 600 814 q 412 769 478 814 q 297 645 346 725 q 222 457 249 565 q 194 221 194 349 q 244 97 194 144 q 361 49 293 49 q 459 64 408 49 q 559 107 510 79 q 647 171 608 135 m 656 951 l 554 1067 l 403 954 l 357 996 l 569 1156 l 717 993 l 656 951 z "},"ế":{"ha":833,"x_min":24,"x_max":796,"o":"m 647 171 l 683 114 q 583 44 639 74 q 467 -3 526 14 q 353 -19 408 -19 q 238 12 289 -19 q 156 99 186 43 q 125 226 125 154 q 157 487 125 368 q 247 693 189 606 q 383 829 304 781 q 557 878 463 878 q 690 836 639 878 q 740 700 740 794 q 708 560 740 619 q 620 456 675 500 q 498 381 565 413 q 361 328 431 350 q 228 288 292 306 q 120 255 165 271 q 57 219 75 239 l 24 276 q 89 314 44 297 q 193 347 133 331 q 318 384 253 364 q 446 431 383 404 q 559 494 508 457 q 640 581 610 531 q 671 700 671 632 q 635 786 671 758 q 556 814 600 814 q 412 769 478 814 q 297 645 346 725 q 222 457 249 565 q 194 221 194 349 q 244 97 194 144 q 361 49 293 49 q 459 64 408 49 q 559 107 510 79 q 647 171 608 135 m 656 951 l 554 1067 l 403 954 l 357 996 l 569 1156 l 717 993 l 656 951 m 576 1239 l 539 1288 l 758 1451 l 796 1403 l 576 1239 z "},"ệ":{"ha":833,"x_min":24,"x_max":740,"o":"m 647 171 l 683 114 q 583 44 639 74 q 467 -3 526 14 q 353 -19 408 -19 q 238 12 289 -19 q 156 99 186 43 q 125 226 125 154 q 157 487 125 368 q 247 693 189 606 q 383 829 304 781 q 557 878 463 878 q 690 836 639 878 q 740 700 740 794 q 708 560 740 619 q 620 456 675 500 q 498 381 565 413 q 361 328 431 350 q 228 288 292 306 q 120 255 165 271 q 57 219 75 239 l 24 276 q 89 314 44 297 q 193 347 133 331 q 318 384 253 364 q 446 431 383 404 q 559 494 508 457 q 640 581 610 531 q 671 700 671 632 q 635 786 671 758 q 556 814 600 814 q 412 769 478 814 q 297 645 346 725 q 222 457 249 565 q 194 221 194 349 q 244 97 194 144 q 361 49 293 49 q 459 64 408 49 q 559 107 510 79 q 647 171 608 135 m 267 -304 q 205 -287 219 -304 q 200 -228 190 -271 q 228 -174 210 -189 q 286 -160 247 -160 q 349 -176 335 -160 q 353 -236 363 -192 q 326 -290 344 -275 q 267 -304 307 -304 m 656 951 l 554 1067 l 403 954 l 357 996 l 569 1156 l 717 993 l 656 951 z "},"ề":{"ha":833,"x_min":24,"x_max":740,"o":"m 647 171 l 683 114 q 583 44 639 74 q 467 -3 526 14 q 353 -19 408 -19 q 238 12 289 -19 q 156 99 186 43 q 125 226 125 154 q 157 487 125 368 q 247 693 189 606 q 383 829 304 781 q 557 878 463 878 q 690 836 639 878 q 740 700 740 794 q 708 560 740 619 q 620 456 675 500 q 498 381 565 413 q 361 328 431 350 q 228 288 292 306 q 120 255 165 271 q 57 219 75 239 l 24 276 q 89 314 44 297 q 193 347 133 331 q 318 384 253 364 q 446 431 383 404 q 559 494 508 457 q 640 581 610 531 q 671 700 671 632 q 635 786 671 758 q 556 814 600 814 q 412 769 478 814 q 297 645 346 725 q 222 457 249 565 q 194 221 194 349 q 244 97 194 144 q 361 49 293 49 q 459 64 408 49 q 559 107 510 79 q 647 171 608 135 m 656 951 l 554 1067 l 403 954 l 357 996 l 569 1156 l 717 993 l 656 951 m 604 1239 l 449 1403 l 503 1451 l 658 1288 l 604 1239 z "},"ể":{"ha":833,"x_min":24,"x_max":740,"o":"m 647 171 l 683 114 q 583 44 639 74 q 467 -3 526 14 q 353 -19 408 -19 q 238 12 289 -19 q 156 99 186 43 q 125 226 125 154 q 157 487 125 368 q 247 693 189 606 q 383 829 304 781 q 557 878 463 878 q 690 836 639 878 q 740 700 740 794 q 708 560 740 619 q 620 456 675 500 q 498 381 565 413 q 361 328 431 350 q 228 288 292 306 q 120 255 165 271 q 57 219 75 239 l 24 276 q 89 314 44 297 q 193 347 133 331 q 318 384 253 364 q 446 431 383 404 q 559 494 508 457 q 640 581 610 531 q 671 700 671 632 q 635 786 671 758 q 556 814 600 814 q 412 769 478 814 q 297 645 346 725 q 222 457 249 565 q 194 221 194 349 q 244 97 194 144 q 361 49 293 49 q 459 64 408 49 q 559 107 510 79 q 647 171 608 135 m 656 951 l 554 1067 l 403 954 l 357 996 l 569 1156 l 717 993 l 656 951 m 560 1194 l 550 1257 q 626 1291 599 1269 q 658 1335 653 1313 q 650 1365 663 1354 q 621 1376 638 1376 q 549 1358 586 1376 q 489 1324 513 1340 l 501 1404 q 562 1431 528 1421 q 622 1440 596 1440 q 706 1408 675 1440 q 725 1324 736 1376 q 675 1247 717 1282 q 560 1194 633 1211 z "},"ễ":{"ha":833,"x_min":24,"x_max":825,"o":"m 647 171 l 683 114 q 583 44 639 74 q 467 -3 526 14 q 353 -19 408 -19 q 238 12 289 -19 q 156 99 186 43 q 125 226 125 154 q 157 487 125 368 q 247 693 189 606 q 383 829 304 781 q 557 878 463 878 q 690 836 639 878 q 740 700 740 794 q 708 560 740 619 q 620 456 675 500 q 498 381 565 413 q 361 328 431 350 q 228 288 292 306 q 120 255 165 271 q 57 219 75 239 l 24 276 q 89 314 44 297 q 193 347 133 331 q 318 384 253 364 q 446 431 383 404 q 559 494 508 457 q 640 581 610 531 q 671 700 671 632 q 635 786 671 758 q 556 814 600 814 q 412 769 478 814 q 297 645 346 725 q 222 457 249 565 q 194 221 194 349 q 244 97 194 144 q 361 49 293 49 q 459 64 408 49 q 559 107 510 79 q 647 171 608 135 m 656 951 l 554 1067 l 403 954 l 357 996 l 569 1156 l 717 993 l 656 951 m 692 1258 q 638 1274 660 1258 q 598 1312 615 1290 q 565 1349 581 1333 q 528 1365 549 1365 q 483 1345 496 1365 q 463 1294 469 1325 l 394 1294 q 444 1393 408 1357 q 529 1429 481 1429 q 581 1413 558 1429 q 621 1376 603 1397 q 656 1338 639 1354 q 693 1322 674 1322 q 738 1342 725 1322 q 757 1389 751 1361 l 825 1389 q 776 1294 813 1329 q 692 1258 740 1258 z "},"ë":{"ha":833,"x_min":24,"x_max":792,"o":"m 647 171 l 683 114 q 583 44 639 74 q 467 -3 526 14 q 353 -19 408 -19 q 238 12 289 -19 q 156 99 186 43 q 125 226 125 154 q 157 487 125 368 q 247 693 189 606 q 383 829 304 781 q 557 878 463 878 q 690 836 639 878 q 740 700 740 794 q 708 560 740 619 q 620 456 675 500 q 498 381 565 413 q 361 328 431 350 q 228 288 292 306 q 120 255 165 271 q 57 219 75 239 l 24 276 q 89 314 44 297 q 193 347 133 331 q 318 384 253 364 q 446 431 383 404 q 559 494 508 457 q 640 581 610 531 q 671 700 671 632 q 635 786 671 758 q 556 814 600 814 q 412 769 478 814 q 297 645 346 725 q 222 457 249 565 q 194 221 194 349 q 244 97 194 144 q 361 49 293 49 q 459 64 408 49 q 559 107 510 79 q 647 171 608 135 m 697 1017 q 637 1034 651 1017 q 632 1094 622 1051 q 656 1145 639 1132 q 715 1158 674 1158 q 776 1142 761 1158 q 782 1083 792 1125 q 756 1031 774 1044 q 697 1017 739 1017 m 397 1017 q 337 1034 351 1017 q 332 1094 322 1051 q 356 1145 339 1132 q 415 1158 374 1158 q 476 1142 461 1158 q 482 1083 492 1125 q 456 1031 474 1044 q 397 1017 439 1017 z "},"ė":{"ha":833,"x_min":24,"x_max":740,"o":"m 647 171 l 683 114 q 583 44 639 74 q 467 -3 526 14 q 353 -19 408 -19 q 238 12 289 -19 q 156 99 186 43 q 125 226 125 154 q 157 487 125 368 q 247 693 189 606 q 383 829 304 781 q 557 878 463 878 q 690 836 639 878 q 740 700 740 794 q 708 560 740 619 q 620 456 675 500 q 498 381 565 413 q 361 328 431 350 q 228 288 292 306 q 120 255 165 271 q 57 219 75 239 l 24 276 q 89 314 44 297 q 193 347 133 331 q 318 384 253 364 q 446 431 383 404 q 559 494 508 457 q 640 581 610 531 q 671 700 671 632 q 635 786 671 758 q 556 814 600 814 q 412 769 478 814 q 297 645 346 725 q 222 457 249 565 q 194 221 194 349 q 244 97 194 144 q 361 49 293 49 q 459 64 408 49 q 559 107 510 79 q 647 171 608 135 m 551 1038 q 490 1054 504 1038 q 485 1114 475 1071 q 513 1167 494 1153 q 571 1182 532 1182 q 633 1166 619 1182 q 638 1106 647 1150 q 610 1052 629 1067 q 551 1038 592 1038 z "},"ẹ":{"ha":833,"x_min":24,"x_max":740,"o":"m 647 171 l 683 114 q 583 44 639 74 q 467 -3 526 14 q 353 -19 408 -19 q 238 12 289 -19 q 156 99 186 43 q 125 226 125 154 q 157 487 125 368 q 247 693 189 606 q 383 829 304 781 q 557 878 463 878 q 690 836 639 878 q 740 700 740 794 q 708 560 740 619 q 620 456 675 500 q 498 381 565 413 q 361 328 431 350 q 228 288 292 306 q 120 255 165 271 q 57 219 75 239 l 24 276 q 89 314 44 297 q 193 347 133 331 q 318 384 253 364 q 446 431 383 404 q 559 494 508 457 q 640 581 610 531 q 671 700 671 632 q 635 786 671 758 q 556 814 600 814 q 412 769 478 814 q 297 645 346 725 q 222 457 249 565 q 194 221 194 349 q 244 97 194 144 q 361 49 293 49 q 459 64 408 49 q 559 107 510 79 q 647 171 608 135 m 267 -304 q 205 -287 219 -304 q 200 -228 190 -271 q 228 -174 210 -189 q 286 -160 247 -160 q 349 -176 335 -160 q 353 -236 363 -192 q 326 -290 344 -275 q 267 -304 307 -304 z "},"è":{"ha":833,"x_min":24,"x_max":740,"o":"m 647 171 l 683 114 q 583 44 639 74 q 467 -3 526 14 q 353 -19 408 -19 q 238 12 289 -19 q 156 99 186 43 q 125 226 125 154 q 157 487 125 368 q 247 693 189 606 q 383 829 304 781 q 557 878 463 878 q 690 836 639 878 q 740 700 740 794 q 708 560 740 619 q 620 456 675 500 q 498 381 565 413 q 361 328 431 350 q 228 288 292 306 q 120 255 165 271 q 57 219 75 239 l 24 276 q 89 314 44 297 q 193 347 133 331 q 318 384 253 364 q 446 431 383 404 q 559 494 508 457 q 640 581 610 531 q 671 700 671 632 q 635 786 671 758 q 556 814 600 814 q 412 769 478 814 q 297 645 346 725 q 222 457 249 565 q 194 221 194 349 q 244 97 194 144 q 361 49 293 49 q 459 64 408 49 q 559 107 510 79 q 647 171 608 135 m 544 954 l 389 1118 l 443 1167 l 599 1003 l 544 954 z "},"ẻ":{"ha":833,"x_min":24,"x_max":740,"o":"m 647 171 l 683 114 q 583 44 639 74 q 467 -3 526 14 q 353 -19 408 -19 q 238 12 289 -19 q 156 99 186 43 q 125 226 125 154 q 157 487 125 368 q 247 693 189 606 q 383 829 304 781 q 557 878 463 878 q 690 836 639 878 q 740 700 740 794 q 708 560 740 619 q 620 456 675 500 q 498 381 565 413 q 361 328 431 350 q 228 288 292 306 q 120 255 165 271 q 57 219 75 239 l 24 276 q 89 314 44 297 q 193 347 133 331 q 318 384 253 364 q 446 431 383 404 q 559 494 508 457 q 640 581 610 531 q 671 700 671 632 q 635 786 671 758 q 556 814 600 814 q 412 769 478 814 q 297 645 346 725 q 222 457 249 565 q 194 221 194 349 q 244 97 194 144 q 361 49 293 49 q 459 64 408 49 q 559 107 510 79 q 647 171 608 135 m 500 910 l 490 972 q 566 1006 539 985 q 599 1050 593 1028 q 590 1081 603 1069 q 561 1092 578 1092 q 490 1074 526 1092 q 429 1039 453 1056 l 442 1119 q 502 1146 468 1136 q 563 1156 536 1156 q 646 1124 615 1156 q 665 1039 676 1092 q 615 962 657 997 q 500 910 574 926 z "},"ē":{"ha":833,"x_min":24,"x_max":743,"o":"m 647 171 l 683 114 q 583 44 639 74 q 467 -3 526 14 q 353 -19 408 -19 q 238 12 289 -19 q 156 99 186 43 q 125 226 125 154 q 157 487 125 368 q 247 693 189 606 q 383 829 304 781 q 557 878 463 878 q 690 836 639 878 q 740 700 740 794 q 708 560 740 619 q 620 456 675 500 q 498 381 565 413 q 361 328 431 350 q 228 288 292 306 q 120 255 165 271 q 57 219 75 239 l 24 276 q 89 314 44 297 q 193 347 133 331 q 318 384 253 364 q 446 431 383 404 q 559 494 508 457 q 640 581 610 531 q 671 700 671 632 q 635 786 671 758 q 556 814 600 814 q 412 769 478 814 q 297 645 346 725 q 222 457 249 565 q 194 221 194 349 q 244 97 194 144 q 361 49 293 49 q 459 64 408 49 q 559 107 510 79 q 647 171 608 135 m 349 1006 l 363 1069 l 743 1069 l 729 1006 l 349 1006 z "},"ę":{"ha":833,"x_min":24,"x_max":740,"o":"m 647 171 l 683 114 q 583 44 639 74 q 467 -3 526 14 q 353 -19 408 -19 q 238 12 289 -19 q 156 99 186 43 q 125 226 125 154 q 157 487 125 368 q 247 693 189 606 q 383 829 304 781 q 557 878 463 878 q 690 836 639 878 q 740 700 740 794 q 708 560 740 619 q 620 456 675 500 q 498 381 565 413 q 361 328 431 350 q 228 288 292 306 q 120 255 165 271 q 57 219 75 239 l 24 276 q 89 314 44 297 q 193 347 133 331 q 318 384 253 364 q 446 431 383 404 q 559 494 508 457 q 640 581 610 531 q 671 700 671 632 q 635 786 671 758 q 556 814 600 814 q 412 769 478 814 q 297 645 346 725 q 222 457 249 565 q 194 221 194 349 q 244 97 194 144 q 361 49 293 49 q 459 64 408 49 q 559 107 510 79 q 647 171 608 135 m 415 -251 q 310 -226 350 -251 q 269 -150 269 -201 q 300 -85 269 -117 q 381 -22 331 -53 q 486 35 431 8 l 535 21 q 445 -31 490 -6 q 369 -83 400 -57 q 339 -136 339 -108 q 360 -173 339 -158 q 415 -187 381 -187 q 462 -178 438 -187 q 504 -154 486 -168 l 533 -212 q 480 -241 513 -231 q 415 -251 447 -251 z "},"ẽ":{"ha":833,"x_min":24,"x_max":765,"o":"m 647 171 l 683 114 q 583 44 639 74 q 467 -3 526 14 q 353 -19 408 -19 q 238 12 289 -19 q 156 99 186 43 q 125 226 125 154 q 157 487 125 368 q 247 693 189 606 q 383 829 304 781 q 557 878 463 878 q 690 836 639 878 q 740 700 740 794 q 708 560 740 619 q 620 456 675 500 q 498 381 565 413 q 361 328 431 350 q 228 288 292 306 q 120 255 165 271 q 57 219 75 239 l 24 276 q 89 314 44 297 q 193 347 133 331 q 318 384 253 364 q 446 431 383 404 q 559 494 508 457 q 640 581 610 531 q 671 700 671 632 q 635 786 671 758 q 556 814 600 814 q 412 769 478 814 q 297 645 346 725 q 222 457 249 565 q 194 221 194 349 q 244 97 194 144 q 361 49 293 49 q 459 64 408 49 q 559 107 510 79 q 647 171 608 135 m 632 974 q 578 990 600 974 q 538 1027 556 1006 q 505 1065 521 1049 q 468 1081 489 1081 q 423 1060 436 1081 q 403 1010 410 1040 l 335 1010 q 385 1108 349 1072 q 469 1144 421 1144 q 521 1128 499 1144 q 561 1091 543 1113 q 597 1053 579 1069 q 633 1038 614 1038 q 678 1057 665 1038 q 697 1104 692 1076 l 765 1104 q 717 1009 753 1044 q 632 974 681 974 z "},"f":{"ha":833,"x_min":89,"x_max":843,"o":"m 260 -286 q 164 -247 200 -286 q 128 -143 128 -207 q 141 10 128 -82 q 178 211 154 103 q 232 431 201 319 q 128 499 168 468 q 89 563 89 531 q 115 600 89 586 q 193 614 140 614 l 290 614 q 385 885 338 769 q 491 1066 432 1001 q 631 1131 550 1131 q 781 1079 733 1131 q 843 942 829 1028 l 779 919 q 742 1026 769 986 q 642 1067 715 1067 q 528 1010 575 1067 q 443 852 482 954 q 360 614 404 750 l 708 614 l 694 550 l 338 550 q 324 512 332 536 q 310 464 317 488 q 461 305 404 392 q 518 108 518 218 q 486 -99 518 -10 q 396 -237 454 -187 q 260 -286 338 -286 m 258 -222 q 358 -181 315 -222 q 425 -65 401 -140 q 449 108 449 10 q 405 267 449 199 q 288 394 361 335 q 240 195 261 296 q 208 7 219 94 q 197 -143 197 -81 q 215 -200 197 -178 q 258 -222 232 -222 m 250 492 l 269 550 q 226 554 253 550 q 176 561 199 558 q 149 557 153 564 q 160 538 143 550 q 203 515 176 526 q 250 492 229 503 z "},"g":{"ha":833,"x_min":11,"x_max":769,"o":"m 160 -286 q 52 -259 93 -286 q 11 -189 11 -232 q 73 -103 11 -139 q 249 -47 135 -67 q 521 -28 364 -28 q 556 58 542 6 q 576 150 569 111 q 523 106 565 125 q 427 75 481 86 q 326 64 374 64 q 157 130 221 64 q 93 304 93 196 q 122 472 93 389 q 199 628 150 556 q 310 758 249 701 q 439 846 372 814 q 568 878 506 878 q 713 853 656 878 q 769 757 769 829 q 762 697 769 743 q 741 583 754 650 q 711 440 728 517 q 676 286 694 363 q 642 144 658 210 q 613 32 626 78 q 593 -28 600 -14 q 651 -26 624 -28 q 713 -15 678 -25 l 699 -78 q 627 -89 664 -87 q 563 -90 590 -90 q 466 -193 528 -149 q 325 -262 404 -237 q 160 -286 246 -286 m 176 -222 q 348 -186 263 -222 q 485 -90 433 -150 q 273 -107 364 -93 q 131 -142 182 -121 q 81 -189 81 -162 q 107 -212 81 -203 q 176 -222 133 -222 m 326 128 q 465 140 408 128 q 558 190 522 151 q 610 304 593 228 q 677 617 654 507 q 700 750 700 728 q 686 795 700 782 q 644 811 672 808 q 568 814 615 814 q 462 785 518 814 q 353 705 406 756 q 257 589 300 654 q 188 451 214 524 q 163 304 163 378 q 208 176 163 225 q 326 128 253 128 z "},"ğ":{"ha":833,"x_min":11,"x_max":769,"o":"m 160 -286 q 52 -259 93 -286 q 11 -189 11 -232 q 73 -103 11 -139 q 249 -47 135 -67 q 521 -28 364 -28 q 556 58 542 6 q 576 150 569 111 q 523 106 565 125 q 427 75 481 86 q 326 64 374 64 q 157 130 221 64 q 93 304 93 196 q 122 472 93 389 q 199 628 150 556 q 310 758 249 701 q 439 846 372 814 q 568 878 506 878 q 713 853 656 878 q 769 757 769 829 q 762 697 769 743 q 741 583 754 650 q 711 440 728 517 q 676 286 694 363 q 642 144 658 210 q 613 32 626 78 q 593 -28 600 -14 q 651 -26 624 -28 q 713 -15 678 -25 l 699 -78 q 627 -89 664 -87 q 563 -90 590 -90 q 466 -193 528 -149 q 325 -262 404 -237 q 160 -286 246 -286 m 176 -222 q 348 -186 263 -222 q 485 -90 433 -150 q 273 -107 364 -93 q 131 -142 182 -121 q 81 -189 81 -162 q 107 -212 81 -203 q 176 -222 133 -222 m 326 128 q 465 140 408 128 q 558 190 522 151 q 610 304 593 228 q 677 617 654 507 q 700 750 700 728 q 686 795 700 782 q 644 811 672 808 q 568 814 615 814 q 462 785 518 814 q 353 705 406 756 q 257 589 300 654 q 188 451 214 524 q 163 304 163 378 q 208 176 163 225 q 326 128 253 128 m 551 979 q 421 1015 451 979 q 408 1139 390 1050 l 476 1139 q 474 1081 469 1101 q 497 1051 478 1060 q 554 1043 517 1043 q 622 1053 596 1043 q 664 1083 649 1063 q 686 1139 679 1104 l 754 1139 q 719 1042 742 1078 q 657 993 697 1007 q 551 979 617 979 z "},"ĝ":{"ha":833,"x_min":11,"x_max":769,"o":"m 160 -286 q 52 -259 93 -286 q 11 -189 11 -232 q 73 -103 11 -139 q 249 -47 135 -67 q 521 -28 364 -28 q 556 58 542 6 q 576 150 569 111 q 523 106 565 125 q 427 75 481 86 q 326 64 374 64 q 157 130 221 64 q 93 304 93 196 q 122 472 93 389 q 199 628 150 556 q 310 758 249 701 q 439 846 372 814 q 568 878 506 878 q 713 853 656 878 q 769 757 769 829 q 762 697 769 743 q 741 583 754 650 q 711 440 728 517 q 676 286 694 363 q 642 144 658 210 q 613 32 626 78 q 593 -28 600 -14 q 651 -26 624 -28 q 713 -15 678 -25 l 699 -78 q 627 -89 664 -87 q 563 -90 590 -90 q 466 -193 528 -149 q 325 -262 404 -237 q 160 -286 246 -286 m 176 -222 q 348 -186 263 -222 q 485 -90 433 -150 q 273 -107 364 -93 q 131 -142 182 -121 q 81 -189 81 -162 q 107 -212 81 -203 q 176 -222 133 -222 m 326 128 q 465 140 408 128 q 558 190 522 151 q 610 304 593 228 q 677 617 654 507 q 700 750 700 728 q 686 795 700 782 q 644 811 672 808 q 568 814 615 814 q 462 785 518 814 q 353 705 406 756 q 257 589 300 654 q 188 451 214 524 q 163 304 163 378 q 208 176 163 225 q 326 128 253 128 m 669 951 l 568 1067 l 417 954 l 371 996 l 583 1156 l 731 993 l 669 951 z "},"ģ":{"ha":833,"x_min":11,"x_max":769,"o":"m 160 -286 q 52 -259 93 -286 q 11 -189 11 -232 q 73 -103 11 -139 q 249 -47 135 -67 q 521 -28 364 -28 q 556 58 542 6 q 576 150 569 111 q 523 106 565 125 q 427 75 481 86 q 326 64 374 64 q 157 130 221 64 q 93 304 93 196 q 122 472 93 389 q 199 628 150 556 q 310 758 249 701 q 439 846 372 814 q 568 878 506 878 q 713 853 656 878 q 769 757 769 829 q 762 697 769 743 q 741 583 754 650 q 711 440 728 517 q 676 286 694 363 q 642 144 658 210 q 613 32 626 78 q 593 -28 600 -14 q 651 -26 624 -28 q 713 -15 678 -25 l 699 -78 q 627 -89 664 -87 q 563 -90 590 -90 q 466 -193 528 -149 q 325 -262 404 -237 q 160 -286 246 -286 m 176 -222 q 348 -186 263 -222 q 485 -90 433 -150 q 273 -107 364 -93 q 131 -142 182 -121 q 81 -189 81 -162 q 107 -212 81 -203 q 176 -222 133 -222 m 326 128 q 465 140 408 128 q 558 190 522 151 q 610 304 593 228 q 677 617 654 507 q 700 750 700 728 q 686 795 700 782 q 644 811 672 808 q 568 814 615 814 q 462 785 518 814 q 353 705 406 756 q 257 589 300 654 q 188 451 214 524 q 163 304 163 378 q 208 176 163 225 q 326 128 253 128 m 531 917 q 483 930 494 917 q 478 978 471 943 q 506 1042 483 1004 q 560 1120 529 1079 q 622 1197 592 1161 l 674 1194 l 568 1026 q 594 967 607 1021 q 576 926 589 936 q 531 917 563 917 z "},"ġ":{"ha":833,"x_min":11,"x_max":769,"o":"m 160 -286 q 52 -259 93 -286 q 11 -189 11 -232 q 73 -103 11 -139 q 249 -47 135 -67 q 521 -28 364 -28 q 556 58 542 6 q 576 150 569 111 q 523 106 565 125 q 427 75 481 86 q 326 64 374 64 q 157 130 221 64 q 93 304 93 196 q 122 472 93 389 q 199 628 150 556 q 310 758 249 701 q 439 846 372 814 q 568 878 506 878 q 713 853 656 878 q 769 757 769 829 q 762 697 769 743 q 741 583 754 650 q 711 440 728 517 q 676 286 694 363 q 642 144 658 210 q 613 32 626 78 q 593 -28 600 -14 q 651 -26 624 -28 q 713 -15 678 -25 l 699 -78 q 627 -89 664 -87 q 563 -90 590 -90 q 466 -193 528 -149 q 325 -262 404 -237 q 160 -286 246 -286 m 176 -222 q 348 -186 263 -222 q 485 -90 433 -150 q 273 -107 364 -93 q 131 -142 182 -121 q 81 -189 81 -162 q 107 -212 81 -203 q 176 -222 133 -222 m 326 128 q 465 140 408 128 q 558 190 522 151 q 610 304 593 228 q 677 617 654 507 q 700 750 700 728 q 686 795 700 782 q 644 811 672 808 q 568 814 615 814 q 462 785 518 814 q 353 705 406 756 q 257 589 300 654 q 188 451 214 524 q 163 304 163 378 q 208 176 163 225 q 326 128 253 128 m 565 1038 q 503 1054 518 1038 q 499 1114 489 1071 q 527 1167 508 1153 q 585 1182 546 1182 q 647 1166 633 1182 q 651 1106 661 1150 q 624 1052 643 1067 q 565 1038 606 1038 z "},"h":{"ha":833,"x_min":21,"x_max":758,"o":"m 707 74 l 740 22 q 688 -8 721 4 q 618 -19 654 -19 q 547 3 574 -19 q 519 61 519 25 q 534 176 519 100 q 574 351 549 251 q 633 563 600 451 q 646 756 675 699 q 532 814 617 814 q 440 787 486 814 q 351 714 394 760 q 272 614 308 668 q 211 503 236 560 q 176 400 186 447 l 92 0 l 21 0 l 257 1111 l 326 1111 l 222 622 q 363 806 282 733 q 533 878 443 878 q 710 802 661 878 q 703 557 758 726 q 644 362 669 454 q 606 199 619 269 q 592 90 592 128 q 606 57 592 69 q 643 44 621 44 q 676 52 658 44 q 707 74 693 60 z "},"ħ":{"ha":833,"x_min":21,"x_max":758,"o":"m 138 947 l 151 1011 l 485 1011 l 471 947 l 138 947 m 707 74 l 740 22 q 688 -8 721 4 q 618 -19 654 -19 q 547 3 574 -19 q 519 61 519 25 q 534 176 519 100 q 574 351 549 251 q 633 563 600 451 q 646 756 675 699 q 532 814 617 814 q 440 787 486 814 q 351 714 394 760 q 272 614 308 668 q 211 503 236 560 q 176 400 186 447 l 92 0 l 21 0 l 257 1111 l 326 1111 l 222 622 q 363 806 282 733 q 533 878 443 878 q 710 802 661 878 q 703 557 758 726 q 644 362 669 454 q 606 199 619 269 q 592 90 592 128 q 606 57 592 69 q 643 44 621 44 q 676 52 658 44 q 707 74 693 60 z "},"ĥ":{"ha":833,"x_min":21,"x_max":758,"o":"m 707 74 l 740 22 q 688 -8 721 4 q 618 -19 654 -19 q 547 3 574 -19 q 519 61 519 25 q 534 176 519 100 q 574 351 549 251 q 633 563 600 451 q 646 756 675 699 q 532 814 617 814 q 440 787 486 814 q 351 714 394 760 q 272 614 308 668 q 211 503 236 560 q 176 400 186 447 l 92 0 l 21 0 l 257 1111 l 326 1111 l 222 622 q 363 806 282 733 q 533 878 443 878 q 710 802 661 878 q 703 557 758 726 q 644 362 669 454 q 606 199 619 269 q 592 90 592 128 q 606 57 592 69 q 643 44 621 44 q 676 52 658 44 q 707 74 693 60 m 428 1135 l 326 1250 l 175 1138 l 129 1179 l 342 1339 l 489 1176 l 428 1135 z "},"i":{"ha":833,"x_min":235,"x_max":694,"o":"m 469 -19 q 308 17 365 -19 q 243 137 251 53 q 274 364 235 221 l 363 685 q 359 754 369 725 q 297 794 349 783 l 314 858 q 415 805 383 844 q 435 703 446 765 l 343 364 q 315 174 311 244 q 358 74 319 104 q 469 44 397 44 q 531 54 504 44 q 584 87 558 64 q 639 150 610 110 l 694 111 q 623 33 657 63 q 553 -8 589 4 q 469 -19 517 -19 m 464 1038 q 402 1054 417 1038 q 397 1114 388 1071 q 426 1167 407 1153 q 483 1182 444 1182 q 546 1166 532 1182 q 550 1106 560 1150 q 523 1052 542 1067 q 464 1038 504 1038 z "},"ı":{"ha":833,"x_min":235,"x_max":694,"o":"m 469 -19 q 308 17 365 -19 q 243 137 251 53 q 274 364 235 221 l 363 685 q 359 754 369 725 q 297 794 349 783 l 314 858 q 415 805 383 844 q 435 703 446 765 l 343 364 q 315 174 311 244 q 358 74 319 104 q 469 44 397 44 q 531 54 504 44 q 584 87 558 64 q 639 150 610 110 l 694 111 q 623 33 657 63 q 553 -8 589 4 q 469 -19 517 -19 z "},"í":{"ha":833,"x_min":235,"x_max":694,"o":"m 469 -19 q 308 17 365 -19 q 243 137 251 53 q 274 364 235 221 l 363 685 q 359 754 369 725 q 297 794 349 783 l 314 858 q 415 805 383 844 q 435 703 446 765 l 343 364 q 315 174 311 244 q 358 74 319 104 q 469 44 397 44 q 531 54 504 44 q 584 87 558 64 q 639 150 610 110 l 694 111 q 623 33 657 63 q 553 -8 589 4 q 469 -19 517 -19 m 429 954 l 392 1003 l 611 1167 l 649 1118 l 429 954 z "},"ǐ":{"ha":833,"x_min":235,"x_max":694,"o":"m 469 -19 q 308 17 365 -19 q 243 137 251 53 q 274 364 235 221 l 363 685 q 359 754 369 725 q 297 794 349 783 l 314 858 q 415 805 383 844 q 435 703 446 765 l 343 364 q 315 174 311 244 q 358 74 319 104 q 469 44 397 44 q 531 54 504 44 q 584 87 558 64 q 639 150 610 110 l 694 111 q 623 33 657 63 q 553 -8 589 4 q 469 -19 517 -19 m 444 963 l 296 1122 l 356 1164 l 460 1051 l 611 1167 l 658 1125 l 444 963 z "},"î":{"ha":833,"x_min":235,"x_max":694,"o":"m 469 -19 q 308 17 365 -19 q 243 137 251 53 q 274 364 235 221 l 363 685 q 359 754 369 725 q 297 794 349 783 l 314 858 q 415 805 383 844 q 435 703 446 765 l 343 364 q 315 174 311 244 q 358 74 319 104 q 469 44 397 44 q 531 54 504 44 q 584 87 558 64 q 639 150 610 110 l 694 111 q 623 33 657 63 q 553 -8 589 4 q 469 -19 517 -19 m 568 951 l 467 1067 l 315 954 l 269 996 l 482 1156 l 629 993 l 568 951 z "},"ï":{"ha":833,"x_min":235,"x_max":704,"o":"m 469 -19 q 308 17 365 -19 q 243 137 251 53 q 274 364 235 221 l 363 685 q 359 754 369 725 q 297 794 349 783 l 314 858 q 415 805 383 844 q 435 703 446 765 l 343 364 q 315 174 311 244 q 358 74 319 104 q 469 44 397 44 q 531 54 504 44 q 584 87 558 64 q 639 150 610 110 l 694 111 q 623 33 657 63 q 553 -8 589 4 q 469 -19 517 -19 m 610 1017 q 549 1034 564 1017 q 544 1094 535 1051 q 569 1145 551 1132 q 628 1158 586 1158 q 689 1142 674 1158 q 694 1083 704 1125 q 669 1031 686 1044 q 610 1017 651 1017 m 310 1017 q 249 1034 264 1017 q 244 1094 235 1051 q 269 1145 251 1132 q 328 1158 286 1158 q 389 1142 374 1158 q 394 1083 404 1125 q 369 1031 386 1044 q 310 1017 351 1017 z "},"ị":{"ha":833,"x_min":235,"x_max":694,"o":"m 469 -19 q 308 17 365 -19 q 243 137 251 53 q 274 364 235 221 l 363 685 q 359 754 369 725 q 297 794 349 783 l 314 858 q 415 805 383 844 q 435 703 446 765 l 343 364 q 315 174 311 244 q 358 74 319 104 q 469 44 397 44 q 531 54 504 44 q 584 87 558 64 q 639 150 610 110 l 694 111 q 623 33 657 63 q 553 -8 589 4 q 469 -19 517 -19 m 464 1038 q 402 1054 417 1038 q 397 1114 388 1071 q 426 1167 407 1153 q 483 1182 444 1182 q 546 1166 532 1182 q 550 1106 560 1150 q 523 1052 542 1067 q 464 1038 504 1038 m 365 -304 q 303 -287 318 -304 q 299 -228 289 -271 q 327 -174 308 -189 q 385 -160 346 -160 q 447 -176 433 -160 q 451 -236 461 -192 q 424 -290 443 -275 q 365 -304 406 -304 z "},"ì":{"ha":833,"x_min":235,"x_max":694,"o":"m 469 -19 q 308 17 365 -19 q 243 137 251 53 q 274 364 235 221 l 363 685 q 359 754 369 725 q 297 794 349 783 l 314 858 q 415 805 383 844 q 435 703 446 765 l 343 364 q 315 174 311 244 q 358 74 319 104 q 469 44 397 44 q 531 54 504 44 q 584 87 558 64 q 639 150 610 110 l 694 111 q 623 33 657 63 q 553 -8 589 4 q 469 -19 517 -19 m 457 954 l 301 1118 l 356 1167 l 511 1003 l 457 954 z "},"ỉ":{"ha":833,"x_min":235,"x_max":694,"o":"m 469 -19 q 308 17 365 -19 q 243 137 251 53 q 274 364 235 221 l 363 685 q 359 754 369 725 q 297 794 349 783 l 314 858 q 415 805 383 844 q 435 703 446 765 l 343 364 q 315 174 311 244 q 358 74 319 104 q 469 44 397 44 q 531 54 504 44 q 584 87 558 64 q 639 150 610 110 l 694 111 q 623 33 657 63 q 553 -8 589 4 q 469 -19 517 -19 m 413 910 l 403 972 q 478 1006 451 985 q 511 1050 506 1028 q 503 1081 515 1069 q 474 1092 490 1092 q 402 1074 439 1092 q 342 1039 365 1056 l 354 1119 q 415 1146 381 1136 q 475 1156 449 1156 q 558 1124 528 1156 q 578 1039 589 1092 q 528 962 569 997 q 413 910 486 926 z "},"ĳ":{"ha":833,"x_min":32,"x_max":888,"o":"m 181 -286 q 73 -259 114 -286 q 32 -189 32 -232 q 94 -103 32 -139 q 270 -47 156 -67 q 542 -28 385 -28 q 565 40 550 -14 q 598 173 579 94 q 636 342 617 251 q 674 519 656 432 q 706 676 692 607 q 704 746 714 717 q 643 789 694 775 l 663 851 q 778 692 803 818 q 708 346 739 496 q 652 100 676 196 q 611 -28 628 4 q 660 -26 640 -28 q 698 -22 681 -25 q 733 -15 715 -19 l 719 -78 q 648 -89 685 -87 q 583 -90 611 -90 q 487 -193 549 -149 q 346 -262 425 -237 q 181 -286 267 -286 m 197 -222 q 369 -186 283 -222 q 506 -90 454 -150 q 294 -107 385 -93 q 152 -142 203 -121 q 101 -189 101 -162 q 128 -212 101 -203 q 197 -222 154 -222 m 264 50 l 219 -8 q 103 103 126 17 q 128 364 81 190 l 217 685 q 213 754 224 725 q 151 794 203 783 l 168 858 q 269 805 238 844 q 289 703 300 765 l 197 364 q 174 140 156 213 q 264 50 192 67 m 318 1038 q 256 1054 271 1038 q 251 1114 242 1071 q 280 1167 261 1153 q 338 1182 299 1182 q 400 1166 386 1182 q 404 1106 414 1150 q 377 1052 396 1067 q 318 1038 358 1038 m 792 1038 q 730 1054 744 1038 q 725 1114 715 1071 q 753 1167 735 1153 q 811 1182 772 1182 q 874 1166 860 1182 q 878 1106 888 1150 q 851 1052 869 1067 q 792 1038 832 1038 z "},"ī":{"ha":833,"x_min":235,"x_max":694,"o":"m 469 -19 q 308 17 365 -19 q 243 137 251 53 q 274 364 235 221 l 363 685 q 359 754 369 725 q 297 794 349 783 l 314 858 q 415 805 383 844 q 435 703 446 765 l 343 364 q 315 174 311 244 q 358 74 319 104 q 469 44 397 44 q 531 54 504 44 q 584 87 558 64 q 639 150 610 110 l 694 111 q 623 33 657 63 q 553 -8 589 4 q 469 -19 517 -19 m 261 1006 l 275 1069 l 656 1069 l 642 1006 l 261 1006 z "},"į":{"ha":833,"x_min":235,"x_max":694,"o":"m 469 -19 q 308 17 365 -19 q 243 137 251 53 q 274 364 235 221 l 363 685 q 359 754 369 725 q 297 794 349 783 l 314 858 q 415 805 383 844 q 435 703 446 765 l 343 364 q 315 174 311 244 q 358 74 319 104 q 469 44 397 44 q 531 54 504 44 q 584 87 558 64 q 639 150 610 110 l 694 111 q 623 33 657 63 q 553 -8 589 4 q 469 -19 517 -19 m 464 1038 q 402 1054 417 1038 q 397 1114 388 1071 q 426 1167 407 1153 q 483 1182 444 1182 q 546 1166 532 1182 q 550 1106 560 1150 q 523 1052 542 1067 q 464 1038 504 1038 m 442 -276 q 336 -251 376 -276 q 296 -175 296 -226 q 326 -110 296 -142 q 407 -47 357 -78 q 513 10 457 -17 l 561 -4 q 472 -56 517 -31 q 396 -108 426 -82 q 365 -161 365 -133 q 386 -198 365 -183 q 442 -212 407 -212 q 488 -203 464 -212 q 531 -179 513 -193 l 560 -237 q 506 -266 539 -256 q 442 -276 474 -276 z "},"ĩ":{"ha":833,"x_min":235,"x_max":694,"o":"m 469 -19 q 308 17 365 -19 q 243 137 251 53 q 274 364 235 221 l 363 685 q 359 754 369 725 q 297 794 349 783 l 314 858 q 415 805 383 844 q 435 703 446 765 l 343 364 q 315 174 311 244 q 358 74 319 104 q 469 44 397 44 q 531 54 504 44 q 584 87 558 64 q 639 150 610 110 l 694 111 q 623 33 657 63 q 553 -8 589 4 q 469 -19 517 -19 m 544 974 q 490 990 513 974 q 451 1027 468 1006 q 417 1065 433 1049 q 381 1081 401 1081 q 335 1060 349 1081 q 315 1010 322 1040 l 247 1010 q 297 1108 261 1072 q 382 1144 333 1144 q 433 1128 411 1144 q 474 1091 456 1113 q 509 1053 492 1069 q 546 1038 526 1038 q 591 1057 578 1038 q 610 1104 604 1076 l 678 1104 q 629 1009 665 1044 q 544 974 593 974 z "},"j":{"ha":833,"x_min":-72,"x_max":783,"o":"m 76 -286 q -31 -259 10 -286 q -72 -189 -72 -232 q -10 -103 -72 -139 q 166 -47 51 -67 q 438 -28 281 -28 q 460 40 446 -14 q 494 173 475 94 q 532 342 513 251 q 569 519 551 432 q 601 676 588 607 q 600 746 610 717 q 539 789 590 775 l 558 851 q 674 692 699 818 q 603 346 635 496 q 548 100 572 196 q 507 -28 524 4 q 556 -26 536 -28 q 594 -22 576 -25 q 629 -15 611 -19 l 615 -78 q 544 -89 581 -87 q 479 -90 507 -90 q 383 -193 444 -149 q 242 -262 321 -237 q 76 -286 163 -286 m 93 -222 q 265 -186 179 -222 q 401 -90 350 -150 q 190 -107 281 -93 q 48 -142 99 -121 q -3 -189 -3 -162 q 24 -212 -3 -203 q 93 -222 50 -222 m 688 1038 q 626 1054 640 1038 q 621 1114 611 1071 q 649 1167 631 1153 q 707 1182 668 1182 q 769 1166 756 1182 q 774 1106 783 1150 q 747 1052 765 1067 q 688 1038 728 1038 z "},"ȷ":{"ha":833,"x_min":-72,"x_max":699,"o":"m 76 -286 q -31 -259 10 -286 q -72 -189 -72 -232 q -10 -103 -72 -139 q 166 -47 51 -67 q 438 -28 281 -28 q 460 40 446 -14 q 494 173 475 94 q 532 342 513 251 q 569 519 551 432 q 601 676 588 607 q 600 746 610 717 q 539 789 590 775 l 558 851 q 674 692 699 818 q 603 346 635 496 q 548 100 572 196 q 507 -28 524 4 q 556 -26 536 -28 q 594 -22 576 -25 q 629 -15 611 -19 l 615 -78 q 544 -89 581 -87 q 479 -90 507 -90 q 383 -193 444 -149 q 242 -262 321 -237 q 76 -286 163 -286 m 93 -222 q 265 -186 179 -222 q 401 -90 350 -150 q 190 -107 281 -93 q 48 -142 99 -121 q -3 -189 -3 -162 q 24 -212 -3 -203 q 93 -222 50 -222 z "},"ĵ":{"ha":833,"x_min":-72,"x_max":853,"o":"m 76 -286 q -31 -259 10 -286 q -72 -189 -72 -232 q -10 -103 -72 -139 q 166 -47 51 -67 q 438 -28 281 -28 q 460 40 446 -14 q 494 173 475 94 q 532 342 513 251 q 569 519 551 432 q 601 676 588 607 q 600 746 610 717 q 539 789 590 775 l 558 851 q 674 692 699 818 q 603 346 635 496 q 548 100 572 196 q 507 -28 524 4 q 556 -26 536 -28 q 594 -22 576 -25 q 629 -15 611 -19 l 615 -78 q 544 -89 581 -87 q 479 -90 507 -90 q 383 -193 444 -149 q 242 -262 321 -237 q 76 -286 163 -286 m 93 -222 q 265 -186 179 -222 q 401 -90 350 -150 q 190 -107 281 -93 q 48 -142 99 -121 q -3 -189 -3 -162 q 24 -212 -3 -203 q 93 -222 50 -222 m 792 951 l 690 1067 l 539 954 l 493 996 l 706 1156 l 853 993 l 792 951 z "},"k":{"ha":833,"x_min":67,"x_max":789,"o":"m 568 -19 q 476 49 501 -19 q 450 232 450 118 q 431 327 450 281 q 379 404 411 374 l 408 460 q 572 490 501 460 q 681 574 642 519 q 719 699 719 628 q 679 783 719 751 q 588 814 639 814 q 438 763 513 814 q 306 619 364 711 q 221 403 247 526 l 154 417 q 255 659 186 556 q 412 820 324 763 q 590 878 500 878 q 690 856 644 878 q 762 796 735 835 q 789 706 789 757 q 750 561 789 626 q 641 453 711 496 q 476 399 571 411 q 512 322 499 367 q 525 236 525 276 q 531 97 525 150 q 569 44 536 44 q 619 69 589 44 q 668 128 650 94 l 715 76 q 649 7 682 33 q 568 -19 617 -19 m 67 0 l 303 1111 l 372 1111 l 136 0 l 67 0 z "},"ķ":{"ha":833,"x_min":67,"x_max":789,"o":"m 568 -19 q 476 49 501 -19 q 450 232 450 118 q 431 327 450 281 q 379 404 411 374 l 408 460 q 572 490 501 460 q 681 574 642 519 q 719 699 719 628 q 679 783 719 751 q 588 814 639 814 q 438 763 513 814 q 306 619 364 711 q 221 403 247 526 l 154 417 q 255 659 186 556 q 412 820 324 763 q 590 878 500 878 q 690 856 644 878 q 762 796 735 835 q 789 706 789 757 q 750 561 789 626 q 641 453 711 496 q 476 399 571 411 q 512 322 499 367 q 525 236 525 276 q 531 97 525 150 q 569 44 536 44 q 619 69 589 44 q 668 128 650 94 l 715 76 q 649 7 682 33 q 568 -19 617 -19 m 67 0 l 303 1111 l 372 1111 l 136 0 l 67 0 m 178 -342 l 283 -174 q 258 -156 265 -171 q 257 -114 251 -142 q 276 -74 264 -83 q 321 -64 289 -64 q 369 -77 357 -64 q 374 -125 381 -90 q 345 -188 368 -150 q 292 -267 322 -226 q 229 -344 261 -308 l 178 -342 z "},"l":{"ha":833,"x_min":-37,"x_max":692,"o":"m 463 -19 q 332 39 382 -19 q 282 193 282 97 q 297 576 282 404 q 344 873 313 749 q 429 1064 376 997 q 557 1131 482 1131 q 656 1083 619 1131 q 692 951 692 1036 q 656 738 692 849 q 553 517 619 626 q 399 308 488 407 q 207 129 311 208 q -10 0 103 50 l -37 58 q 166 181 68 106 q 347 350 264 257 q 491 546 429 443 q 588 753 553 649 q 622 951 622 857 q 602 1036 622 1007 q 546 1065 582 1065 q 483 1027 513 1065 q 430 917 454 989 q 388 742 406 844 q 361 513 371 640 q 351 235 351 385 q 382 97 351 150 q 463 44 413 44 q 550 74 503 44 q 632 150 597 103 l 688 111 q 581 17 643 53 q 463 -19 519 -19 z "},"ĺ":{"ha":833,"x_min":-37,"x_max":797,"o":"m 463 -19 q 332 39 382 -19 q 282 193 282 97 q 297 576 282 404 q 344 873 313 749 q 429 1064 376 997 q 557 1131 482 1131 q 656 1083 619 1131 q 692 951 692 1036 q 656 738 692 849 q 553 517 619 626 q 399 308 488 407 q 207 129 311 208 q -10 0 103 50 l -37 58 q 166 181 68 106 q 347 350 264 257 q 491 546 429 443 q 588 753 553 649 q 622 951 622 857 q 602 1036 622 1007 q 546 1065 582 1065 q 483 1027 513 1065 q 430 917 454 989 q 388 742 406 844 q 361 513 371 640 q 351 235 351 385 q 382 97 351 150 q 463 44 413 44 q 550 74 503 44 q 632 150 597 103 l 688 111 q 581 17 643 53 q 463 -19 519 -19 m 578 1207 l 540 1256 l 760 1419 l 797 1371 l 578 1207 z "},"ľ":{"ha":833,"x_min":-37,"x_max":886,"o":"m 463 -19 q 332 39 382 -19 q 282 193 282 97 q 297 576 282 404 q 344 873 313 749 q 429 1064 376 997 q 557 1131 482 1131 q 656 1083 619 1131 q 692 951 692 1036 q 656 738 692 849 q 553 517 619 626 q 399 308 488 407 q 207 129 311 208 q -10 0 103 50 l -37 58 q 166 181 68 106 q 347 350 264 257 q 491 546 429 443 q 588 753 553 649 q 622 951 622 857 q 602 1036 622 1007 q 546 1065 582 1065 q 483 1027 513 1065 q 430 917 454 989 q 388 742 406 844 q 361 513 371 640 q 351 235 351 385 q 382 97 351 150 q 463 44 413 44 q 550 74 503 44 q 632 150 597 103 l 688 111 q 581 17 643 53 q 463 -19 519 -19 m 747 768 l 808 1110 l 886 1110 l 803 768 l 747 768 z "},"ļ":{"ha":833,"x_min":-37,"x_max":692,"o":"m 463 -19 q 332 39 382 -19 q 282 193 282 97 q 297 576 282 404 q 344 873 313 749 q 429 1064 376 997 q 557 1131 482 1131 q 656 1083 619 1131 q 692 951 692 1036 q 656 738 692 849 q 553 517 619 626 q 399 308 488 407 q 207 129 311 208 q -10 0 103 50 l -37 58 q 166 181 68 106 q 347 350 264 257 q 491 546 429 443 q 588 753 553 649 q 622 951 622 857 q 602 1036 622 1007 q 546 1065 582 1065 q 483 1027 513 1065 q 430 917 454 989 q 388 742 406 844 q 361 513 371 640 q 351 235 351 385 q 382 97 351 150 q 463 44 413 44 q 550 74 503 44 q 632 150 597 103 l 688 111 q 581 17 643 53 q 463 -19 519 -19 m 164 -342 l 269 -174 q 244 -156 251 -171 q 243 -114 238 -142 q 263 -74 250 -83 q 307 -64 275 -64 q 355 -77 343 -64 q 360 -125 367 -90 q 331 -188 354 -150 q 278 -267 308 -226 q 215 -344 247 -308 l 164 -342 z "},"ł":{"ha":833,"x_min":-37,"x_max":761,"o":"m 761 849 l 743 781 l 225 585 l 240 653 l 761 849 m 463 -19 q 332 39 382 -19 q 282 193 282 97 q 297 576 282 404 q 344 873 313 749 q 429 1064 376 997 q 557 1131 482 1131 q 656 1083 619 1131 q 692 951 692 1036 q 656 738 692 849 q 553 517 619 626 q 399 308 488 407 q 207 129 311 208 q -10 0 103 50 l -37 58 q 166 181 68 106 q 347 350 264 257 q 491 546 429 443 q 588 753 553 649 q 622 951 622 857 q 602 1036 622 1007 q 546 1065 582 1065 q 483 1027 513 1065 q 430 917 454 989 q 388 742 406 844 q 361 513 371 640 q 351 235 351 385 q 382 97 351 150 q 463 44 413 44 q 550 74 503 44 q 632 150 597 103 l 688 111 q 581 17 643 53 q 463 -19 519 -19 z "},"m":{"ha":833,"x_min":13,"x_max":826,"o":"m 686 -19 q 615 3 642 -19 q 588 61 588 25 q 602 176 588 100 q 643 351 617 251 q 703 563 669 451 q 741 756 744 699 q 689 814 738 814 q 617 799 649 814 q 558 743 585 785 q 506 622 531 701 q 453 411 481 542 l 367 0 l 297 0 l 415 563 q 443 704 433 649 q 442 787 453 760 q 390 814 432 814 q 322 799 351 814 q 269 742 293 785 q 222 620 246 700 q 169 408 197 540 l 82 0 l 13 0 l 171 740 q 173 755 172 747 q 174 768 174 763 q 128 814 174 814 q 93 806 114 814 q 58 785 72 799 l 25 836 q 78 867 44 856 q 147 878 113 878 q 222 842 207 878 q 231 754 238 806 q 265 808 242 779 q 320 858 288 838 q 392 878 353 878 q 462 864 439 878 q 493 828 485 850 q 501 778 501 806 q 500 726 500 751 q 585 840 538 801 q 690 878 632 878 q 805 802 783 878 q 771 557 826 726 q 713 362 738 454 q 674 199 688 269 q 660 90 660 128 q 674 57 660 69 q 711 44 689 44 q 744 52 726 44 q 775 74 761 60 l 808 22 q 756 -8 789 4 q 686 -19 722 -19 z "},"n":{"ha":833,"x_min":58,"x_max":768,"o":"m 717 74 l 750 22 q 697 -8 731 4 q 628 -19 664 -19 q 556 3 583 -19 q 529 61 529 25 q 544 176 529 100 q 584 351 558 251 q 643 563 610 451 q 657 756 685 699 q 556 814 629 814 q 470 787 514 814 q 385 714 426 760 q 309 614 344 668 q 249 503 274 560 q 214 400 224 447 l 129 0 l 58 0 l 217 740 q 219 755 218 747 q 219 768 219 763 q 206 801 219 789 q 168 814 192 814 q 136 806 154 814 q 104 785 118 799 l 71 836 q 124 867 90 856 q 193 878 158 878 q 247 863 222 878 q 284 820 271 849 q 288 750 297 792 l 260 622 q 398 806 319 733 q 557 878 476 878 q 722 802 675 878 q 713 557 768 726 q 654 362 679 454 q 615 199 629 269 q 601 90 601 128 q 616 57 601 69 q 653 44 631 44 q 685 52 668 44 q 717 74 703 60 z "},"ń":{"ha":833,"x_min":58,"x_max":768,"o":"m 717 74 l 750 22 q 697 -8 731 4 q 628 -19 664 -19 q 556 3 583 -19 q 529 61 529 25 q 544 176 529 100 q 584 351 558 251 q 643 563 610 451 q 657 756 685 699 q 556 814 629 814 q 470 787 514 814 q 385 714 426 760 q 309 614 344 668 q 249 503 274 560 q 214 400 224 447 l 129 0 l 58 0 l 217 740 q 219 755 218 747 q 219 768 219 763 q 206 801 219 789 q 168 814 192 814 q 136 806 154 814 q 104 785 118 799 l 71 836 q 124 867 90 856 q 193 878 158 878 q 247 863 222 878 q 284 820 271 849 q 288 750 297 792 l 260 622 q 398 806 319 733 q 557 878 476 878 q 722 802 675 878 q 713 557 768 726 q 654 362 679 454 q 615 199 629 269 q 601 90 601 128 q 616 57 601 69 q 653 44 631 44 q 685 52 668 44 q 717 74 703 60 m 517 954 l 479 1003 l 699 1167 l 736 1118 l 517 954 z "},"ň":{"ha":833,"x_min":58,"x_max":768,"o":"m 717 74 l 750 22 q 697 -8 731 4 q 628 -19 664 -19 q 556 3 583 -19 q 529 61 529 25 q 544 176 529 100 q 584 351 558 251 q 643 563 610 451 q 657 756 685 699 q 556 814 629 814 q 470 787 514 814 q 385 714 426 760 q 309 614 344 668 q 249 503 274 560 q 214 400 224 447 l 129 0 l 58 0 l 217 740 q 219 755 218 747 q 219 768 219 763 q 206 801 219 789 q 168 814 192 814 q 136 806 154 814 q 104 785 118 799 l 71 836 q 124 867 90 856 q 193 878 158 878 q 247 863 222 878 q 284 820 271 849 q 288 750 297 792 l 260 622 q 398 806 319 733 q 557 878 476 878 q 722 802 675 878 q 713 557 768 726 q 654 362 679 454 q 615 199 629 269 q 601 90 601 128 q 616 57 601 69 q 653 44 631 44 q 685 52 668 44 q 717 74 703 60 m 532 963 l 383 1122 l 443 1164 l 547 1051 l 699 1167 l 746 1125 l 532 963 z "},"ņ":{"ha":833,"x_min":58,"x_max":768,"o":"m 717 74 l 750 22 q 697 -8 731 4 q 628 -19 664 -19 q 556 3 583 -19 q 529 61 529 25 q 544 176 529 100 q 584 351 558 251 q 643 563 610 451 q 657 756 685 699 q 556 814 629 814 q 470 787 514 814 q 385 714 426 760 q 309 614 344 668 q 249 503 274 560 q 214 400 224 447 l 129 0 l 58 0 l 217 740 q 219 755 218 747 q 219 768 219 763 q 206 801 219 789 q 168 814 192 814 q 136 806 154 814 q 104 785 118 799 l 71 836 q 124 867 90 856 q 193 878 158 878 q 247 863 222 878 q 284 820 271 849 q 288 750 297 792 l 260 622 q 398 806 319 733 q 557 878 476 878 q 722 802 675 878 q 713 557 768 726 q 654 362 679 454 q 615 199 629 269 q 601 90 601 128 q 616 57 601 69 q 653 44 631 44 q 685 52 668 44 q 717 74 703 60 m 178 -342 l 283 -174 q 258 -156 265 -171 q 257 -114 251 -142 q 276 -74 264 -83 q 321 -64 289 -64 q 369 -77 357 -64 q 374 -125 381 -90 q 345 -188 368 -150 q 292 -267 322 -226 q 229 -344 261 -308 l 178 -342 z "},"ŋ":{"ha":833,"x_min":58,"x_max":768,"o":"m 438 -215 l 444 -151 q 528 -141 497 -151 q 576 -98 558 -131 q 608 0 594 -65 l 676 0 q 632 -130 660 -83 q 558 -196 604 -176 q 438 -215 513 -215 m 717 74 l 750 22 q 697 -8 731 4 q 628 -19 664 -19 q 556 3 583 -19 q 529 61 529 25 q 544 176 529 100 q 584 351 558 251 q 643 563 610 451 q 657 756 685 699 q 556 814 629 814 q 470 787 514 814 q 385 714 426 760 q 309 614 344 668 q 249 503 274 560 q 214 400 224 447 l 129 0 l 58 0 l 217 740 q 219 755 218 747 q 219 768 219 763 q 206 801 219 789 q 168 814 192 814 q 136 806 154 814 q 104 785 118 799 l 71 836 q 124 867 90 856 q 193 878 158 878 q 247 863 222 878 q 284 820 271 849 q 288 750 297 792 l 260 622 q 398 806 319 733 q 557 878 476 878 q 722 802 675 878 q 713 557 768 726 q 654 362 679 454 q 615 199 629 269 q 601 90 601 128 q 616 57 601 69 q 653 44 631 44 q 685 52 668 44 q 717 74 703 60 z "},"ñ":{"ha":833,"x_min":58,"x_max":768,"o":"m 717 74 l 750 22 q 697 -8 731 4 q 628 -19 664 -19 q 556 3 583 -19 q 529 61 529 25 q 544 176 529 100 q 584 351 558 251 q 643 563 610 451 q 657 756 685 699 q 556 814 629 814 q 470 787 514 814 q 385 714 426 760 q 309 614 344 668 q 249 503 274 560 q 214 400 224 447 l 129 0 l 58 0 l 217 740 q 219 755 218 747 q 219 768 219 763 q 206 801 219 789 q 168 814 192 814 q 136 806 154 814 q 104 785 118 799 l 71 836 q 124 867 90 856 q 193 878 158 878 q 247 863 222 878 q 284 820 271 849 q 288 750 297 792 l 260 622 q 398 806 319 733 q 557 878 476 878 q 722 802 675 878 q 713 557 768 726 q 654 362 679 454 q 615 199 629 269 q 601 90 601 128 q 616 57 601 69 q 653 44 631 44 q 685 52 668 44 q 717 74 703 60 m 632 974 q 578 990 600 974 q 538 1027 556 1006 q 505 1065 521 1049 q 468 1081 489 1081 q 423 1060 436 1081 q 403 1010 410 1040 l 335 1010 q 385 1108 349 1072 q 469 1144 421 1144 q 521 1128 499 1144 q 561 1091 543 1113 q 597 1053 579 1069 q 633 1038 614 1038 q 678 1057 665 1038 q 697 1104 692 1076 l 765 1104 q 717 1009 753 1044 q 632 974 681 974 z "},"o":{"ha":833,"x_min":82,"x_max":751,"o":"m 328 -19 q 155 23 213 -19 q 90 165 97 65 q 119 435 82 264 q 205 667 147 568 q 340 822 263 767 q 506 878 418 878 q 678 835 621 878 q 744 694 736 793 q 714 424 751 596 q 628 192 686 292 q 494 36 571 92 q 328 -19 417 -19 m 329 44 q 463 93 400 44 q 574 230 526 142 q 647 435 622 318 q 675 663 678 581 q 631 780 672 746 q 504 814 590 814 q 370 765 433 814 q 259 629 307 717 q 186 424 211 542 q 158 196 156 279 q 203 78 161 113 q 329 44 244 44 z "},"ó":{"ha":833,"x_min":82,"x_max":751,"o":"m 328 -19 q 155 23 213 -19 q 90 165 97 65 q 119 435 82 264 q 205 667 147 568 q 340 822 263 767 q 506 878 418 878 q 678 835 621 878 q 744 694 736 793 q 714 424 751 596 q 628 192 686 292 q 494 36 571 92 q 328 -19 417 -19 m 329 44 q 463 93 400 44 q 574 230 526 142 q 647 435 622 318 q 675 663 678 581 q 631 780 672 746 q 504 814 590 814 q 370 765 433 814 q 259 629 307 717 q 186 424 211 542 q 158 196 156 279 q 203 78 161 113 q 329 44 244 44 m 517 954 l 479 1003 l 699 1167 l 736 1118 l 517 954 z "},"ǒ":{"ha":833,"x_min":82,"x_max":751,"o":"m 328 -19 q 155 23 213 -19 q 90 165 97 65 q 119 435 82 264 q 205 667 147 568 q 340 822 263 767 q 506 878 418 878 q 678 835 621 878 q 744 694 736 793 q 714 424 751 596 q 628 192 686 292 q 494 36 571 92 q 328 -19 417 -19 m 329 44 q 463 93 400 44 q 574 230 526 142 q 647 435 622 318 q 675 663 678 581 q 631 780 672 746 q 504 814 590 814 q 370 765 433 814 q 259 629 307 717 q 186 424 211 542 q 158 196 156 279 q 203 78 161 113 q 329 44 244 44 m 532 963 l 383 1122 l 443 1164 l 547 1051 l 699 1167 l 746 1125 l 532 963 z "},"ô":{"ha":833,"x_min":82,"x_max":751,"o":"m 328 -19 q 155 23 213 -19 q 90 165 97 65 q 119 435 82 264 q 205 667 147 568 q 340 822 263 767 q 506 878 418 878 q 678 835 621 878 q 744 694 736 793 q 714 424 751 596 q 628 192 686 292 q 494 36 571 92 q 328 -19 417 -19 m 329 44 q 463 93 400 44 q 574 230 526 142 q 647 435 622 318 q 675 663 678 581 q 631 780 672 746 q 504 814 590 814 q 370 765 433 814 q 259 629 307 717 q 186 424 211 542 q 158 196 156 279 q 203 78 161 113 q 329 44 244 44 m 656 951 l 554 1067 l 403 954 l 357 996 l 569 1156 l 717 993 l 656 951 z "},"ố":{"ha":833,"x_min":82,"x_max":796,"o":"m 328 -19 q 155 23 213 -19 q 90 165 97 65 q 119 435 82 264 q 205 667 147 568 q 340 822 263 767 q 506 878 418 878 q 678 835 621 878 q 744 694 736 793 q 714 424 751 596 q 628 192 686 292 q 494 36 571 92 q 328 -19 417 -19 m 329 44 q 463 93 400 44 q 574 230 526 142 q 647 435 622 318 q 675 663 678 581 q 631 780 672 746 q 504 814 590 814 q 370 765 433 814 q 259 629 307 717 q 186 424 211 542 q 158 196 156 279 q 203 78 161 113 q 329 44 244 44 m 656 951 l 554 1067 l 403 954 l 357 996 l 569 1156 l 717 993 l 656 951 m 576 1239 l 539 1288 l 758 1451 l 796 1403 l 576 1239 z "},"ộ":{"ha":833,"x_min":82,"x_max":751,"o":"m 328 -19 q 155 23 213 -19 q 90 165 97 65 q 119 435 82 264 q 205 667 147 568 q 340 822 263 767 q 506 878 418 878 q 678 835 621 878 q 744 694 736 793 q 714 424 751 596 q 628 192 686 292 q 494 36 571 92 q 328 -19 417 -19 m 329 44 q 463 93 400 44 q 574 230 526 142 q 647 435 622 318 q 675 663 678 581 q 631 780 672 746 q 504 814 590 814 q 370 765 433 814 q 259 629 307 717 q 186 424 211 542 q 158 196 156 279 q 203 78 161 113 q 329 44 244 44 m 267 -304 q 205 -287 219 -304 q 200 -228 190 -271 q 228 -174 210 -189 q 286 -160 247 -160 q 349 -176 335 -160 q 353 -236 363 -192 q 326 -290 344 -275 q 267 -304 307 -304 m 656 951 l 554 1067 l 403 954 l 357 996 l 569 1156 l 717 993 l 656 951 z "},"ồ":{"ha":833,"x_min":82,"x_max":751,"o":"m 328 -19 q 155 23 213 -19 q 90 165 97 65 q 119 435 82 264 q 205 667 147 568 q 340 822 263 767 q 506 878 418 878 q 678 835 621 878 q 744 694 736 793 q 714 424 751 596 q 628 192 686 292 q 494 36 571 92 q 328 -19 417 -19 m 329 44 q 463 93 400 44 q 574 230 526 142 q 647 435 622 318 q 675 663 678 581 q 631 780 672 746 q 504 814 590 814 q 370 765 433 814 q 259 629 307 717 q 186 424 211 542 q 158 196 156 279 q 203 78 161 113 q 329 44 244 44 m 656 951 l 554 1067 l 403 954 l 357 996 l 569 1156 l 717 993 l 656 951 m 604 1239 l 449 1403 l 503 1451 l 658 1288 l 604 1239 z "},"ổ":{"ha":833,"x_min":82,"x_max":751,"o":"m 328 -19 q 155 23 213 -19 q 90 165 97 65 q 119 435 82 264 q 205 667 147 568 q 340 822 263 767 q 506 878 418 878 q 678 835 621 878 q 744 694 736 793 q 714 424 751 596 q 628 192 686 292 q 494 36 571 92 q 328 -19 417 -19 m 329 44 q 463 93 400 44 q 574 230 526 142 q 647 435 622 318 q 675 663 678 581 q 631 780 672 746 q 504 814 590 814 q 370 765 433 814 q 259 629 307 717 q 186 424 211 542 q 158 196 156 279 q 203 78 161 113 q 329 44 244 44 m 656 951 l 554 1067 l 403 954 l 357 996 l 569 1156 l 717 993 l 656 951 m 560 1194 l 550 1257 q 626 1291 599 1269 q 658 1335 653 1313 q 650 1365 663 1354 q 621 1376 638 1376 q 549 1358 586 1376 q 489 1324 513 1340 l 501 1404 q 562 1431 528 1421 q 622 1440 596 1440 q 706 1408 675 1440 q 725 1324 736 1376 q 675 1247 717 1282 q 560 1194 633 1211 z "},"ỗ":{"ha":833,"x_min":82,"x_max":825,"o":"m 328 -19 q 155 23 213 -19 q 90 165 97 65 q 119 435 82 264 q 205 667 147 568 q 340 822 263 767 q 506 878 418 878 q 678 835 621 878 q 744 694 736 793 q 714 424 751 596 q 628 192 686 292 q 494 36 571 92 q 328 -19 417 -19 m 329 44 q 463 93 400 44 q 574 230 526 142 q 647 435 622 318 q 675 663 678 581 q 631 780 672 746 q 504 814 590 814 q 370 765 433 814 q 259 629 307 717 q 186 424 211 542 q 158 196 156 279 q 203 78 161 113 q 329 44 244 44 m 656 951 l 554 1067 l 403 954 l 357 996 l 569 1156 l 717 993 l 656 951 m 692 1258 q 638 1274 660 1258 q 598 1312 615 1290 q 565 1349 581 1333 q 528 1365 549 1365 q 483 1345 496 1365 q 463 1294 469 1325 l 394 1294 q 444 1393 408 1357 q 529 1429 481 1429 q 581 1413 558 1429 q 621 1376 603 1397 q 656 1338 639 1354 q 693 1322 674 1322 q 738 1342 725 1322 q 757 1389 751 1361 l 825 1389 q 776 1294 813 1329 q 692 1258 740 1258 z "},"ö":{"ha":833,"x_min":82,"x_max":792,"o":"m 328 -19 q 155 23 213 -19 q 90 165 97 65 q 119 435 82 264 q 205 667 147 568 q 340 822 263 767 q 506 878 418 878 q 678 835 621 878 q 744 694 736 793 q 714 424 751 596 q 628 192 686 292 q 494 36 571 92 q 328 -19 417 -19 m 329 44 q 463 93 400 44 q 574 230 526 142 q 647 435 622 318 q 675 663 678 581 q 631 780 672 746 q 504 814 590 814 q 370 765 433 814 q 259 629 307 717 q 186 424 211 542 q 158 196 156 279 q 203 78 161 113 q 329 44 244 44 m 697 1017 q 637 1034 651 1017 q 632 1094 622 1051 q 656 1145 639 1132 q 715 1158 674 1158 q 776 1142 761 1158 q 782 1083 792 1125 q 756 1031 774 1044 q 697 1017 739 1017 m 397 1017 q 337 1034 351 1017 q 332 1094 322 1051 q 356 1145 339 1132 q 415 1158 374 1158 q 476 1142 461 1158 q 482 1083 492 1125 q 456 1031 474 1044 q 397 1017 439 1017 z "},"ọ":{"ha":833,"x_min":82,"x_max":751,"o":"m 328 -19 q 155 23 213 -19 q 90 165 97 65 q 119 435 82 264 q 205 667 147 568 q 340 822 263 767 q 506 878 418 878 q 678 835 621 878 q 744 694 736 793 q 714 424 751 596 q 628 192 686 292 q 494 36 571 92 q 328 -19 417 -19 m 329 44 q 463 93 400 44 q 574 230 526 142 q 647 435 622 318 q 675 663 678 581 q 631 780 672 746 q 504 814 590 814 q 370 765 433 814 q 259 629 307 717 q 186 424 211 542 q 158 196 156 279 q 203 78 161 113 q 329 44 244 44 m 267 -304 q 205 -287 219 -304 q 200 -228 190 -271 q 228 -174 210 -189 q 286 -160 247 -160 q 349 -176 335 -160 q 353 -236 363 -192 q 326 -290 344 -275 q 267 -304 307 -304 z "},"ò":{"ha":833,"x_min":82,"x_max":751,"o":"m 328 -19 q 155 23 213 -19 q 90 165 97 65 q 119 435 82 264 q 205 667 147 568 q 340 822 263 767 q 506 878 418 878 q 678 835 621 878 q 744 694 736 793 q 714 424 751 596 q 628 192 686 292 q 494 36 571 92 q 328 -19 417 -19 m 329 44 q 463 93 400 44 q 574 230 526 142 q 647 435 622 318 q 675 663 678 581 q 631 780 672 746 q 504 814 590 814 q 370 765 433 814 q 259 629 307 717 q 186 424 211 542 q 158 196 156 279 q 203 78 161 113 q 329 44 244 44 m 544 954 l 389 1118 l 443 1167 l 599 1003 l 544 954 z "},"ỏ":{"ha":833,"x_min":82,"x_max":751,"o":"m 328 -19 q 155 23 213 -19 q 90 165 97 65 q 119 435 82 264 q 205 667 147 568 q 340 822 263 767 q 506 878 418 878 q 678 835 621 878 q 744 694 736 793 q 714 424 751 596 q 628 192 686 292 q 494 36 571 92 q 328 -19 417 -19 m 329 44 q 463 93 400 44 q 574 230 526 142 q 647 435 622 318 q 675 663 678 581 q 631 780 672 746 q 504 814 590 814 q 370 765 433 814 q 259 629 307 717 q 186 424 211 542 q 158 196 156 279 q 203 78 161 113 q 329 44 244 44 m 500 910 l 490 972 q 566 1006 539 985 q 599 1050 593 1028 q 590 1081 603 1069 q 561 1092 578 1092 q 490 1074 526 1092 q 429 1039 453 1056 l 442 1119 q 502 1146 468 1136 q 563 1156 536 1156 q 646 1124 615 1156 q 665 1039 676 1092 q 615 962 657 997 q 500 910 574 926 z "},"ơ":{"ha":833,"x_min":82,"x_max":1000,"o":"m 328 -19 q 155 23 213 -19 q 90 165 97 65 q 119 435 82 264 q 205 667 147 568 q 340 822 263 767 q 506 878 418 878 q 678 835 621 878 q 744 694 736 793 q 714 424 751 596 q 628 192 686 292 q 494 36 571 92 q 328 -19 417 -19 m 329 44 q 463 93 400 44 q 574 230 526 142 q 647 435 622 318 q 675 663 678 581 q 631 780 672 746 q 504 814 590 814 q 370 765 433 814 q 259 629 307 717 q 186 424 211 542 q 158 196 156 279 q 203 78 161 113 q 329 44 244 44 m 783 651 q 736 663 760 651 q 697 692 713 674 l 707 751 q 724 732 713 740 q 751 719 735 724 q 785 715 767 715 q 853 746 822 715 q 893 824 883 776 l 931 1001 l 1000 1001 l 961 818 q 897 697 946 742 q 783 651 849 651 z "},"ớ":{"ha":833,"x_min":82,"x_max":1000,"o":"m 328 -19 q 155 23 213 -19 q 90 165 97 65 q 119 435 82 264 q 205 667 147 568 q 340 822 263 767 q 506 878 418 878 q 678 835 621 878 q 744 694 736 793 q 714 424 751 596 q 628 192 686 292 q 494 36 571 92 q 328 -19 417 -19 m 329 44 q 463 93 400 44 q 574 230 526 142 q 647 435 622 318 q 675 663 678 581 q 631 780 672 746 q 504 814 590 814 q 370 765 433 814 q 259 629 307 717 q 186 424 211 542 q 158 196 156 279 q 203 78 161 113 q 329 44 244 44 m 783 651 q 736 663 760 651 q 697 692 713 674 l 707 751 q 724 732 713 740 q 751 719 735 724 q 785 715 767 715 q 853 746 822 715 q 893 824 883 776 l 931 1001 l 1000 1001 l 961 818 q 897 697 946 742 q 783 651 849 651 m 517 954 l 479 1003 l 699 1167 l 736 1118 l 517 954 z "},"ợ":{"ha":833,"x_min":82,"x_max":1000,"o":"m 328 -19 q 155 23 213 -19 q 90 165 97 65 q 119 435 82 264 q 205 667 147 568 q 340 822 263 767 q 506 878 418 878 q 678 835 621 878 q 744 694 736 793 q 714 424 751 596 q 628 192 686 292 q 494 36 571 92 q 328 -19 417 -19 m 329 44 q 463 93 400 44 q 574 230 526 142 q 647 435 622 318 q 675 663 678 581 q 631 780 672 746 q 504 814 590 814 q 370 765 433 814 q 259 629 307 717 q 186 424 211 542 q 158 196 156 279 q 203 78 161 113 q 329 44 244 44 m 783 651 q 736 663 760 651 q 697 692 713 674 l 707 751 q 724 732 713 740 q 751 719 735 724 q 785 715 767 715 q 853 746 822 715 q 893 824 883 776 l 931 1001 l 1000 1001 l 961 818 q 897 697 946 742 q 783 651 849 651 m 267 -304 q 205 -287 219 -304 q 200 -228 190 -271 q 228 -174 210 -189 q 286 -160 247 -160 q 349 -176 335 -160 q 353 -236 363 -192 q 326 -290 344 -275 q 267 -304 307 -304 z "},"ờ":{"ha":833,"x_min":82,"x_max":1000,"o":"m 328 -19 q 155 23 213 -19 q 90 165 97 65 q 119 435 82 264 q 205 667 147 568 q 340 822 263 767 q 506 878 418 878 q 678 835 621 878 q 744 694 736 793 q 714 424 751 596 q 628 192 686 292 q 494 36 571 92 q 328 -19 417 -19 m 329 44 q 463 93 400 44 q 574 230 526 142 q 647 435 622 318 q 675 663 678 581 q 631 780 672 746 q 504 814 590 814 q 370 765 433 814 q 259 629 307 717 q 186 424 211 542 q 158 196 156 279 q 203 78 161 113 q 329 44 244 44 m 783 651 q 736 663 760 651 q 697 692 713 674 l 707 751 q 724 732 713 740 q 751 719 735 724 q 785 715 767 715 q 853 746 822 715 q 893 824 883 776 l 931 1001 l 1000 1001 l 961 818 q 897 697 946 742 q 783 651 849 651 m 544 954 l 389 1118 l 443 1167 l 599 1003 l 544 954 z "},"ở":{"ha":833,"x_min":82,"x_max":1000,"o":"m 328 -19 q 155 23 213 -19 q 90 165 97 65 q 119 435 82 264 q 205 667 147 568 q 340 822 263 767 q 506 878 418 878 q 678 835 621 878 q 744 694 736 793 q 714 424 751 596 q 628 192 686 292 q 494 36 571 92 q 328 -19 417 -19 m 329 44 q 463 93 400 44 q 574 230 526 142 q 647 435 622 318 q 675 663 678 581 q 631 780 672 746 q 504 814 590 814 q 370 765 433 814 q 259 629 307 717 q 186 424 211 542 q 158 196 156 279 q 203 78 161 113 q 329 44 244 44 m 783 651 q 736 663 760 651 q 697 692 713 674 l 707 751 q 724 732 713 740 q 751 719 735 724 q 785 715 767 715 q 853 746 822 715 q 893 824 883 776 l 931 1001 l 1000 1001 l 961 818 q 897 697 946 742 q 783 651 849 651 m 500 910 l 490 972 q 566 1006 539 985 q 599 1050 593 1028 q 590 1081 603 1069 q 561 1092 578 1092 q 490 1074 526 1092 q 429 1039 453 1056 l 442 1119 q 502 1146 468 1136 q 563 1156 536 1156 q 646 1124 615 1156 q 665 1039 676 1092 q 615 962 657 997 q 500 910 574 926 z "},"ỡ":{"ha":833,"x_min":82,"x_max":1000,"o":"m 328 -19 q 155 23 213 -19 q 90 165 97 65 q 119 435 82 264 q 205 667 147 568 q 340 822 263 767 q 506 878 418 878 q 678 835 621 878 q 744 694 736 793 q 714 424 751 596 q 628 192 686 292 q 494 36 571 92 q 328 -19 417 -19 m 329 44 q 463 93 400 44 q 574 230 526 142 q 647 435 622 318 q 675 663 678 581 q 631 780 672 746 q 504 814 590 814 q 370 765 433 814 q 259 629 307 717 q 186 424 211 542 q 158 196 156 279 q 203 78 161 113 q 329 44 244 44 m 783 651 q 736 663 760 651 q 697 692 713 674 l 707 751 q 724 732 713 740 q 751 719 735 724 q 785 715 767 715 q 853 746 822 715 q 893 824 883 776 l 931 1001 l 1000 1001 l 961 818 q 897 697 946 742 q 783 651 849 651 m 632 974 q 578 990 600 974 q 538 1027 556 1006 q 505 1065 521 1049 q 468 1081 489 1081 q 423 1060 436 1081 q 403 1010 410 1040 l 335 1010 q 385 1108 349 1072 q 469 1144 421 1144 q 521 1128 499 1144 q 561 1091 543 1113 q 597 1053 579 1069 q 633 1038 614 1038 q 678 1057 665 1038 q 697 1104 692 1076 l 765 1104 q 717 1009 753 1044 q 632 974 681 974 z "},"ő":{"ha":833,"x_min":82,"x_max":799,"o":"m 328 -19 q 155 23 213 -19 q 90 165 97 65 q 119 435 82 264 q 205 667 147 568 q 340 822 263 767 q 506 878 418 878 q 678 835 621 878 q 744 694 736 793 q 714 424 751 596 q 628 192 686 292 q 494 36 571 92 q 328 -19 417 -19 m 329 44 q 463 93 400 44 q 574 230 526 142 q 647 435 622 318 q 675 663 678 581 q 631 780 672 746 q 504 814 590 814 q 370 765 433 814 q 259 629 307 717 q 186 424 211 542 q 158 196 156 279 q 203 78 161 113 q 329 44 244 44 m 579 954 l 542 1003 l 761 1167 l 799 1118 l 579 954 m 340 954 l 303 1003 l 522 1167 l 560 1118 l 340 954 z "},"ō":{"ha":833,"x_min":82,"x_max":751,"o":"m 328 -19 q 155 23 213 -19 q 90 165 97 65 q 119 435 82 264 q 205 667 147 568 q 340 822 263 767 q 506 878 418 878 q 678 835 621 878 q 744 694 736 793 q 714 424 751 596 q 628 192 686 292 q 494 36 571 92 q 328 -19 417 -19 m 329 44 q 463 93 400 44 q 574 230 526 142 q 647 435 622 318 q 675 663 678 581 q 631 780 672 746 q 504 814 590 814 q 370 765 433 814 q 259 629 307 717 q 186 424 211 542 q 158 196 156 279 q 203 78 161 113 q 329 44 244 44 m 349 1006 l 363 1069 l 743 1069 l 729 1006 l 349 1006 z "},"ø":{"ha":833,"x_min":4,"x_max":826,"o":"m 86 -43 l 4 -43 l 746 903 l 826 903 l 86 -43 m 328 -19 q 155 23 213 -19 q 90 165 97 65 q 119 435 82 264 q 205 667 147 568 q 340 822 263 767 q 506 878 418 878 q 678 835 621 878 q 744 694 736 793 q 714 424 751 596 q 628 192 686 292 q 494 36 571 92 q 328 -19 417 -19 m 329 44 q 463 93 400 44 q 574 230 526 142 q 647 435 622 318 q 675 663 678 581 q 631 780 672 746 q 504 814 590 814 q 370 765 433 814 q 259 629 307 717 q 186 424 211 542 q 158 196 156 279 q 203 78 161 113 q 329 44 244 44 z "},"õ":{"ha":833,"x_min":82,"x_max":765,"o":"m 328 -19 q 155 23 213 -19 q 90 165 97 65 q 119 435 82 264 q 205 667 147 568 q 340 822 263 767 q 506 878 418 878 q 678 835 621 878 q 744 694 736 793 q 714 424 751 596 q 628 192 686 292 q 494 36 571 92 q 328 -19 417 -19 m 329 44 q 463 93 400 44 q 574 230 526 142 q 647 435 622 318 q 675 663 678 581 q 631 780 672 746 q 504 814 590 814 q 370 765 433 814 q 259 629 307 717 q 186 424 211 542 q 158 196 156 279 q 203 78 161 113 q 329 44 244 44 m 632 974 q 578 990 600 974 q 538 1027 556 1006 q 505 1065 521 1049 q 468 1081 489 1081 q 423 1060 436 1081 q 403 1010 410 1040 l 335 1010 q 385 1108 349 1072 q 469 1144 421 1144 q 521 1128 499 1144 q 561 1091 543 1113 q 597 1053 579 1069 q 633 1038 614 1038 q 678 1057 665 1038 q 697 1104 692 1076 l 765 1104 q 717 1009 753 1044 q 632 974 681 974 z "},"œ":{"ha":833,"x_min":-8,"x_max":839,"o":"m 697 878 q 796 822 761 878 q 835 663 831 765 q 810 425 839 561 l 453 425 q 422 217 424 301 q 442 88 419 132 q 504 44 464 44 q 553 59 525 44 q 613 99 582 74 q 675 160 644 125 l 726 115 q 613 18 675 56 q 503 -19 551 -19 q 404 23 444 -19 q 357 135 364 65 q 258 23 319 65 q 135 -19 197 -19 q 33 38 68 -19 q -6 197 -3 94 q 24 435 -8 299 q 107 667 56 568 q 221 822 158 767 q 349 878 283 878 q 449 826 419 878 q 478 690 479 775 q 576 826 515 775 q 697 878 636 878 m 136 44 q 233 85 186 44 q 318 211 279 125 q 383 435 357 297 q 409 634 406 549 q 397 767 413 719 q 347 814 382 814 q 250 765 299 814 q 160 629 201 717 q 90 424 119 542 q 60 224 63 310 q 78 92 58 139 q 136 44 99 44 m 468 489 l 754 489 q 765 724 781 635 q 696 814 749 814 q 608 773 651 814 q 528 659 564 732 q 468 489 492 586 z "},"p":{"ha":833,"x_min":24,"x_max":772,"o":"m 542 878 q 711 835 657 878 q 769 694 765 793 q 736 424 772 596 q 654 192 708 292 q 526 36 600 92 q 364 -19 453 -19 q 266 -11 311 -19 q 192 15 221 -3 q 161 63 164 33 l 93 -253 l 24 -253 l 163 399 q 166 416 164 407 q 169 435 168 425 q 173 449 171 442 q 176 464 175 457 l 235 740 q 237 756 236 749 q 238 768 238 764 q 224 801 238 789 q 186 814 210 814 q 153 806 171 814 q 122 785 136 799 l 89 836 q 142 867 108 856 q 211 878 176 878 q 285 849 256 878 q 304 749 315 821 q 363 819 324 790 q 449 863 401 847 q 542 878 497 878 m 669 435 q 701 663 700 581 q 664 780 701 746 q 540 814 626 814 q 418 786 474 814 q 319 683 363 758 q 246 465 275 607 l 222 350 q 198 180 200 242 q 213 89 196 118 q 269 52 231 60 q 365 44 307 44 q 496 93 436 44 q 600 230 556 142 q 669 435 644 318 z "},"þ":{"ha":833,"x_min":-4,"x_max":744,"o":"m 514 878 q 683 835 629 878 q 741 694 738 793 q 708 424 744 596 q 626 192 681 292 q 499 36 572 92 q 336 -19 425 -19 q 238 -11 283 -19 q 165 15 193 -3 q 133 63 136 33 l 65 -253 l -4 -253 l 285 1111 l 354 1111 l 275 746 q 333 817 294 788 q 420 863 372 847 q 514 878 468 878 m 642 435 q 673 663 672 581 q 636 780 674 746 q 513 814 599 814 q 415 798 460 814 q 332 740 369 782 q 264 621 294 697 q 208 424 233 544 q 173 212 181 289 q 181 99 165 135 q 235 53 196 63 q 338 44 274 44 q 468 93 408 44 q 572 230 528 142 q 642 435 617 318 z "},"q":{"ha":833,"x_min":83,"x_max":779,"o":"m 710 858 l 779 858 l 543 -253 l 474 -253 l 550 103 q 498 43 535 71 q 413 -2 461 15 q 314 -19 364 -19 q 144 23 199 -19 q 87 165 90 65 q 119 435 83 264 q 201 667 147 568 q 330 822 256 767 q 492 878 404 878 q 639 847 592 878 q 689 771 686 815 l 710 858 m 315 44 q 410 59 367 44 q 492 112 454 74 q 560 222 529 150 q 614 408 590 294 l 632 496 q 656 662 653 599 q 642 758 658 725 q 588 802 625 790 q 490 814 550 814 q 360 765 419 814 q 256 629 300 717 q 186 424 211 542 q 155 196 156 279 q 192 78 154 113 q 315 44 231 44 z "},"r":{"ha":833,"x_min":107,"x_max":735,"o":"m 161 404 l 118 460 q 226 611 185 531 q 267 751 267 692 q 256 797 267 779 q 221 814 244 814 q 190 801 203 814 q 176 768 176 789 q 219 715 176 735 q 333 694 263 694 q 433 711 375 694 q 556 759 490 728 q 685 831 621 790 l 735 796 q 598 557 657 679 q 506 324 539 435 q 474 128 474 213 q 492 67 474 90 q 540 44 510 44 q 613 70 578 44 q 665 138 647 96 l 729 113 q 683 44 713 74 q 617 -3 654 14 q 540 -19 581 -19 q 442 21 479 -19 q 404 128 404 61 q 429 307 404 208 q 499 510 454 406 q 601 710 543 615 q 460 653 533 675 q 333 631 386 631 q 169 669 232 631 q 107 768 107 707 q 140 847 107 817 q 229 878 174 878 q 307 842 278 878 q 336 749 336 807 q 315 648 336 706 q 253 528 293 590 q 161 404 214 465 z "},"ŕ":{"ha":833,"x_min":107,"x_max":736,"o":"m 161 404 l 118 460 q 226 611 185 531 q 267 751 267 692 q 256 797 267 779 q 221 814 244 814 q 190 801 203 814 q 176 768 176 789 q 219 715 176 735 q 333 694 263 694 q 433 711 375 694 q 556 759 490 728 q 685 831 621 790 l 735 796 q 598 557 657 679 q 506 324 539 435 q 474 128 474 213 q 492 67 474 90 q 540 44 510 44 q 613 70 578 44 q 665 138 647 96 l 729 113 q 683 44 713 74 q 617 -3 654 14 q 540 -19 581 -19 q 442 21 479 -19 q 404 128 404 61 q 429 307 404 208 q 499 510 454 406 q 601 710 543 615 q 460 653 533 675 q 333 631 386 631 q 169 669 232 631 q 107 768 107 707 q 140 847 107 817 q 229 878 174 878 q 307 842 278 878 q 336 749 336 807 q 315 648 336 706 q 253 528 293 590 q 161 404 214 465 m 517 954 l 479 1003 l 699 1167 l 736 1118 l 517 954 z "},"ř":{"ha":833,"x_min":107,"x_max":746,"o":"m 161 404 l 118 460 q 226 611 185 531 q 267 751 267 692 q 256 797 267 779 q 221 814 244 814 q 190 801 203 814 q 176 768 176 789 q 219 715 176 735 q 333 694 263 694 q 433 711 375 694 q 556 759 490 728 q 685 831 621 790 l 735 796 q 598 557 657 679 q 506 324 539 435 q 474 128 474 213 q 492 67 474 90 q 540 44 510 44 q 613 70 578 44 q 665 138 647 96 l 729 113 q 683 44 713 74 q 617 -3 654 14 q 540 -19 581 -19 q 442 21 479 -19 q 404 128 404 61 q 429 307 404 208 q 499 510 454 406 q 601 710 543 615 q 460 653 533 675 q 333 631 386 631 q 169 669 232 631 q 107 768 107 707 q 140 847 107 817 q 229 878 174 878 q 307 842 278 878 q 336 749 336 807 q 315 648 336 706 q 253 528 293 590 q 161 404 214 465 m 532 963 l 383 1122 l 443 1164 l 547 1051 l 699 1167 l 746 1125 l 532 963 z "},"ŗ":{"ha":833,"x_min":107,"x_max":735,"o":"m 161 404 l 118 460 q 226 611 185 531 q 267 751 267 692 q 256 797 267 779 q 221 814 244 814 q 190 801 203 814 q 176 768 176 789 q 219 715 176 735 q 333 694 263 694 q 433 711 375 694 q 556 759 490 728 q 685 831 621 790 l 735 796 q 598 557 657 679 q 506 324 539 435 q 474 128 474 213 q 492 67 474 90 q 540 44 510 44 q 613 70 578 44 q 665 138 647 96 l 729 113 q 683 44 713 74 q 617 -3 654 14 q 540 -19 581 -19 q 442 21 479 -19 q 404 128 404 61 q 429 307 404 208 q 499 510 454 406 q 601 710 543 615 q 460 653 533 675 q 333 631 386 631 q 169 669 232 631 q 107 768 107 707 q 140 847 107 817 q 229 878 174 878 q 307 842 278 878 q 336 749 336 807 q 315 648 336 706 q 253 528 293 590 q 161 404 214 465 m 358 -342 l 464 -174 q 439 -156 446 -171 q 438 -114 432 -142 q 457 -74 444 -83 q 501 -64 469 -64 q 549 -77 538 -64 q 554 -125 561 -90 q 526 -188 549 -150 q 472 -267 503 -226 q 410 -344 442 -308 l 358 -342 z "},"s":{"ha":833,"x_min":22,"x_max":728,"o":"m 301 -19 q 136 23 208 -19 q 22 136 64 65 l 83 164 q 172 77 115 110 q 288 44 228 44 q 428 94 371 44 q 516 224 486 143 q 546 400 546 306 q 531 501 546 450 q 493 585 517 551 q 405 497 458 536 q 288 431 351 457 q 161 397 225 406 l 149 461 q 320 519 238 471 q 450 640 403 568 q 392 715 413 676 q 371 781 371 754 q 397 851 371 824 q 469 878 422 878 q 548 850 519 878 q 576 776 576 822 q 565 713 576 750 q 531 644 554 676 q 592 527 569 597 q 615 392 615 457 q 584 216 615 297 q 494 74 553 135 q 563 101 526 85 q 633 139 600 118 q 685 181 667 160 l 728 136 q 620 55 688 90 q 471 0 553 19 q 301 -19 389 -19 m 485 690 q 505 736 500 717 q 510 771 510 756 q 501 808 510 794 q 472 821 492 821 q 447 810 456 821 q 438 782 438 800 q 450 738 438 760 q 485 690 463 717 z "},"ś":{"ha":833,"x_min":22,"x_max":728,"o":"m 301 -19 q 136 23 208 -19 q 22 136 64 65 l 83 164 q 172 77 115 110 q 288 44 228 44 q 428 94 371 44 q 516 224 486 143 q 546 400 546 306 q 531 501 546 450 q 493 585 517 551 q 405 497 458 536 q 288 431 351 457 q 161 397 225 406 l 149 461 q 320 519 238 471 q 450 640 403 568 q 392 715 413 676 q 371 781 371 754 q 397 851 371 824 q 469 878 422 878 q 548 850 519 878 q 576 776 576 822 q 565 713 576 750 q 531 644 554 676 q 592 527 569 597 q 615 392 615 457 q 584 216 615 297 q 494 74 553 135 q 563 101 526 85 q 633 139 600 118 q 685 181 667 160 l 728 136 q 620 55 688 90 q 471 0 553 19 q 301 -19 389 -19 m 485 690 q 505 736 500 717 q 510 771 510 756 q 501 808 510 794 q 472 821 492 821 q 447 810 456 821 q 438 782 438 800 q 450 738 438 760 q 485 690 463 717 m 503 954 l 465 1003 l 685 1167 l 722 1118 l 503 954 z "},"š":{"ha":833,"x_min":22,"x_max":732,"o":"m 301 -19 q 136 23 208 -19 q 22 136 64 65 l 83 164 q 172 77 115 110 q 288 44 228 44 q 428 94 371 44 q 516 224 486 143 q 546 400 546 306 q 531 501 546 450 q 493 585 517 551 q 405 497 458 536 q 288 431 351 457 q 161 397 225 406 l 149 461 q 320 519 238 471 q 450 640 403 568 q 392 715 413 676 q 371 781 371 754 q 397 851 371 824 q 469 878 422 878 q 548 850 519 878 q 576 776 576 822 q 565 713 576 750 q 531 644 554 676 q 592 527 569 597 q 615 392 615 457 q 584 216 615 297 q 494 74 553 135 q 563 101 526 85 q 633 139 600 118 q 685 181 667 160 l 728 136 q 620 55 688 90 q 471 0 553 19 q 301 -19 389 -19 m 485 690 q 505 736 500 717 q 510 771 510 756 q 501 808 510 794 q 472 821 492 821 q 447 810 456 821 q 438 782 438 800 q 450 738 438 760 q 485 690 463 717 m 518 963 l 369 1122 l 429 1164 l 533 1051 l 685 1167 l 732 1125 l 518 963 z "},"ş":{"ha":833,"x_min":22,"x_max":728,"o":"m 301 -19 q 136 23 208 -19 q 22 136 64 65 l 83 164 q 172 77 115 110 q 288 44 228 44 q 428 94 371 44 q 516 224 486 143 q 546 400 546 306 q 531 501 546 450 q 493 585 517 551 q 405 497 458 536 q 288 431 351 457 q 161 397 225 406 l 149 461 q 320 519 238 471 q 450 640 403 568 q 392 715 413 676 q 371 781 371 754 q 397 851 371 824 q 469 878 422 878 q 548 850 519 878 q 576 776 576 822 q 565 713 576 750 q 531 644 554 676 q 592 527 569 597 q 615 392 615 457 q 584 216 615 297 q 494 74 553 135 q 563 101 526 85 q 633 139 600 118 q 685 181 667 160 l 728 136 q 620 55 688 90 q 471 0 553 19 q 301 -19 389 -19 m 485 690 q 505 736 500 717 q 510 771 510 756 q 501 808 510 794 q 472 821 492 821 q 447 810 456 821 q 438 782 438 800 q 450 738 438 760 q 485 690 463 717 m 246 -272 q 181 -261 211 -272 q 132 -232 150 -250 l 169 -176 q 206 -199 185 -190 q 247 -208 228 -208 q 310 -192 283 -208 q 342 -151 336 -176 q 321 -122 346 -132 q 250 -111 296 -111 l 272 7 l 342 7 l 326 -56 q 394 -95 371 -65 q 408 -162 417 -125 q 354 -242 399 -212 q 246 -272 310 -272 z "},"ŝ":{"ha":833,"x_min":22,"x_max":728,"o":"m 301 -19 q 136 23 208 -19 q 22 136 64 65 l 83 164 q 172 77 115 110 q 288 44 228 44 q 428 94 371 44 q 516 224 486 143 q 546 400 546 306 q 531 501 546 450 q 493 585 517 551 q 405 497 458 536 q 288 431 351 457 q 161 397 225 406 l 149 461 q 320 519 238 471 q 450 640 403 568 q 392 715 413 676 q 371 781 371 754 q 397 851 371 824 q 469 878 422 878 q 548 850 519 878 q 576 776 576 822 q 565 713 576 750 q 531 644 554 676 q 592 527 569 597 q 615 392 615 457 q 584 216 615 297 q 494 74 553 135 q 563 101 526 85 q 633 139 600 118 q 685 181 667 160 l 728 136 q 620 55 688 90 q 471 0 553 19 q 301 -19 389 -19 m 485 690 q 505 736 500 717 q 510 771 510 756 q 501 808 510 794 q 472 821 492 821 q 447 810 456 821 q 438 782 438 800 q 450 738 438 760 q 485 690 463 717 m 642 951 l 540 1067 l 389 954 l 343 996 l 556 1156 l 703 993 l 642 951 z "},"ș":{"ha":833,"x_min":22,"x_max":728,"o":"m 301 -19 q 136 23 208 -19 q 22 136 64 65 l 83 164 q 172 77 115 110 q 288 44 228 44 q 428 94 371 44 q 516 224 486 143 q 546 400 546 306 q 531 501 546 450 q 493 585 517 551 q 405 497 458 536 q 288 431 351 457 q 161 397 225 406 l 149 461 q 320 519 238 471 q 450 640 403 568 q 392 715 413 676 q 371 781 371 754 q 397 851 371 824 q 469 878 422 878 q 548 850 519 878 q 576 776 576 822 q 565 713 576 750 q 531 644 554 676 q 592 527 569 597 q 615 392 615 457 q 584 216 615 297 q 494 74 553 135 q 563 101 526 85 q 633 139 600 118 q 685 181 667 160 l 728 136 q 620 55 688 90 q 471 0 553 19 q 301 -19 389 -19 m 485 690 q 505 736 500 717 q 510 771 510 756 q 501 808 510 794 q 472 821 492 821 q 447 810 456 821 q 438 782 438 800 q 450 738 438 760 q 485 690 463 717 m 164 -342 l 269 -174 q 244 -156 251 -171 q 243 -114 238 -142 q 263 -74 250 -83 q 307 -64 275 -64 q 355 -77 343 -64 q 360 -125 367 -90 q 331 -188 354 -150 q 278 -267 308 -226 q 215 -344 247 -308 l 164 -342 z "},"ß":{"ha":833,"x_min":32,"x_max":796,"o":"m 607 594 q 683 538 658 572 q 711 449 708 504 q 694 306 714 393 q 628 122 669 189 q 517 28 588 56 q 333 0 447 0 l 254 0 l 268 64 l 342 64 q 485 88 429 64 q 574 167 540 111 q 628 317 608 222 q 638 462 647 410 q 585 536 629 514 q 453 558 540 558 l 401 558 l 415 622 l 425 622 q 567 642 513 622 q 655 711 622 663 q 704 842 688 760 q 713 977 722 928 q 659 1047 703 1026 q 529 1067 615 1067 q 406 1045 454 1067 q 328 972 357 1024 q 279 833 299 921 l 101 0 l 32 0 l 211 839 q 272 1015 235 951 q 370 1104 308 1078 q 531 1131 432 1131 q 706 1103 646 1131 q 781 1010 767 1075 q 771 831 796 944 q 738 722 757 765 q 688 648 718 678 q 607 594 657 618 z "},"t":{"ha":833,"x_min":176,"x_max":721,"o":"m 418 -19 q 243 53 281 -19 q 240 286 206 125 l 349 794 l 176 794 l 190 858 l 363 858 l 415 1111 l 485 1111 l 432 858 l 721 858 l 707 794 l 418 794 l 308 281 q 304 100 282 156 q 419 44 326 44 q 503 53 469 44 q 561 80 538 61 q 603 129 585 99 l 665 101 q 606 28 638 54 q 529 -9 574 1 q 418 -19 485 -19 z "},"ŧ":{"ha":833,"x_min":113,"x_max":721,"o":"m 113 492 l 125 556 l 656 556 l 643 492 l 113 492 m 418 -19 q 243 53 281 -19 q 240 286 206 125 l 349 794 l 176 794 l 190 858 l 363 858 l 415 1111 l 485 1111 l 432 858 l 721 858 l 707 794 l 418 794 l 308 281 q 304 100 282 156 q 419 44 326 44 q 503 53 469 44 q 561 80 538 61 q 603 129 585 99 l 665 101 q 606 28 638 54 q 529 -9 574 1 q 418 -19 485 -19 z "},"ť":{"ha":833,"x_min":176,"x_max":721,"o":"m 418 -19 q 243 53 281 -19 q 240 286 206 125 l 349 794 l 176 794 l 190 858 l 363 858 l 415 1111 l 485 1111 l 432 858 l 721 858 l 707 794 l 418 794 l 308 281 q 304 100 282 156 q 419 44 326 44 q 503 53 469 44 q 561 80 538 61 q 603 129 585 99 l 665 101 q 606 28 638 54 q 529 -9 574 1 q 418 -19 485 -19 m 556 932 l 617 1274 l 694 1274 l 611 932 l 556 932 z "}}}
